<svg width="1024" height="1024" xmlns="http://www.w3.org/2000/svg" class="icon">
 <defs>
  <style type="text/css"/>
 </defs>
 <g>
  <title>background</title>
  <rect fill="none" id="canvas_background" height="402" width="582" y="-1" x="-1"/>
 </g>
 <g>
  <title>Layer 1</title>
  <path stroke="null" transform="rotate(-0.02567516826093197 376.6929321288328,404.02038574218847) " id="svg_1" fill="#ff5656" d="m376.900742,113.816227c-163.969713,0 -296.885231,110.451698 -296.885231,246.673525c0,68.952505 34.141802,131.259336 89.065569,176.008815l0,157.725954l96.754897,-105.082922c18.020934,6.065267 36.932523,10.621472 56.49726,13.697636a178.428024,174.412692 0 0 1 -4.809541,-39.20658c0,-49.073521 21.286671,-94.200266 56.794145,-130.591866l-63.563128,0l-17.813114,58.040829l-30.994818,0l89.065569,-290.204147l22.088261,0l57.89262,188.661716c47.026621,-27.221149 105.245815,-43.559642 168.571434,-43.559642c25.561818,0 50.232981,2.873021 73.805669,7.806492c-4.304836,-133.116642 -135.231223,-239.969809 -296.469592,-239.969809zm-57.239473,290.204147l84.790422,0l-42.395211,-138.137174l-42.395211,138.137174z"/>
  <path stroke="null" id="svg_2" fill="#E66910" d="m687.073333,589.273333c1.42,-4.72 2.72,-9.16 3.86,-13.16l-19.22,-5.54c-1.26,4.36 -2.64,9.14 -4.18,14.18a145.24,145.24 0 0 0 -21,-1.42c-11.84,0 -22.4,1.26 -32.32,3.12a914.72,914.72 0 0 1 -2.16,-45.36c37.04,-2.6 67.1,-7.94 93.06,-18.52l-7.54,-18.52c-23.58,9.58 -51.46,14.52 -85.94,17c-0.18,-11.68 -0.3,-24 -0.3,-37.72l-20,0c0,14.08 0.12,26.78 0.3,38.86c-18.3,0.8 -38.16,1.14 -60.3,1.14l0,20c22.18,0 42.18,-0.34 60.7,-1.14c0.5,18.64 1.26,34.98 2.42,49.04c-43.14,14.5 -63.12,46.16 -63.12,70.44c0,25.32 19.3,41.66 49.18,41.66c17.86,0 32.84,-5.06 45.46,-13.3c2.12,2.6 4.34,5.18 6.72,7.74l14.68,-13.6a170.04,170.04 0 0 1 -5.98,-6.84c19,-19.08 31.24,-45.68 39.56,-69.28c17.1,5.7 30.38,17.44 30.38,40.28c0,19.3 -17.94,35 -40,35l0,20c33.08,0 60,-24.66 60,-55c0,-28.9 -15.98,-49.54 -44.26,-59.06zm-106.56,94.06c-10.9,0 -29.18,-2.82 -29.18,-21.66c0,-16.82 14.62,-38.16 45.32,-49.78c3.58,28 9.26,46.44 17.72,61.34a61.88,61.88 0 0 1 -33.86,10.1zm49.48,-23.16c-6.34,-12.36 -10.88,-28.48 -13.88,-53.74a155.26,155.26 0 0 1 45.08,-2.4c-7.12,19.82 -17.02,40.7 -31.2,56.14z"/>
  <path id="svg_3" fill="#413A4D" d="m700.032,327.264c-23.2,-130.848 -155.648,-231.264 -316.032,-231.264c-176.736,0 -320,121.792 -320,272c0,76.032 36.8,144.736 96,194.08l0,173.92l104.288,-115.872c8.8,3.04 17.856,5.696 27.04,8.064c21.92,133.056 162.304,235.808 332.672,235.808c5.44,0 10.688,-0.448 16.064,-0.672l127.936,142.176l0,-168.032c113.408,-43.68 192,-137.024 192,-245.472c0,-129.024 -111.104,-236.8 -259.968,-264.736zm-412.224,266.752l0.288,-0.32l0,0.416c-0.064,-0.064 -0.16,-0.096 -0.288,-0.096zm1.408,-21.312l-21.856,-4.864l-75.36,83.712l0,-105.12c-58.752,-43.936 -96,-107.456 -96,-178.432c0,-132.544 128.928,-240 288,-240c140.32,0 257.088,83.68 282.656,194.432c-13.984,-1.44 -28.16,-2.432 -42.656,-2.432c-177.504,0 -322.528,111.52 -334.784,252.704zm446.368,242.4l-0.032,101.216l-78.912,-85.76c-10.688,0.896 -21.6,1.44 -32.64,1.44c-167.904,0 -304,-107.424 -304,-240c0,-132.544 136.096,-240 304,-240c167.872,0 304,107.456 304,240c0,101.408 -79.808,187.936 -192.416,223.104z"/>
  <path id="svg_4" d="m341.5,523" opacity="0.5" fill-opacity="null" stroke-opacity="null" stroke-width="null" stroke="null" fill="#34B5C7"/>
  <path d="m343.5,530c-1,0 -2.3909,-0.552673 -4,1c-9.016754,8.7005 -8.544434,17.132813 -14,35c-1.846954,6.048889 -4,17 -4,22c0,3 -0.993988,2.16449 -2,-7c-1.200287,-10.934326 0,-23 0,-35c0,-12 -1,-21 -2,-25l-1,-1" id="svg_5" fill-opacity="null" stroke-opacity="null" stroke-width="null" stroke="null" fill="none"/>
  <path d="m327.5,554c0,0 1.852722,1.173096 3,2c1.813995,1.307434 5.309998,2.337463 8,4c2.406006,1.487 5.881531,4.190308 9,6c1.93399,1.122314 4,3 7,4l1,1l1,0l1,1" id="svg_6" fill-opacity="null" stroke-opacity="null" stroke-width="null" stroke="null" fill="none"/>
  <path d="m435.5,470c1,3 5.322968,13.93811 9,34c4.386414,23.932373 6,49 6,71c0,18 0,31 0,39l0,4l0,1" id="svg_9" fill-opacity="null" stroke-opacity="null" stroke-width="null" stroke="null" fill="none"/>
  <path d="m498.5,437c1,0 3.666565,1.731293 5,6c4.216736,13.498871 2.905548,32.125397 -1,57c-5.688538,36.230408 -10.311768,47.897705 -21,81c-5.150696,15.952148 -7,26 -9,30l0,1" id="svg_10" fill-opacity="null" stroke-opacity="null" stroke-width="null" stroke="null" fill="none"/>
  <path transform="rotate(68.66643524169922 293.23205566406244,599.2374267578125) " id="svg_11" d="m281.176465,595.294101c22.941176,-16.470588 17.058823,-24.705882 28.235293,-14.705882c11.17647,10 -48.823528,52.941175 -21.17647,38.823528c27.647058,-14.117647 -29.999999,-7.647059 -7.058823,-24.117646z" fill-opacity="null" stroke-opacity="null" stroke-width="null" stroke="null" fill="#413A4D"/>
  <path id="svg_16" d="m403.666667,582l55,-138.666667" opacity="0.5" fill-opacity="null" stroke-opacity="null" stroke-width="null" stroke="null" fill="#413A4D"/>
 </g>
</svg>