<svg width="512" height="512" xmlns="http://www.w3.org/2000/svg">

 <g>
  <title>background</title>
  <rect fill="none" id="canvas_background" height="402" width="582" y="-1" x="-1"/>
 </g>
 <g>
  <title>Layer 1</title>
  <path stroke="null" id="svg_1" fill="#0a77e8" d="m101.791836,201.825325l-25.501454,51.002909l25.501454,51.002909c28.168485,0 51.002909,-22.834424 51.002909,-51.002909s-22.834424,-51.002909 -51.002909,-51.002909zm0,0"/>
  <path stroke="null" id="svg_2" fill="#0f9af0" d="m51.847148,252.828228c0,28.166878 22.833128,50.999998 50.999998,50.999998l0,-101.999997c-28.166871,0 -50.999998,22.833128 -50.999998,50.999998zm0,0"/>
  <path stroke="null" id="svg_3" fill="#085aae" d="m397.953455,201.772887l-25.527668,51.055336l25.527668,51.055336c28.19744,0 51.055336,-22.857896 51.055336,-51.055336s-22.857896,-51.055336 -51.055336,-51.055336zm0,0"/>
  <path stroke="null" id="svg_4" fill="#0a77e8" d="m347.19208,252.828237c0,28.166878 22.833128,50.999999 50.999999,50.999999l0,-101.999998c-28.166871,0 -50.999999,22.833128 -50.999999,50.999999zm0,0"/>
  <path stroke="null" id="svg_5" fill="#085aae" d="m253.088797,202.864599l-24.981816,49.963633l24.981816,49.963633c27.594501,0 49.963633,-22.369131 49.963633,-49.963633s-22.369131,-49.963633 -49.963633,-49.963633zm0,0"/>
  <path stroke="null" id="svg_6" fill="#0a77e8" d="m202.847148,252.828233c0,27.614588 22.385421,50.000003 50.000003,50.000003l0,-100.000005c-27.614581,0 -50.000003,22.385421 -50.000003,50.000003zm0,0"/>
 </g>
</svg>