<svg height="512pt" viewBox="0 -66 512 512" width="512pt" xmlns="http://www.w3.org/2000/svg"><path d="m371.398438 215.011719-40.75 61.25-13.046876-8.691407-11.929687-7.929687 40.75-61.25 11.949219 7.949219zm0 0" fill="#ff8900"/><path d="m371.398438 215.011719-40.75 61.25-13.046876-8.691407 40.769532-61.230468zm0 0" fill="#c06100"/><path d="m498.488281 94.730469-1.347656 7.097656-22.039063 11.59375 10.25 22.539063-3.632812 6.589843c-1.878906 3.417969-3.867188 6.710938-5.917969 9.777344-38.742187 58.230469-114.992187 73.761719-118.222656 74.390625l-14.578125 2.859375-.03125-.117187-2.96875-14.429688c-.660156-3.222656-15.789062-79.550781 22.949219-137.78125 38.730469-58.230469 114.992187-73.761719 118.210937-74.390625l14.589844-2.859375 2.988281 14.558594c.320313 1.550781 7.710938 38.382812-.25 80.171875zm0 0" fill="#fec000"/><path d="m492 249.070312v105h-472v-105h174.5c25.179688 0 47.550781 12.230469 61.5 31.058594 13.949219-18.828125 36.320312-31.058594 61.5-31.058594zm0 0" fill="#dfcdbd"/><path d="m492 249.070312v105h-236v-73.941406c13.949219-18.828125 36.320312-31.058594 61.5-31.058594zm0 0" fill="#c8ad92"/><path d="m0 324.070312h512v54.949219h-512zm0 0" fill="#00ad95"/><path d="m256 324.070312h256v54.949219h-256zm0 0" fill="#006659"/><path d="m498.488281 94.730469-1.347656 7.097656-22.039063 11.59375 10.25 22.539063-3.632812 6.589843c-1.878906 3.417969-3.867188 6.710938-5.917969 9.777344-38.742187 58.230469-114.992187 73.761719-118.222656 74.390625l-14.578125 2.859375-.03125-.117187 152.78125-229.460938 2.988281 14.558594c.320313 1.550781 7.710938 38.382812-.25 80.171875zm0 0" fill="#ff8900"/></svg>