<?xml version="1.0" standalone="no"?><!DOCTYPE svg PUBLIC "-//W3C//DTD SVG 1.1//EN" "http://www.w3.org/Graphics/SVG/1.1/DTD/svg11.dtd" ><svg xmlns="http://www.w3.org/2000/svg"><metadata></metadata><defs><font id="DengXian Regular" horiz-adv-x="2048"><font-face font-family="DengXian" font-weight="400" font-stretch="normal" units-per-em="2048" panose-1="2 1 6 0 3 1 1 1 1 1" ascent="1659" descent="-475" x-height="1" bbox="-23 -475 2048 1657" underline-thickness="102" underline-position="-365" unicode-range="U+0021-ff1f" /><missing-glyph horiz-adv-x="2048" d="M0 0 q0 0 0 0 Z" /><glyph glyph-name="" unicode="&#x2192;" d="M0 754 l1679 0 q-147 147 -155 364 q209 -276 524 -393 q-313 -119 -524 -401 q-11 166 155 364 l-1679 0 l0 66 Z" /><glyph glyph-name="" unicode="&#x3001;" d="M276 166 l64 86 q240 -170 408 -379 l-89 -104 q-114 182 -383 397 Z" /><glyph glyph-name="" unicode="&#x3002;" d="M512 217 q-166 -22 -189 -188 q23 -161 189 -184 q168 23 191 184 q-23 166 -191 188 ZM512 281 q232 -23 254 -252 q-24 -223 -254 -248 q-228 25 -252 248 q24 229 252 252 Z" /><glyph glyph-name="" unicode="&#x300a;" d="M1497 1628 l102 -55 l-471 -936 l471 -932 l-102 -55 l-512 987 l512 991 ZM1784 1628 l104 -55 l-473 -936 l473 -932 l-104 -55 l-512 987 l512 991 Z" /><glyph glyph-name="" unicode="&#x300b;" d="M551 1628 l512 -991 l-512 -987 l-102 55 l471 932 l-471 936 l102 55 ZM264 1628 l512 -991 l-512 -987 l-104 55 l473 932 l-473 936 l104 55 Z" /><glyph glyph-name="" unicode="&#x300c;" d="M1868 1618 l0 -113 l-504 0 l0 -1845 l-110 0 l0 1958 l614 0 Z" /><glyph glyph-name="" unicode="&#x300d;" d="M180 -340 l0 113 l504 0 l0 1845 l110 0 l0 -1958 l-614 0 Z" /><glyph glyph-name="" unicode="&#x300e;" d="M1293 1565 l575 0 l0 -215 l-367 0 l0 -1637 l-208 0 l0 1852 ZM1334 1526 l0 -1774 l126 0 l0 1637 l369 0 l0 137 l-495 0 Z" /><glyph glyph-name="" unicode="&#x300f;" d="M755 -287 l-575 0 l0 211 l367 0 l0 1641 l208 0 l0 -1852 ZM714 -248 l0 1774 l-126 0 l0 -1637 l-369 0 l0 -137 l495 0 Z" /><glyph glyph-name="" unicode="&#x3042;" d="M1405 1259 l8 -110 q-331 -73 -528 -96 q-16 -99 -23 -246 q176 60 338 57 q10 62 17 119 l145 -29 q-11 -50 -25 -102 q492 -109 518 -514 q-18 -426 -536 -625 l-96 84 q496 188 510 520 q-21 370 -424 439 q-86 -289 -258 -512 q-62 -84 -121 -148 q18 -70 43 -141 l-127 -41 q-16 45 -23 74 q-203 -180 -385 -181 q-232 8 -241 246 q26 340 374 606 q77 55 166 97 q5 121 27 284 q-103 -10 -216 -13 q-110 -2 -257 1 l-8 111 q141 -11 254 -11 q126 0 241 13 q4 26 14 80 q10 57 15 88 q9 41 9 90 q0 49 -9 106 q21 -1 60 -1 q92 -1 141 -7 q-61 -136 -101 -324 q-3 -9 -4 -18 q216 30 502 104 ZM735 596 l0 41 q-52 -26 -92 -53 q-305 -226 -326 -517 q4 -137 107 -143 q170 -1 364 195 q-53 255 -53 477 ZM858 690 l0 -37 q-3 -219 39 -416 q9 11 27 34 q26 33 39 50 q158 206 215 439 q-160 -10 -320 -70 Z" /><glyph glyph-name="" unicode="&#x3044;" d="M1919 409 l-121 -53 q-201 454 -383 707 l113 51 q255 -379 391 -705 ZM952 309 l76 -117 q-255 -315 -379 -297 q-170 2 -276 207 q-188 323 -238 1164 l166 -39 q-1 -5 -4 -16 q-15 -52 -14 -105 q13 -651 221 -977 q71 -106 146 -106 q41 0 85 34 q78 49 217 252 Z" /><glyph glyph-name="" unicode="&#x3046;" d="M1090 -365 l-115 84 q495 377 481 860 q-3 332 -239 338 q-17 3 -32 3 q-162 0 -607 -220 l-119 166 q119 -5 289 49 q346 109 439 109 q10 0 19 -2 q366 -9 373 -440 q22 -501 -489 -947 ZM1464 1405 l-28 -109 q-314 71 -586 189 l37 94 q321 -134 577 -174 Z" /><glyph glyph-name="" unicode="&#x3048;" d="M1362 1347 l-51 -114 q-261 101 -494 227 l62 102 q288 -145 483 -215 ZM1812 -72 l0 -139 q-198 -27 -382 -27 q-212 -6 -254 176 q-27 97 -58 279 q-14 90 -48.5 125.5 q-34.5 35.5 -108.5 34.5 q-94 4 -173 -92 q-189 -225 -409 -533 l-111 86 q529 676 846 1057 q-196 -27 -360 -60 q-221 -43 -312 -73 l-77 141 q194 13 454 53 q258 39 348 99 q38 -19 159 -95 q16 -10 22 -14 q15 -10 15 -20 q0 -11 -17 -23 q-149 -88 -404 -414 q26 2 45 2 q217 0 250 -184 q32 -198 53 -291 q27 -135 158 -129 q163 4 364 41 Z" /><glyph glyph-name="" unicode="&#x304a;" d="M1094 1132 l4 -102 q-175 -54 -330 -86 q0 -131 1 -199 q1 -79 3 -147 q253 121 494 119 q446 -24 473 -353 q-11 -453 -645 -536 l-78 112 q605 73 600 424 q-10 236 -371 242 q-206 1 -469 -137 q9 -252 35 -572 q1 -11 1 -24 q0 -133 -146 -131 q-392 46 -459 330 q-7 162 252 342 q90 63 192 120 q-2 75 -3 164 q-1 43 -1 94 q0 45 0 129 q-170 -27 -401 -26 l-13 115 q85 -11 164 -11 q117 0 252 23 q1 21 2 62 q1 41 2 61 q2 78 2 122 q1 46 0 80 q-1 65 -8 125 l184 -39 q-62 -161 -63 -389 q126 26 326 88 ZM688 -96 q-21 235 -33 497 q-63 -38 -163 -110 q-159 -114 -162 -207 q60 -175 317 -221 q42 2 41 41 ZM1845 1022 l-63 -103 q-174 121 -410 224 l68 98 q240 -110 405 -219 Z" /><glyph glyph-name="" unicode="&#x304b;" d="M676 -152 l-74 156 q63 -9 99 -11 q40 -3 96 -3 q191 -13 264 166 q110 259 119 610 q5 120 -123 115 q-138 0 -332 -21 q-142 -501 -487 -944 l-132 72 q337 361 488 854 q-223 -35 -369 -95 q-12 -7 -21 -7 q-14 0 -18 18 l-61 143 q51 -7 102 -7 q70 0 150 13 q36 5 104 14 q97 14 142 19 q6 20 15 63 q9 35 13 52 q39 159 39 288 q0 53 -6 97 q71 -11 137 -27 q23 -5 37 -8 q19 -4 19 -16 q0 -11 -13 -27 q-28 -29 -61 -197 q-25 -110 -49 -209 q180 17 303 17 q257 9 246 -207 q-12 -392 -138 -678 q-85 -244 -489 -240 ZM1993 676 l-107 -70 q-234 377 -461 569 l93 76 q233 -202 475 -575 Z" /><glyph glyph-name="" unicode="&#x304c;" d="M700 -158 l-74 156 q69 -10 103 -12 q40 -3 92 -3 q167 -11 225 134 q107 256 119 643 q5 119 -123 114 q-113 0 -309 -34 q-132 -498 -467 -975 l-135 59 q332 416 469 887 q-207 -51 -342 -109 q-13 -7 -21 -7 q-14 0 -18 18 l-62 143 q63 -8 114.5 -5 q51.5 3 123.5 19 q133 29 233 45 q9 33 24 99 q7 33 11 49 q39 168 39 293 q0 48 -6 92 q108 -20 180 -35 q16 -2 16 -12 q0 -9 -12 -25 q-33 -38 -65 -203 q-32 -142 -56 -235 q191 29 283 29 q257 9 246 -207 q-12 -421 -137 -711 q-59 -121 -155 -162 q-95 -46 -296 -45 ZM1751 651 l-106 -69 q-247 399 -408 555 l92 63 q227 -230 422 -549 ZM1762 1167 l-86 -67 q-87 112 -204 223 l80 61 q114 -94 210 -217 ZM1936 1354 l-86 -68 q-98 124 -205 223 l80 62 q109 -90 211 -217 Z" /><glyph glyph-name="" unicode="&#x304d;" d="M598 1063 l-51 86 q190 24 371 69 q-106 214 -130 314 l130 20 q25 -109 116 -299 q175 53 342 125 l43 -84 q-189 -79 -346 -127 q74 -144 162 -299 q223 57 405 121 l37 -84 q-197 -70 -391 -123 q159 -265 338 -508 l-82 -80 q-367 161 -682 158 q-367 0 -368 -219 q2 -313 716 -305 l-8 -125 q-831 0 -831 430 q8 321 499 326 q285 1 527 -80 q-92 136 -230 372 q-330 -77 -647 -98 l-45 94 q324 26 641 95 q-88 157 -156 295 q-176 -48 -360 -74 Z" /><glyph glyph-name="" unicode="&#x304f;" d="M1380 -262 l-139 -86 q-246 405 -506 755 q-100 135 -96 209 q-1 81 123 238 q192 247 330 479 q67 109 102 211 l158 -102 q12 -8 12 -15 q0 -10 -16 -20 q-59 -36 -123 -129 q-195 -276 -346 -467 q-117 -145 -109 -197 q-2 -55 66 -137 q296 -373 544 -739 Z" /><glyph glyph-name="" unicode="&#x3051;" d="M1829 1022 l14 -107 q-179 -48 -336 -71 q2 -39 2 -103 q3 -372 -76 -569 q-71 -200 -311 -455 l-131 70 q238 206 315 405 q83 194 80 566 l0 67 q-136 -16 -280 -16 q-136 1 -232 12 l-40 113 q136 -21 272 -21 q153 0 276 17 q-11 320 -75 520 q61 -2 162 -13 q23 -3 36 -4 q25 -2 25 -19 q0 -10 -8 -24 q-21 -38 -26 -74.5 q-5 -36.5 -5 -75.5 q0 -31 2 -63 q4 -73 12 -231 q154 26 324 76 ZM410 63 l122 306 l64 -37 q-90 -272 -100 -502 l-105 -25 q-197 367 -190 807 q2 213 63 572 q14 77 14.5 134 q0.5 57 -12.5 130 q81 -13 189 -66 q-135 -345 -133 -770 q-3 -338 88 -549 Z" /><glyph glyph-name="" unicode="&#x3052;" d="M1686 1034 l14 -106 q-181 -49 -357 -76 q3 -37 3 -98 q3 -372 -76 -568 q-71 -200 -312 -457 l-131 70 q239 208 316 406 q83 194 80 565 l0 65 q-133 -14 -260 -14 q-136 1 -232 12 l-41 113 q140 -20 273 -20 q122 0 256 14 q-10 314 -76 522 q58 -2 151 -11 q30 -3 47 -5 q25 -2 25 -19 q0 -10 -8 -24 q-21 -38 -26 -74.5 q-5 -36.5 -5 -75.5 q0 -31 2 -63 q3 -60 10 -194 q1 -27 2 -40 q167 26 345 78 ZM283 59 l143 334 l63 -37 q-113 -337 -120 -530 l-105 -25 q-120 209 -164 388 q-46 178 -45 446 q2 207 64 571 q14 78 14 134.5 q0 56.5 -12 129.5 q85 -14 188 -65 q-135 -349 -133 -770 q-5 -359 107 -576 ZM1995 1472 l-76 -77 q-103 98 -236 190 l72 72 q143 -92 240 -185 ZM1802 1290 l-76 -78 q-111 119 -219 207 l72 72 q117 -90 223 -201 Z" /><glyph glyph-name="" unicode="&#x3053;" d="M1462 1331 l0 -106 q-263 -54 -428 -54 q-216 -4 -452 80 l-19 107 q279 -87 471 -82 q165 -4 428 55 ZM1718 74 l0 -111 q-363 -53 -708 -51 q-23 -1 -48 -1 q-398 0 -640 300 l77 67 q143 -152 274 -206 q129 -57 337 -56 q337 -2 708 58 Z" /><glyph glyph-name="" unicode="&#x3055;" d="M1524 1180 l28 -99 q-175 -72 -303 -106 q171 -289 422 -625 l-82 -80 q-438 211 -712 199 q-376 -6 -388 -234 q22 -358 758 -344 l-8 -125 q-854 -9 -872 469 q18 329 518 340 q282 7 557 -120 q-165 236 -312 489 q-290 -72 -686 -98 l-41 106 q367 17 672 86 q-27 53 -55 103 q-119 218 -139 319 l143 23 q7 -108 96 -277 q32 -65 76 -139 q182 49 328 113 Z" /><glyph glyph-name="" unicode="&#x3057;" d="M584 1358 l0 -1116 q2 -375 331 -377 q14 -1 35 -1 q271 0 602 308 l66 -113 q-380 -333 -703 -317 q-452 2 -454 502 l0 1079 q2 85 -25 186 q96 -15 164 -30 q9 -2 9 -9 q0 -5 -3 -10 q-23 -45 -22 -102 Z" /><glyph glyph-name="" unicode="&#x3058;" d="M1489 1065 l-80 -80 q-98 98 -240 201 l70 73 q125 -77 250 -194 ZM1683 1274 l-79 -80 q-105 99 -240 190 l70 74 q139 -86 249 -184 ZM530 1358 l0 -1116 q1 -375 332 -377 q22 -2 36 -2 q264 0 628 344 l65 -113 q-394 -371 -729 -352 q-452 2 -454 502 l0 1079 q2 80 -25 186 q96 -15 164 -30 q9 -2 9 -9 q0 -5 -3 -10 q-24 -47 -23 -102 Z" /><glyph glyph-name="" unicode="&#x3059;" d="M1214 1263 l0 -67 q279 6 666 6 l0 -137 q-199 22 -342 28 q-148 8 -324 5 l0 -326 q52 -107 52 -287 q13 -508 -414 -852 l-160 94 q358 233 426 531 q-89 -112 -231 -111 q-281 15 -291 369 q21 377 377 401 q65 1 117 -20 l0 199 q-18 0 -54 -1 q-37 -1 -57 -1 q-427 -8 -758 -84 l-61 178 q119 -17 198 -20 q19 -1 62 -1 q68 0 141 4 q302 16 529 23 q-3 274 -50 426 l213 -33 q-23 -66 -31 -132 q-8 -68 -8 -192 ZM1090 596 l0 141 q-45 62 -117 62 q-242 -14 -254 -283 q7 -232 168 -246 q198 12 203 326 Z" /><glyph glyph-name="" unicode="&#x305b;" d="M1944 956 l16 -135 q-134 8 -274 8 q-91 0 -209 -4 q-13 -274 -41 -401 q-31 -147 -203 -146 q-57 -1 -105 11 l0 106 q52 -8 101 -8 q79 -4 92 78 q29 120 39 356 q-258 -12 -641 -53 q0 -393 16 -592 q9 -178 187 -195 q91 -9 213 -9 q80 0 150 3 q205 10 376 39 l0 -143 q-258 -24 -472 -25.5 q-214 -1.5 -327 19.5 q-233 42 -248 286 q-14 222 -18 605 q-308 -35 -459 -80 l-47 159 q66 -11 140 -11 q83 0 167 14 q50 6 80 10 q20 2 60 6 q40 4 59 6 l0 92 q1 152 -7 211 q-6 64 -32 154 l199 -17 q-24 -82 -30 -128 q-7 -50 -7 -142 l0 -156 q268 29 645 54 q3 110 6 258 q4 138 -24 262 l165 -19 q-21 -107 -22 -239 q-3 -140 -6 -254 q169 10 461 20 Z" /><glyph glyph-name="" unicode="&#x305d;" d="M1825 907 l0 -133 q-186 11 -451 -139 q-376 -204 -376 -433 q0 -15 1 -26 q-12 -317 580 -342 l-43 -131 q-646 41 -659 455 q-20 346 522 618 q-701 -131 -1032 -309 q-22 -15 -37 -15 q-20 0 -29 25 q-32 62 -61 140 q-8 22 -13 34 q60 -8 101 -8 q20 0 36 2 q47 3 158 33 q256 69 467 114 q162 213 344 492 q71 109 105 215 q77 -40 147 -86 q13 -8 12.5 -15 q-0.5 -7 -14.5 -14 q-54 -16 -102 -90 q-222 -311 -346 -471 q317 62 690 84 ZM864 1050 l-108 -57 q-107 213 -219 367 l100 59 q117 -151 227 -369 Z" /><glyph glyph-name="" unicode="&#x305f;" d="M1229 1165 l0 -106 q-270 -67 -416 -82 q-167 -629 -494 -1202 l-137 43 q329 495 506 1149 q-82 -5 -176 -5 q-54 0 -211 9 l-22 108 q122 -10 233 -10 q104 0 203 6 l18 74 q31 134 42 216 q11 80 9 163 q99 -22 179 -47 q18 -7 18 -14 q2 -8 -14 -23 q-52 -43 -82 -185 l-3 -13 l0 2 q-26 -105 -40 -159 q156 21 387 76 ZM1870 -60 l-10 -108 q-183 -25 -330 -25 q-257 -2 -492 68 l-8 108 q259 -69 500 -69 q171 0 340 26 ZM1745 790 l10 -110 q-176 28 -340 28 q-127 0 -262 -18 l23 113 q113 12 239 12 q158 0 330 -25 Z" /><glyph glyph-name="" unicode="&#x3060;" d="M1151 1149 l0 -107 q-250 -63 -426 -82 q-170 -635 -492 -1198 l-137 43 q325 495 504 1145 q-76 -3 -166 -4 q-73 0 -211 8 l-22 109 q122 -10 233 -10 q99 0 195 6 q2 9 6 26 q8 33 12 52 q31 134 42 216 q11 79 9 162 q96 -20 179 -47 q18 -6 18 -13 q2 -8 -14 -24 q-52 -44 -82 -184 q-8 -31 -23 -91 q-15 -57 -22 -85 q154 18 397 78 ZM1763 -62 l-10 -108 q-172 -25 -330 -25 q-256 -2 -491 68 l-8 108 q258 -69 499 -69 q172 0 340 26 ZM1647 766 l10 -111 q-172 28 -340 29 q-131 0 -262 -19 l22 113 q114 12 240 12 q154 0 330 -24 ZM1784 1079 l-78 -72 q-118 112 -231 197 l69 66 q149 -102 240 -191 ZM1989 1290 l-74 -74 q-134 125 -232 197 l64 68 q148 -100 242 -191 Z" /><glyph glyph-name="" unicode="&#x3061;" d="M684 1536 l160 -23 q18 -3 20.5 -9 q2.5 -6 -8.5 -21 q-34 -45 -55 -177 q-24 -120 -35 -188 q235 21 594 100 l4 -110 q-342 -73 -614 -98 q-59 -367 -84 -629 q304 337 622 323 q483 -20 514 -407 q-49 -575 -856 -578 l-72 125 q754 -8 805 453 q-21 287 -383 301 q-21 2 -36 2 q-263 0 -588 -369 l-135 23 q43 413 94 747 q-34 -2 -96 -2 q-156 0 -306 21 l-12 110 q167 -24 318 -24 q71 0 114 2 q13 89 31 192 q12 72 12 123 q2 49 -8 113 Z" /><glyph glyph-name="" unicode="&#x3063;" d="M1028 -183 l-96 113 q733 114 737 541 q-17 342 -393 356 q-378 -10 -895 -320 l-125 148 q123 14 432 133 q415 157 588 145 q495 -17 516 -462 q-18 -519 -764 -654 Z" /><glyph glyph-name="" unicode="&#x3066;" d="M1841 1433 l8 -133 q-390 -31 -487 -172 q-394 -368 -383 -694 q-12 -550 670 -541 l0 -127 q-45 -2 -73 -2 q-714 0 -720 670 q-1 12 -1 37 q0 318 433 749 q-783 -169 -948 -274 q-16 -9 -28 -9 q-18 0 -25 19 q-24 39 -51 86 q-20 34 -35 60 q16 -1 39 -1 q114 0 256 38 q706 185 1345 294 Z" /><glyph glyph-name="" unicode="&#x3067;" d="M1563 1415 l26 -117 q-365 -70 -442 -180 q-310 -334 -297 -666 q-11 -548 678 -540 l0 -127 q-45 -2 -74 -2 q-719 0 -727 669 q-15 355 340 764 q-704 -165 -897 -272 q-16 -9 -28 -9 q-18 0 -25 19 q-24 39 -51 86 q-20 34 -35 60 q16 -1 39 -1 q114 0 256 38 q720 192 1237 278 ZM1798 891 l-84 -66 q-81 111 -186 217 l76 62 q101 -100 194 -213 ZM2017 1061 l-84 -66 q-87 119 -178 211 l76 62 q84 -81 186 -207 Z" /><glyph glyph-name="" unicode="&#x3068;" d="M1438 1194 l153 -168 q-207 -46 -448 -152 q-687 -294 -680 -651 q-17 -342 557 -332 q272 2 520 56 l4 -164 q-259 -18 -571 -17 q-639 -3 -633 445 q-7 352 459 635 q-113 338 -256 626 l127 31 q131 -277 245 -588 q102 55 228 113 q207 93 295 166 Z" /><glyph glyph-name="" unicode="&#x3069;" d="M1272 1186 l153 -168 q-207 -46 -448 -152 q-679 -287 -666 -641 q-17 -342 557 -332 q267 1 506 54 l19 -162 q-260 -18 -572 -17 q-639 -3 -633 445 q-11 351 451 629 q-113 341 -260 641 l127 30 q131 -275 250 -604 q111 62 221 111 q211 95 295 166 ZM1665 1149 l-92 -60 q-102 157 -193 254 l86 54 q106 -106 199 -248 ZM1864 1286 l-92 -59 q-103 157 -193 254 l86 53 q101 -101 199 -248 Z" /><glyph glyph-name="" unicode="&#x306a;" d="M1827 31 l-49 -111 q-260 153 -404 201 q-19 -417 -389 -418 q-307 13 -321 293 q21 270 421 282 q86 0 168 -12 q-7 314 -41 643 q3 0 78 -15 q64 -13 66 -13 q-6 -64 -6 -122 q0 -44 4 -102 q16 -222 20 -415 q214 -55 453 -211 ZM1200 1218 l0 -108 q-189 -51 -416 -86 q-146 -485 -487 -946 l-123 49 q319 415 479 880 q-170 -21 -331 -24 l-13 108 q167 0 379 23 q21 68 47 188 q27 117 23 258 q79 -16 151 -41 q-29 -97 -53 -219 q-9 -42 -30 -124 q-7 -29 -11 -44 q174 30 385 86 ZM979 -191 q277 -5 276 344 q-89 19 -184 19 q-268 -13 -287 -195 q9 -162 195 -168 ZM1434 1126 l71 88 q214 -141 375 -307 l-78 -106 q-182 194 -368 325 Z" /><glyph glyph-name="" unicode="&#x306b;" d="M307 1446 l191 -56 q-46 -76 -78 -167 q-97 -279 -92 -619 q-2 -400 131 -606 q60 171 116 293 l60 -15 q-59 -192 -72 -434 l-162 -33 q-197 272 -196 795 q-4 230 63 537 q23 109 32 176.5 q9 67.5 7 128.5 ZM1716 1253 l0 -121 q-162 22 -323 23 q-133 0 -252 -18 q-164 -26 -246 -29 l-10 121 q104 8 235 28 q123 20 273 19 q170 -1 323 -23 ZM743 219 l91 82 q189 -220 544 -221 q226 -1 459 63 l6 -131 q-233 -55 -463 -55 q-407 -5 -637 262 Z" /><glyph glyph-name="" unicode="&#x306c;" d="M983 1503 l168 -27 q-30 -74 -37 -231 q-1 -9 -2 -25 q-1 -18 -2 -26 q11 0 34 1 q23 1 36 1 q660 -26 688 -668 q-3 -220 -101 -413 q107 -60 205 -121 l-61 -113 q-120 78 -207 129 q-175 -244 -506 -244 q-300 6 -313 246 q34 250 375 264 q180 2 399 -106 q83 165 84 362 q-26 534 -529 564 q-62 0 -114 -7 q-52 -407 -178 -659 q-31 -58 -60 -111 q51 -42 86 -65 l-94 -92 l-61 49 q-236 -333 -494 -340 q-220 4 -223 313 q11 309 260 606 q-72 136 -141 332 l120 51 q43 -155 107 -290 q36 33 76 65 q228 187 487 232 q1 10 2 32 q1 22 2 33 q6 135 -6 258 ZM307 -19 q199 14 395 312 q-188 181 -307 389 q-190 -257 -196 -494 q0 -207 108 -207 ZM813 491 q117 244 162 580 q-195 -40 -408 -213 q-49 -38 -90 -82 q113 -201 291 -373 q24 43 45 88 ZM1202 -127 q246 -2 393 197 q-205 101 -333 100 q-235 -7 -254 -154 q0 -143 194 -143 Z" /><glyph glyph-name="" unicode="&#x306d;" d="M104 782 l-51 131 q270 35 461 115 q4 57 14 180 q1 14 2 21 q16 180 15 301 q48 -3 110 -17 q38 -8 62 -12 q-65 -145 -86 -336 q-5 -39 -8 -86 q50 29 98 74 q64 -52 106 -92 q-88 -105 -227 -367 q0 -6 -1 -17 q-1 -11 -1 -18 q189 188 350 320 q256 212 477 211 q178 13 293 -197 q83 -152 86 -371 q0 -200 -51 -364 q134 -72 244 -174 l-64 -98 q-114 98 -223 163 q-152 -311 -450 -319 q-338 5 -351 260 q25 275 410 291 q144 -1 323 -72 q39 134 39 303 q1 238 -75 348 q-83 130 -187 123 q-144 14 -424 -209 q-214 -163 -399 -383 q0 -360 45 -710 l-117 -11 q-32 282 -39 586 q-134 -174 -282 -397 l-121 82 q105 130 182 266 q38 71 107 198 q83 153 123 228 q6 82 12 176 q-158 -59 -402 -127 ZM1245 -66 q239 5 361 271 q-148 69 -281 69 q-289 -2 -293 -178 q-1 -163 213 -162 ZM614 952 l-2 0 l0 -2 q2 0 2 2 Z" /><glyph glyph-name="" unicode="&#x306e;" d="M1352 -201 l-86 80 q584 306 587 778 q-35 536 -622 633 q-132 -656 -342 -1081 q-161 -323 -381 -314 q-404 44 -432 576 q111 852 1059 932 q787 -47 837 -748 q5 -526 -620 -856 ZM778 254 q219 459 338 1042 q-820 -88 -921 -821 q23 -419 313 -465 q155 2 270 244 Z" /><glyph glyph-name="" unicode="&#x306f;" d="M1458 1159 l0 -149 q159 18 324 55 l8 -111 q-168 -35 -330 -53 q3 -175 13 -334 q2 -43 6 -124 q5 -106 6 -152 q211 -82 418 -240 l-72 -100 q-212 155 -352 217 q-41 -400 -432 -402 q-367 7 -379 291 q14 306 407 316 q129 0 287 -41 q-2 61 -8 194 q-1 23 -2 35 q-11 190 -11 330 q-94 -8 -189 -8 q-200 0 -425 34 l-8 111 q202 -37 430 -37 q100 0 190 6 l0 140 q-3 236 -28 313 q8 -1 30 -3 q115 -10 136 -14 q-18 -118 -19 -274 ZM334 1515 l188 -53 q-49 -72 -84 -168 q-162 -428 -155 -741 q-1 -372 92 -580 q46 112 125 287 l71 -31 q-98 -320 -98 -448 l-137 -21 q-183 289 -176 793 q-2 289 119 651 q53 148 55 311 ZM1047 -115 q310 -7 315 330 q-142 50 -307 49 q-263 -3 -269 -207 q2 -171 261 -172 Z" /><glyph glyph-name="" unicode="&#x3072;" d="M807 1464 l104 -86 q-120 -76 -252 -256 q-312 -407 -303 -782 q18 -437 430 -455 q585 5 588 836 q1 392 -39 633 l172 32 q21 -143 99 -272 q125 -210 299 -430 l-97 -76 q-197 254 -321 494 q5 -163 6 -434 q-18 -873 -709 -902 q-529 17 -546 564 q-3 32 -3 74 q0 395 388 851 q-136 -50 -281 -75 q-11 -2 -32 -6 q-77 -15 -120 -29 l-51 131 q167 -1 344 43 q160 38 324 145 Z" /><glyph glyph-name="" unicode="&#x3073;" d="M674 1464 l104 -86 q-120 -76 -252 -256 q-312 -407 -303 -782 q17 -438 430 -455 q585 5 588 836 q1 392 -39 633 l172 32 q21 -143 99 -272 q125 -210 299 -430 l-97 -76 q-197 254 -321 494 q5 -163 6 -434 q-18 -873 -709 -902 q-530 18 -547 564 q-3 33 -3 72 q0 395 388 853 q-135 -51 -268 -73 q-11 -2 -31 -6 q-78 -15 -120 -29 l-52 131 q163 -1 332 41 q158 37 324 145 ZM2040 1382 l-84 -71 q-119 142 -227 239 l77 66 q135 -119 234 -234 ZM1858 1194 l-91 -66 q-104 150 -213 262 l84 60 q134 -138 220 -256 Z" /><glyph glyph-name="" unicode="&#x3075;" d="M752 1364 l82 84 q212 -98 385 -248 l-89 -90 q-175 146 -378 254 ZM799 921 l121 0 q-7 -124 67 -272 q53 -112 191 -354 q54 -104 57 -219 q-2 -221 -260 -222 q-92 0 -180 23 l-21 115 q83 -25 184 -27 q164 -5 158 107 q-1 83 -51 176 q-114 216 -184 362 q-48 101 -65 165 q-17 66 -17 146 ZM18 401 l109 41 q50 -186 145 -305 q29 -36 55 -35 q25 -1 74 37 q106 80 195 180 q3 -11 11 -39 q19 -73 28 -94 q-98 -101 -184 -162 q-74 -51 -135 -51 q-62 0 -111 51 q-132 142 -187 377 ZM1513 522 l99 62 q234 -204 416 -455 l-101 -72 q-174 242 -414 465 Z" /><glyph glyph-name="" unicode="&#x3076;" d="M752 1364 l82 84 q212 -98 385 -248 l-89 -90 q-175 146 -378 254 ZM799 921 l121 0 q-7 -124 67 -272 q53 -112 191 -354 q54 -104 57 -219 q-2 -221 -260 -222 q-92 0 -180 23 l-21 115 q83 -25 184 -27 q164 -5 158 107 q-1 83 -51 176 q-114 216 -184 362 q-48 101 -65 165 q-17 66 -17 146 ZM18 401 l109 41 q50 -186 145 -305 q29 -36 55 -35 q25 -1 74 37 q106 80 195 180 q3 -11 11 -39 q19 -73 28 -94 q-98 -101 -184 -162 q-74 -51 -135 -51 q-62 0 -111 51 q-132 142 -187 377 ZM1513 522 l99 62 q234 -204 416 -455 l-101 -72 q-174 242 -414 465 ZM2034 1177 l-84 -71 q-98 128 -219 244 l77 65 q111 -100 226 -238 ZM1806 1030 l-90 -66 q-94 140 -205 256 l84 60 q121 -124 211 -250 Z" /><glyph glyph-name="" unicode="&#x3078;" d="M2013 385 l-74 -115 q-503 254 -1009 678 q-98 89 -160 82 q-65 0 -168 -102 q-69 -67 -183 -188 q-34 -35 -50 -52 q-126 -127 -156 -190 l-129 114 q85 54 211 172 q131 124 237 238 q123 130 238 127 q100 3 205 -86 q463 -389 1038 -678 Z" /><glyph glyph-name="" unicode="&#x307b;" d="M1632 1446 l17 -113 q-133 -29 -228 -41 q-10 -105 -10 -235 l0 -168 q159 14 338 53 l10 -109 q-175 -35 -344 -53 q2 -103 19 -215 q12 -112 20 -256 q240 -74 475 -254 l-71 -100 q-235 173 -400 235 q2 -428 -379 -415 q-357 2 -360 284 q12 292 407 299 q102 1 209 -20 q-5 80 -22 221 q-14 93 -19 213 q-98 -7 -192 -7 q-156 0 -344 17 l-17 107 q177 -16 355 -16 q108 0 196 5 q-1 30 0 96 q0 39 0 60 q0 131 6 248 q-112 -8 -205 -8 q-149 0 -294 18 l-17 113 q120 -16 199 -20 q79 -4 142 -4 q58 0 99 2 q206 10 410 63 ZM313 1493 l189 -53 q-52 -78 -84 -168 q-137 -364 -135 -742 q-1 -371 92 -579 q11 27 31 77 q43 106 79 189 l72 -31 q-77 -278 -84 -418 l-137 -30 q-183 289 -176 792 q-1 275 98 652 q49 180 55 311 ZM1079 -107 q147 -2 199 69 q57 71 59 265 q-104 23 -231 23 q-258 -5 -268 -191 q1 -165 241 -166 Z" /><glyph glyph-name="" unicode="&#x307e;" d="M1018 1079 l-98 0 q-229 0 -408 31 l-20 108 q225 -32 428 -32 l98 0 q-2 166 -27 346 q51 -4 130 -18 q33 -6 53 -9 q14 -2 14 -13 q0 -10 -8 -24 q-2 -4 -6 -12 q-35 -30 -33 -264 q195 9 379 41 l-9 -111 q-202 -29 -370 -37 q1 -126 10 -336 q171 16 393 56 l-12 -111 q-191 -35 -375 -51 q1 -19 3 -58 q10 -218 20 -354 q221 -64 512 -278 l-86 -103 q-252 187 -416 250 q0 -3 1 -9 q1 -6 1 -9 q2 -22 2 -51 q0 -318 -408 -312 q-398 9 -413 283 q5 272 485 274 q111 0 199 -16 q-3 55 -10 161 q-9 146 -13 214 l-59 -2 l3 0 q-15 0 -30.5 0 q-15.5 0 -40.5 0 q-217 -1 -385 28 l-20 109 q207 -32 405 -31 q45 0 70 0 q28 1 53 2 q-1 13 -2 38 q-10 213 -10 300 ZM1069 80 q-3 30 -4 59 q-100 23 -238 23 q-317 -7 -331 -160 q13 -155 290 -160 q169 -1 230 53 q55 43 55 147 q0 13 -2 38 Z" /><glyph glyph-name="" unicode="&#x307f;" d="M1962 199 l-72 -127 q-197 159 -362 272 q-140 -336 -506 -598 l-129 96 q386 224 526 572 q-319 201 -549 233 q-92 -171 -196 -371 q-185 -355 -402 -342 q-195 7 -200 250 q69 544 710 594 l27 0 q222 402 299 526 q9 16 6 23 q-3 7 -18 4 q-410 -76 -518 -137 l-93 156 q149 1 291 22 q263 40 365 94 q80 -64 157 -145 q10 -7 10 -15 q0 -14 -30 -30 q-88 -48 -191 -238 q-79 -138 -155 -276 q227 -49 532 -226 q21 59 47 170 q36 150 33 289 q76 -17 162 -47 q17 -4 17 -16 q0 -8 -9 -21 q-33 -44 -76 -231 q-27 -117 -61 -211 q182 -114 385 -270 ZM586 362 q63 120 155 293 q-488 -55 -546 -456 q1 -140 98 -142 q124 -18 293 305 Z" /><glyph glyph-name="" unicode="&#x3082;" d="M1270 1071 l-25 -98 q-232 0 -368 14 q-50 -233 -76 -438 q171 -25 432 -25 l-25 -98 q-260 0 -420 22 q-12 -122 -12 -227 q-9 -403 344 -395 q449 -18 432 348 q10 173 -190 491 l133 13 q188 -277 180 -504 q7 -476 -555 -471 q-460 6 -465 498 q0 137 17 266 q-148 31 -293 96 l10 96 q155 -61 295 -92 q26 171 78 434 q-136 22 -281 84 l11 95 q162 -61 288 -80 q3 13 9 39 q21 94 32 151 q17 82 21 128 q4 46 4 86 q0 39 -2 69 l182 -47 q16 -3 16 -13 q0 -10 -14 -28 q-46 -59 -80 -195 q-25 -91 -51 -207 q149 -12 373 -12 Z" /><glyph glyph-name="" unicode="&#x3083;" d="M426 874 l149 53 q9 3 13 3 q4 0 6.5 -2 q2.5 -2 2.5 -7 q0 -6 -1 -10 q-2 -7 -2 -17 q0 -33 31 -79 q21 -35 62 -107 q22 -39 34 -59 q507 261 735 252 q326 -14 346 -289 q25 -364 -626 -400 l-72 113 q337 22 459 84 q121 57 116 203 q-10 176 -223 182 q-235 -5 -678 -250 q160 -300 346 -755 l-120 -50 q-137 379 -332 746 q-131 -77 -281 -187 l-147 140 q125 27 368 155 q-82 146 -186 281 ZM1163 950 l-88 -88 q-121 111 -254 196 l82 86 q146 -93 260 -194 Z" /><glyph glyph-name="" unicode="&#x3084;" d="M326 1200 l155 49 q9 3 13 3 q4 0 6.5 -2 q2.5 -2 2.5 -7 q0 -6 -1 -10 q-3 -11 -3 -23 q0 -34 25 -76 q55 -91 138 -243 q591 289 907 289 q388 -20 416 -355 q-20 -418 -773 -483 l-71 113 q724 48 721 370 q-32 226 -293 248 q-299 -5 -850 -289 q242 -456 440 -936 l-121 -49 q-189 466 -426 928 q-208 -116 -399 -244 l-133 146 q133 29 397 170 q12 6 37 19 q25 13 39 20 q-5 8 -8 16 q-109 209 -219 346 ZM1206 1253 l-88 -86 q-153 138 -311 242 l82 84 q173 -117 317 -240 Z" /><glyph glyph-name="" unicode="&#x3088;" d="M1700 1120 l29 -110 q-284 -68 -603 -82 q4 -82 17 -224 q1 -12 2 -18 q18 -186 29 -385 q263 -115 595 -338 l-75 -100 q-311 207 -520 305 q-40 -430 -439 -441 q-412 14 -436 330 q29 334 442 352 q134 0 308 -59 q-5 102 -25 330 q-23 248 -23 446 q-1 264 -18 369 q24 -6 107 -20 q48 -9 59 -11 q-28 -114 -29 -315 q0 -40 0 -63 q1 -26 2 -48 q279 16 578 82 ZM735 -150 q314 1 318 371 q-173 66 -312 66 q-308 -6 -319 -230 q20 -198 313 -207 Z" /><glyph glyph-name="" unicode="&#x3089;" d="M403 1149 l148 -23 q-43 -316 -78 -725 q327 362 721 357 q505 -6 516 -441 q2 -467 -735 -602 l-72 123 q685 83 684 479 q10 329 -389 322 q-362 18 -709 -402 l-149 56 q8 85 25 249 q16 150 24 238 q15 152 15 295 q0 39 -1 74 ZM608 1487 l70 96 q249 -90 442 -217 l-78 -103 q-205 128 -434 224 Z" /><glyph glyph-name="" unicode="&#x308a;" d="M770 723 l72 -31 q-100 -291 -99 -403 l-143 -21 q-128 277 -129 610 q-1 173 43 390 q22 116 27 202 l153 -14 q-104 -318 -100 -578 q-3 -228 61 -407 q30 73 115 252 ZM1135 -309 l-117 59 q426 362 434 969 q-1 451 -119 757 l172 17 q-2 -89 29 -260 q43 -261 43 -512 q4 -615 -442 -1030 Z" /><glyph glyph-name="" unicode="&#x308b;" d="M469 1194 l-66 143 q567 0 824 113 l96 -74 q-65 -59 -168 -203 q-96 -137 -321 -417 q203 70 358 71 q475 -27 504 -489 q-40 -526 -647 -555 q-418 10 -435 301 q16 274 312 287 q263 14 463 -381 q183 133 188 344 q-19 364 -377 383 q-320 7 -541 -164 q-131 -95 -200 -193 l-119 97 q256 197 438 413 q152 175 305 414 q-148 -18 -387 -49 q-10 -1 -29 -4 q-124 -17 -198 -37 ZM926 260 q-186 -6 -193 -176 q31 -179 311 -191 q118 0 236 39 q-165 338 -354 328 Z" /><glyph glyph-name="" unicode="&#x308c;" d="M131 741 l-61 127 q247 36 483 125 q12 118 25 232 q10 106 10 199 q0 37 -2 81 q39 -3 107 -6 q53 -2 71 -4 q-49 -131 -76 -338 q-8 -52 -14 -107 q39 27 74 60 q47 -37 114 -80 q-78 -70 -219 -305 l0 -19 q134 150 244 242 q250 220 442 217 q234 -3 238 -213 q1 -106 -35 -299 q-80 -430 -76 -571 q-6 -140 92 -131 q173 0 420 270 l41 -135 q-259 -263 -475 -256 q-198 3 -201 233 q-2 208 76 594 q35 172 35 277 q2 123 -135 121 q-124 0 -346 -201 q-191 -173 -330 -340 l0 -80 q-1 -377 31 -694 l-129 0 q-25 270 -25 620 q-119 -150 -315 -432 l-123 74 q100 123 159 229 q138 251 301 529 q5 59 11 116 q-8 -3 -24 -9 q-108 -42 -212 -70 q-110 -31 -176 -56 Z" /><glyph glyph-name="" unicode="&#x308d;" d="M565 1216 l-88 123 q264 9 492 56 q197 38 305 102 l119 -88 q-72 -57 -162 -186 q-18 -26 -58 -84 q-187 -271 -313 -418 q222 112 430 106 q547 -15 565 -493 q-5 -571 -755 -631 l-53 113 q678 31 686 514 q-10 375 -443 383 q-338 -3 -692 -301 q-6 -6 -19 -17 q-211 -180 -264 -254 l-104 101 q256 207 541 532 q173 208 403 551 q-129 -30 -379 -64 q-148 -22 -211 -45 Z" /><glyph glyph-name="" unicode="&#x308f;" d="M264 866 l-51 117 q313 86 422 121 q7 98 12 162 q6 75 8 142 q2 67 2 85 q0 31 -2 63 q25 -4 90 -10 q52 -5 68 -8 q-33 -94 -55 -342 q-3 -24 -6 -51 q77 28 120 67 q74 -42 123 -82 q-95 -84 -264 -356 l0 -25 q355 272 684 277 q480 -24 508 -473 q10 -493 -684 -725 l-100 94 q656 206 661 619 q-23 352 -383 374 q-332 -11 -692 -317 l0 -103 q5 -376 37 -755 l-133 0 q-23 353 -27 702 l0 33 q-40 -43 -74 -86 q-163 -212 -258 -352 l-116 82 q113 132 227 317 q34 57 111 187 q86 144 126 212 q1 18 3 54 q5 66 6 100 q-242 -68 -363 -123 Z" /><glyph glyph-name="" unicode="&#x3092;" d="M1245 1315 l0 -113 q-193 -50 -426 -74 q-80 -185 -190 -381 q145 139 334 136 q224 -4 307 -273 q126 44 276 86 q139 38 197 82 l90 -139 q-190 -20 -479 -111 q-18 -7 -51 -17 q-6 -2 -9 -3 q15 -100 15 -199 q0 -159 -25 -274 l-119 0 q25 125 25 270 q0 67 -8 160 q-498 -197 -496 -430 q8 -208 385 -211 q270 2 447 53 l10 -145 q-135 -18 -223 -24 q-79 -5 -228 -5 q-499 6 -510 330 q-10 307 594 536 q-51 203 -198 203 q-217 4 -424 -262 q-35 -46 -100 -156 q-40 -67 -62 -102 l-144 57 q243 352 447 807 q-93 -5 -171 -5 q-55 0 -132 3 l-25 109 q77 -6 163 -6 q101 0 212 8 q9 21 26 65 q14 35 21 53 q54 146 57 234 q95 -29 162 -45 q-37 -52 -94 -209 q-5 -13 -3 -9 q-20 -50 -30 -75 q191 24 379 76 Z" /><glyph glyph-name="" unicode="&#x3093;" d="M946 1513 l176 -75 q-91 -103 -213 -312 q-110 -190 -308 -556 q-31 -57 -46 -85 q157 156 237 199 q86 50 199 49 q190 -2 209 -231 q24 -312 68 -537 q15 -103 108 -98 q9 -3 23 -3 q140 0 506 429 l55 -121 q-231 -264 -352 -348 q-116 -85 -256 -80 q-165 7 -209 211 q-41 217 -66 516 q-12 165 -121 162 q-417 -54 -712 -850 l-142 45 q87 293 729 1415 q80 143 115 270 Z" /><glyph glyph-name="" unicode="&#x30a2;" d="M385 -279 l-121 78 q515 322 596 922 q5 31 6 77 q0 41 -2 115 l178 -28 q-36 -64 -53 -166 q-94 -632 -604 -998 ZM1804 1317 l117 -78 q-56 -40 -127 -148 q-227 -333 -547 -561 l-127 86 q362 204 594 578 l-1313 0 q-105 0 -189 -3 q-49 -2 -85 -3 l0 121 q19 -1 54 -3 q129 -6 225 -6 l1232 0 q107 1 166 17 Z" /><glyph glyph-name="" unicode="&#x30a6;" d="M940 1534 l168 -17 q-39 -83 -39 -186 l0 -182 l494 0 q91 0 155 24 l137 -104 q-58 -48 -88 -150 q-203 -734 -942 -1235 l-104 93 q752 436 950 1265 l-1325 0 l0 -331 q-1 -145 10 -267 l-143 0 q9 121 10 267 l0 200 q1 125 -10 246 q66 -5 116 -6.5 q50 -1.5 130 -1.5 l491 0 l0 160 q-2 92 -10 225 Z" /><glyph glyph-name="" unicode="&#x30ab;" d="M944 1448 l191 -12 q-53 -79 -52 -220 q0 -84 -6 -163 l486 0 q171 1 266 10 q-26 -678 -64 -922 q-44 -349 -385 -334 q-99 0 -194 9 l-35 129 q137 -16 242 -17 q221 -9 249 217 q47 272 60 801 l-633 0 q-56 -685 -754 -1163 l-96 82 q682 466 727 1081 l-420 0 q-147 -1 -266 -10 l0 127 q117 -9 266 -10 l430 0 q0 11 2 34 q3 71 3 111 q1 118 -17 250 Z" /><glyph glyph-name="" unicode="&#x30b5;" d="M612 1470 l168 -16 q-39 -86 -39 -186 l0 -304 l605 0 l0 23 l0 193 q0 175 -25 307 l178 -17 q-35 -75 -35 -241 l0 -242 l0 -23 l232 0 q76 0 190 5 q55 3 88 4 l0 -121 q-36 1 -85 3 q-84 3 -189 3 l-238 0 q13 -757 -606 -1169 l-90 75 q580 395 577 1094 l-602 0 l0 -299 q1 -172 9 -287 l-140 0 q11 184 13 287 l0 299 l-265 0 q-105 0 -189 -3 q-49 -2 -85 -3 l0 121 q34 -1 90 -4 q108 -5 188 -5 l261 0 l0 281 q-1 75 -11 225 Z" /><glyph glyph-name="" unicode="&#x30ca;" d="M1921 934 l0 -121 q-36 1 -85 3 q-84 3 -189 3 l-519 0 q-14 -665 -598 -1104 l-106 66 q575 426 586 1038 l-607 0 q-105 0 -189 -3 q-49 -2 -85 -3 l0 121 q27 -1 75 -3 q117 -5 204 -5 l606 0 l0 38 l0 193 q0 175 -25 307 l178 -16 q-34 -72 -34 -242 l0 -242 l0 -38 l509 0 q83 0 204 5 q48 2 75 3 Z" /><glyph glyph-name="" unicode="&#x30d0;" d="M659 1079 l148 -80 q-62 -40 -119 -135 q-209 -347 -563 -645 l-86 84 q283 215 500 543 q77 117 120 233 ZM1946 280 l-103 -69 q-293 448 -586 811 l99 59 q289 -367 590 -801 ZM1985 1350 l-76 -74 q-115 124 -221 205 l73 71 q131 -104 224 -202 ZM1806 1141 l-75 -74 q-119 124 -236 215 l74 72 q153 -120 237 -213 Z" /><glyph glyph-name="" unicode="&#x30f3;" d="M743 950 l-84 -88 q-201 213 -383 354 l82 80 q207 -165 385 -346 ZM1780 964 l51 -116 q-467 -481 -1231 -854 q-173 -84 -229 -140 l-101 168 q223 36 516 201 q548 293 994 741 Z" /><glyph glyph-name="" unicode="&#x30fc;" d="M592 678 l479 0 q191 0 481 22 q31 2 93 13 q79 14 140 14 q68 0 111 -18 q66 -25 64 -64 q0 -24 -33 -41 q-72 -31 -143 -31 l-64 0 q-71 0 -215 13 q-145 10 -217 10 l-608 0 q-209 0 -344 -64 q-25 0 -39 17 q-31 39 -82 135 q-14 29 -22 41 q-5 6 -11 16 q-14 27 -14 47 q12 9 25 9 q14 -6 40 -29 q15 -12 23 -18 q55 -41 135 -58 q70 -16 201 -14 Z" /><glyph glyph-name="" unicode="&#x4e00;" d="M121 596 l0 143 q115 -12 205 -12 l1390 0 q94 0 195 12 l0 -143 q-99 12 -199 12 l-1384 0 q-133 2 -207 -12 Z" /><glyph glyph-name="" unicode="&#x4e07;" d="M123 1280 l0 143 q92 -14 178 -16 l1446 0 q82 2 174 16 l0 -143 q-92 12 -174 16 l-829 0 q-13 -217 -27 -401 l577 0 q97 4 189 16 q-15 -98 -23 -186 l-35 -516 q-14 -281 -102 -340 q-76 -76 -389 -72 q-8 80 -64 178 q168 -35 257 -35 q62 0 88 17 q75 27 84 236 l43 591 l-635 0 q-76 -673 -564 -1028 q-67 62 -159 105 q651 284 626 1435 l-483 0 q-82 -2 -178 -16 Z" /><glyph glyph-name="" unicode="&#x4e09;" d="M1921 41 l0 -135 q-90 12 -190 12 l-1424 0 q-104 0 -194 -12 l0 135 q92 -12 186 -12 l1432 0 q81 0 190 12 ZM254 1233 l0 139 q70 -12 182 -12 l1159 0 q86 0 172 12 l0 -139 q-88 12 -170 12 l-1159 0 q-102 0 -184 -12 ZM403 600 l0 139 q84 -12 164 -12 l856 0 q109 0 199 12 l0 -139 q-111 12 -201 12 l-848 0 q-86 0 -170 -12 Z" /><glyph glyph-name="" unicode="&#x4e0a;" d="M133 -195 l0 127 q117 -12 207 -12 l541 0 l0 1399 q0 94 -13 207 l158 -21 q23 -2 25 -10 q2 -6 -19 -25 q-37 -22 -33 -151 l0 -414 l541 0 q98 0 193 13 l0 -132 q-95 13 -193 13 l-541 0 l0 -879 l697 0 q110 0 211 12 l0 -127 q-109 13 -211 13 l-1356 0 q-92 0 -207 -13 Z" /><glyph glyph-name="" unicode="&#x4e0b;" d="M1700 1321 l-658 0 l0 -1387 q0 -100 13 -196 l-148 0 q13 92 13 196 l0 1387 l-578 0 q-82 0 -195 -12 l0 135 q115 -12 195 -12 l1358 0 q100 0 198 12 l0 -135 q-100 12 -198 12 ZM1171 879 l93 88 q239 -219 524 -504 l-107 -100 q-225 280 -510 516 Z" /><glyph glyph-name="" unicode="&#x4e0d;" d="M1104 1339 l-770 0 q-80 -2 -184 -16 l0 135 q90 -14 184 -16 l1417 0 q96 2 188 16 l0 -135 q-92 14 -188 16 l-477 0 q-80 -151 -176 -301 l0 -1124 q0 -72 16 -197 l-147 0 q14 113 16 195 l0 963 q-278 -390 -750 -648 q-67 78 -147 127 q619 189 1018 985 ZM1839 252 q-287 311 -602 569 l102 109 q318 -283 605 -567 l-105 -111 Z" /><glyph glyph-name="" unicode="&#x4e0e;" d="M1438 365 l0 -127 q-97 12 -185 12 l-913 0 q-74 0 -172 -12 l0 127 q98 -13 172 -13 l913 0 q86 0 185 13 ZM561 1581 l160 -25 q20 -2 20 -10 q2 -8 -16 -28 q-29 -23 -31 -111 l-8 -137 l1014 0 q74 0 172 12 l0 -127 q-98 14 -172 12 l-1026 0 l-29 -381 l938 0 q80 -2 180 13 q-10 -82 -18 -205 q-2 -16 -2 -25 q-23 -301 -43 -460 q-23 -209 -146 -283 q-116 -82 -462 -117 q-11 82 -70 178 q98 -9 168 -9 q152 0 231 36 q121 47 148 209 q30 194 43 561 l-918 0 q-82 0 -209 -12 q31 123 39 223 l37 475 q4 48 4 101 q0 53 -4 110 Z" /><glyph glyph-name="" unicode="&#x4e13;" d="M139 797 l0 131 q109 -13 180 -13 l459 0 q2 9 8 25 q56 172 78 262 l-352 0 q-106 0 -184 -12 l0 131 q94 -12 184 -12 l375 0 q49 200 49 315 l164 -43 q30 -8 32.5 -18.5 q2.5 -10.5 -24.5 -26.5 q-39 -23 -51 -88 q-8 -37 -37 -139 l563 0 q82 0 174 12 l0 -131 q-88 12 -176 12 l-592 0 q-41 -145 -82 -287 l830 0 q82 0 202 13 l0 -131 q-79 12 -202 12 l-863 0 q-14 -39 -49 -133 q-39 -107 -57 -158 l651 0 q72 0 180 12 q-98 -172 -352 -499 q-37 -47 -55 -72 q184 -70 360 -154 l-65 -135 q-320 191 -983 430 l53 119 q207 -76 528 -209 q205 258 281 402 l-539 0 q-102 2 -192 -23 q-17 62 -55 103 q53 34 73 79 q39 91 92 238 l-426 0 q-83 0 -180 -12 Z" /><glyph glyph-name="" unicode="&#x4e14;" d="M291 -61 l223 0 l0 1316 q0 84 -12 197 q108 -12 184 -12 l717 0 q74 0 172 12 q-12 -115 -12 -190 l0 -1323 l196 0 q82 0 189 12 l0 -123 q-107 12 -191 12 l-1466 0 q-72 0 -187 -12 l0 123 q107 -12 187 -12 ZM629 -61 l819 0 l0 389 l-819 0 l0 -389 ZM629 430 l819 0 l0 387 l-819 0 l0 -387 ZM629 1337 l0 -417 l819 0 l0 417 l-819 0 Z" /><glyph glyph-name="" unicode="&#x4e16;" d="M102 805 l0 131 q111 -10 177 -12 l124 0 l0 323 q-2 66 -12 197 l156 -19 q24 -2 24 -8 q2 -6 -18 -24 q-35 -17 -31 -154 l0 -315 l357 0 l0 407 q-2 78 -13 205 l158 -20 q20 -3 23 -11 q0 -6 -17 -22 q-37 -23 -33 -152 l0 -407 l426 0 l0 411 q-2 84 -12 205 l156 -20 q22 -2 24 -11 q2 -4 -18 -22 q-21 -19 -25 -45 q-6 -23 -6 -109 l0 -409 l240 0 q69 0 178 12 l0 -131 q-115 12 -178 12 l-240 0 l0 -461 q0 -49 12 -176 q-127 13 -200 13 l-291 0 q-88 0 -197 -13 q11 109 13 176 l0 461 l-357 0 l0 -928 l1184 0 q51 0 168 13 l0 -127 q-105 10 -168 12 l-1116 0 q-68 0 -199 -12 q10 104 12 172 l0 870 l-124 0 q-43 0 -177 -12 ZM997 817 l0 -522 l426 0 l0 522 l-426 0 Z" /><glyph glyph-name="" unicode="&#x4e1a;" d="M915 1317 l0 -1397 l244 0 l0 1419 q0 76 -12 172 l164 -20 q22 -2 22 -8 q2 -4 -14 -21 q-37 -39 -37 -155 l0 -1387 l481 0 q70 0 160 12 l0 -127 q-86 13 -160 13 l-1476 0 q-70 0 -164 -13 l0 127 q82 -12 164 -12 l506 0 l0 1430 q0 82 -13 174 l160 -21 q25 -2 25 -8 q2 -6 -19 -25 q-33 -20 -31 -153 ZM399 1135 q146 -295 314 -797 l-140 -62 q-116 451 -301 797 l127 62 ZM1657 1122 l155 -92 q23 -12 21 -24.5 q-2 -12.5 -27 -16.5 q-39 -8 -67 -78 q-121 -311 -305 -641 q-68 31 -140 45 q250 373 363 807 Z" /><glyph glyph-name="" unicode="&#x4e1b;" d="M102 154 q340 264 433 778 q16 182 16 333 q0 150 -16 269 l184 -25 q26 -2 29 -14 q0 -8 -23 -31 q-33 -22 -39 -159 q-12 -236 -35 -465 q195 -219 328 -398 q-45 -34 -107 -96 q-176 252 -266 338 q-104 -317 -336 -610 q-80 49 -168 80 ZM1905 -68 l0 -122 q-111 12 -193 12 l-1417 0 q-72 -2 -184 -12 l0 122 q122 -12 184 -12 l1417 0 q68 0 193 12 ZM717 127 q502 172 551 803 q13 158 13 314 q0 156 -13 310 l192 -28 q29 -4 29 -15 q0 -8 -27 -30 q-32 -13 -41 -168 q-5 -71 -5 -152 q0 -47 1 -76 q4 -108 17 -167 q127 -467 495 -779 q-69 -14 -164 -82 q-309 342 -407 703 q-84 -481 -494 -756 q-67 68 -147 123 Z" /><glyph glyph-name="" unicode="&#x4e1c;" d="M815 1612 l148 -47 q30 -11 28 -19 q-2 -8 -37 -26 q-43 -21 -57 -70 q-29 -86 -59 -166 l911 0 q68 0 180 12 l0 -127 q-110 13 -178 13 l-958 0 q-88 -197 -242 -502 l461 0 l0 135 q0 100 -13 213 l154 -20 q27 -4 25 -13 q0 -10 -31 -28 q-23 -2 -21 -152 l0 -135 l437 0 q63 0 182 12 l0 -127 q-111 15 -174 13 l-445 0 l0 -697 q4 -92 -59 -125 q-59 -39 -252 -59 q-2 82 -51 162 q104 -16 159 -16 q31 0 46 5 q47 11 43 82 l0 648 l-449 0 q-67 2 -143 -46 l-72 142 q68 22 121 112 q86 144 190 396 l-356 0 q-72 2 -178 -13 l0 127 q111 -12 180 -12 l402 0 q79 182 108 328 ZM133 -88 q361 152 533 463 l131 -76 q28 -16 24 -23.5 q-4 -7.5 -41 -13.5 q-30 -8 -86 -72 q-190 -210 -424 -393 q-47 86 -137 115 ZM1300 260 l89 105 q241 -164 516 -422 l-103 -101 q-233 242 -502 418 Z" /><glyph glyph-name="" unicode="&#x4e24;" d="M1335 1040 l269 0 q77 -2 168 13 q-15 -80 -13 -174 l0 -947 q2 -12 2 -20 q0 -150 -397 -184 q-27 102 -78 172 q122 -13 197 -13 q69 0 98 11 q68 16 64 114 l0 922 l-316 0 q-10 -109 -35 -260 q148 -162 308 -357 l-111 -96 q-76 133 -229 314 q-64 -222 -199 -441 q-59 39 -139 70 q243 239 290 770 l-344 0 q-12 -102 -20 -170 q121 -123 231 -256 l-112 -92 q-54 90 -154 207 q-76 -238 -235 -441 q-62 49 -127 86 q264 230 295 666 l-310 0 l0 -1028 q-2 -74 13 -160 l-140 0 q15 70 13 160 l0 977 q0 80 -13 170 q84 -15 172 -13 l275 0 q5 101 5 205 q0 60 -1 94 l-455 0 q-59 2 -153 -12 l0 131 q79 -14 147 -12 l1487 0 q49 -2 137 12 l0 -131 q-90 12 -143 12 l-443 0 q0 -110 0 -163 q-2 -64 -4 -136 ZM872 1040 l345 0 q6 80 6 144 q1 30 1 68 q0 39 -1 87 l-334 0 q-6 -141 -17 -299 Z" /><glyph glyph-name="" unicode="&#x4e25;" d="M78 -211 q301 204 301 731 q0 71 -4 133 q-6 117 -15 199 q58 -12 172 -12 l332 0 l0 508 l-401 0 q-105 0 -158 -13 l0 127 q47 -12 158 -12 l1229 0 q110 0 161 12 l0 -127 q-63 13 -161 13 l-349 0 l0 -508 l435 0 q102 0 147 12 l0 -127 q-53 12 -143 12 l-1278 0 q-8 -452 -58 -635 q-49 -202 -204 -395 q-60 39 -164 82 ZM983 1348 l0 -508 l242 0 l0 508 l-242 0 ZM483 1243 q183 -168 258 -256 l-98 -92 q-100 139 -258 258 l98 90 ZM1688 1262 l120 -95 q25 -18 23 -24 q0 -6 -33 -8 q-39 -7 -76 -39 q-73 -80 -194 -193 q-51 47 -101 86 q162 135 261 273 Z" /><glyph glyph-name="" unicode="&#x4e2a;" d="M59 686 q672 229 908 905 l149 -69 q19 -11 19 -17 q0 -6 -23 -20 q-18 -12 -37 -45 q398 -522 912 -695 q-80 -55 -144 -124 q-534 303 -831 708 q-256 -448 -799 -766 q-55 60 -154 123 ZM1104 723 l0 -872 q0 -72 12 -183 l-147 0 q12 111 12 183 l0 909 q0 67 -12 172 l164 -21 q24 -2 26 -12 q2 -10 -18 -27 q-37 -34 -37 -149 Z" /><glyph glyph-name="" unicode="&#x4e2d;" d="M1085 1415 l0 -227 l545 0 q66 -2 146 12 q-15 -72 -13 -139 l0 -615 q-2 -65 13 -126 l-140 0 q15 61 13 108 l-564 0 l0 -561 q-2 -86 13 -164 l-144 0 q15 74 13 160 l0 565 l-557 0 q-2 -70 12 -141 l-139 0 q14 73 12 149 l0 629 q2 59 -12 135 q86 -14 147 -12 l537 0 l0 233 q2 82 -13 172 l156 -20 q23 -2 25 -10 q2 -4 -19 -23 q-35 -20 -31 -125 ZM967 1081 l-557 0 l0 -546 l557 0 l0 546 ZM1085 1081 l0 -546 l564 0 l0 546 l-564 0 Z" /><glyph glyph-name="" unicode="&#x4e34;" d="M338 8 l-139 0 q14 68 12 152 l0 997 q2 103 -12 203 l155 -21 q23 -2 23 -12 q0 -10 -23 -27 q-28 -20 -28 -145 l0 -995 q-2 -74 12 -152 ZM537 -104 l0 1452 q0 112 -13 217 l158 -21 q18 -2 18 -10 q0 -8 -18 -25 q-33 -18 -31 -149 l0 -1464 q-2 -97 13 -189 l-140 0 q15 84 13 189 ZM672 799 q303 383 383 829 l153 -57 q27 -10 27 -19 q-2 -10 -29 -22 q-24 -8 -47 -70 q-10 -26 -39 -100 q-14 -41 -22 -62 l643 0 q69 0 162 13 l0 -131 q-107 12 -162 12 l-688 0 q-88 -209 -226 -455 q-63 37 -155 62 ZM1802 696 q-14 -108 -12 -168 l0 -608 q-2 -92 12 -184 l-139 0 q12 90 12 184 l-667 0 q-2 -110 12 -201 l-139 0 q14 74 12 160 l0 649 q0 78 -12 168 q88 -14 166 -12 l610 0 q67 -2 145 12 ZM1286 20 l0 562 l-278 0 l0 -562 l278 0 ZM1401 582 l0 -562 l274 0 l0 562 l-274 0 ZM1339 1133 q93 -119 209 -297 l-118 -84 q-91 168 -211 301 l120 80 Z" /><glyph glyph-name="" unicode="&#x4e3a;" d="M190 -172 q652 301 820 1047 l-432 -13 q-146 -4 -265 -22 l0 147 q76 -14 148 -12 l567 10 q23 192 23 347 q0 108 -11 196 l160 -21 q25 -2 27 -12 q4 -8 -15 -31 q-26 -30 -28 -96 q-6 -172 -35 -387 l489 14 q74 0 179 15 q-27 -119 -37 -254 q-33 -426 -68 -752 q-16 -176 -104 -231 q-76 -58 -344 -70 q2 86 -50 182 q123 -21 197 -21 q59 0 92 13 q76 23 86 139 q47 422 76 873 l-535 -14 q-139 -717 -811 -1180 q-43 78 -129 133 ZM633 1475 q102 -146 215 -328 l-113 -84 q-80 182 -209 342 l107 70 ZM1298 158 q-94 125 -249 291 l94 90 q149 -150 260 -287 l-105 -94 Z" /><glyph glyph-name="" unicode="&#x4e3b;" d="M279 -80 l708 0 l0 557 l-448 0 q-62 2 -138 -12 l0 127 q76 -14 131 -12 l455 0 l0 464 l-616 0 q-60 3 -129 -12 l0 127 q73 -14 127 -12 l1343 0 q45 -2 123 12 l0 -127 q-76 15 -125 12 l-604 0 l0 -464 l440 0 q58 -2 140 12 l0 -127 q-84 14 -142 12 l-438 0 l0 -557 l698 0 q49 -2 129 8 l0 -123 q-75 15 -129 13 l-1521 0 q-58 2 -131 -13 l0 123 q75 -10 127 -8 ZM823 1473 l99 96 q161 -144 307 -303 l-99 -99 q-157 181 -307 306 Z" /><glyph glyph-name="" unicode="&#x4e3c;" d="M94 377 l0 127 q96 -12 168 -12 l352 0 l0 581 l-227 0 q-72 0 -158 -12 l0 127 q90 -12 156 -12 l229 0 l0 213 q0 63 -12 176 l156 -21 q22 -2 22 -10 q2 -8 -16 -25 q-37 -24 -35 -151 l0 -182 l598 0 l0 225 q0 72 -12 172 l155 -21 q21 -4 23 -12 q2 -8 -16 -22 q-35 -31 -35 -123 l0 -219 l160 0 q73 -2 176 12 l0 -127 q-99 12 -174 12 l-162 0 l0 -581 l295 0 q63 0 174 12 l0 -127 q-96 12 -174 12 l-295 0 l0 -481 q0 -72 12 -189 l-139 0 q12 115 12 189 l0 481 l-600 0 q6 -399 -321 -661 q-54 61 -156 90 q362 188 358 571 l-348 0 q-67 0 -166 -12 ZM1327 1073 l-598 0 l0 -581 l598 0 l0 581 ZM834 885 l92 80 q133 -131 272 -293 l-96 -82 q-139 168 -268 295 Z" /><glyph glyph-name="" unicode="&#x4e3e;" d="M741 938 l-350 0 q-74 0 -184 -12 l0 127 q119 -13 184 -13 l848 0 q186 267 311 525 l136 -105 q24 -18 22 -26 q-2 -11 -31 -15 q-45 -8 -86 -69 q-90 -142 -215 -310 l287 0 q74 -2 190 13 l0 -127 q-110 12 -190 12 l-330 0 q252 -303 656 -362 q-72 -66 -105 -150 q-463 184 -696 512 l-287 0 q-158 -203 -323 -338 q98 -12 167 -12 l222 0 l0 45 q0 57 -13 158 l156 -21 q25 -2 27 -10 q2 -8 -19 -27 q-31 -24 -28 -112 l0 -33 l256 0 q79 0 184 12 l0 -127 q-109 12 -182 12 l-258 0 l0 -258 l567 0 q82 0 190 13 l0 -127 q-102 12 -190 12 l-567 0 l0 -244 q-3 -53 12 -178 l-148 0 q15 115 13 178 l0 244 l-582 0 q-80 0 -186 -12 l0 127 q104 -13 186 -13 l582 0 l0 258 l-219 0 q-76 0 -183 -12 l0 117 q-133 -109 -362 -232 q-43 76 -125 142 q387 86 663 438 ZM322 1399 l104 80 q158 -148 281 -316 l-113 -86 q-100 166 -272 322 ZM1147 1243 l-121 -74 q-80 177 -225 334 l114 70 q127 -158 232 -330 Z" /><glyph glyph-name="" unicode="&#x4e45;" d="M66 -203 q436 164 729 500 q274 334 393 772 l-467 0 q-139 -278 -328 -530 q-71 45 -164 75 q396 349 527 990 l147 -45 q25 -9 23 -19 q0 -12 -25 -33 q-33 -28 -51 -90 q-41 -131 -88 -246 l432 0 q82 -2 190 13 q-90 -273 -213 -545 q322 -590 791 -776 q-107 -41 -160 -123 q-430 280 -696 764 q-303 -506 -864 -817 q-74 67 -176 110 Z" /><glyph glyph-name="" unicode="&#x4e48;" d="M973 1550 l160 -88 q16 -8 12 -18 q-4 -10 -27 -17 q-43 -14 -76 -61 q-317 -543 -739 -946 q-61 45 -141 100 q432 260 811 1030 ZM670 4 q571 21 913 45 q-106 189 -244 338 l119 82 q350 -506 426 -621 l-121 -86 q-47 101 -112 191 q-258 -25 -736 -53 q-141 -11 -206 -15 q-111 -6 -260 -34 q-21 69 -78 145 q125 18 186 76 q539 538 842 1114 l143 -84 q27 -17 25 -27 q-2 -10 -35 -18 q-35 -8 -70 -62 q-243 -391 -792 -991 Z" /><glyph glyph-name="" unicode="&#x4e49;" d="M918 365 q-400 407 -560 921 q15 2 88 17 q35 8 48 10 q127 -461 512 -858 q350 409 518 936 l157 -70 q29 -12 29 -21 q2 -8 -27 -22 q-47 -23 -79 -94 q-240 -516 -506 -821 q303 -314 866 -478 q-76 -61 -143 -149 q-551 293 -815 545 q-191 -224 -777 -582 q-49 100 -139 147 q469 164 828 519 ZM885 1518 q174 -170 336 -367 l-115 -90 q-139 186 -332 371 l111 86 Z" /><glyph glyph-name="" unicode="&#x4e4b;" d="M1432 920 l-1041 0 q-53 2 -133 -13 l2 127 q70 -14 131 -12 l1149 0 q76 -2 189 12 q-656 -669 -1078 -907 q271 -178 531 -174 q97 -3 178 -3 q384 0 588 60 q-45 -92 -58 -186 q-119 -1 -250 -1 q-288 0 -436 7 q-209 10 -295 43 q-133 47 -243 113 q-113 69 -162 65 q-49 2 -135 -74 q-68 -53 -129 -176 l-129 119 q231 211 385 248 q567 342 936 752 ZM891 1538 q153 -143 307 -336 l-121 -92 q-143 213 -305 340 l119 88 Z" /><glyph glyph-name="" unicode="&#x4e4e;" d="M283 645 l737 0 l0 686 q-342 -31 -664 -37 q-12 60 -69 158 q127 -25 309 -27 q186 -2 391 21 q447 47 641 141 l96 -123 q15 -20 11 -28.5 q-4 -8.5 -29 -8.5 q-94 0 -236 -28 q-157 -31 -327 -51 l0 -703 l629 0 q94 2 186 17 l0 -144 q-88 12 -186 17 l-629 0 l0 -529 q6 -207 -56 -242 q-40 -49 -333 -69 q-29 117 -66 184 q151 -26 226 -26 q41 0 57 8 q55 10 49 133 l0 541 l-737 0 q-80 -3 -187 -17 l0 144 q99 -15 187 -17 ZM391 1055 l101 96 q192 -190 321 -344 l-106 -102 q-142 198 -316 350 ZM1370 694 q-45 47 -104 82 q202 225 303 457 l149 -98 q21 -15 19 -23 q-2 -10 -27 -18 q-57 -23 -104 -84 q-113 -160 -236 -316 Z" /><glyph glyph-name="" unicode="&#x4e50;" d="M154 -92 q278 213 450 590 l133 -92 q19 -13 17 -23 q-2 -10 -27 -14 q-45 -9 -86 -76 q-164 -254 -346 -469 q-72 65 -141 84 ZM420 1430 q102 -15 266 -13 q168 2 358 23 q416 47 560 114 l96 -135 q9 -14 9 -22 q0 -4 -1 -6 q-3 -5 -12 -5 q-7 0 -17 3 q-18 6 -48 6 q-40 0 -103 -11 q-457 -73 -996 -81 l-81 -568 l538 0 l0 277 q-2 67 -12 184 l156 -20 q11 -5 11 -14 q0 -10 -14 -25 q-28 -19 -26 -136 l0 -266 l573 0 q76 2 168 13 l0 -127 q-92 10 -168 12 l-573 0 l0 -731 q4 -109 -66 -144 q-63 -41 -276 -53 q-6 109 -51 170 q117 -18 180 -18 q37 0 53 6 q49 10 45 92 l0 678 l-481 0 q-102 2 -189 -29 l-45 131 q68 21 78 121 l58 399 q10 82 10 175 ZM1860 -72 l-111 -82 q-197 291 -459 566 l99 86 q247 -277 471 -570 Z" /><glyph glyph-name="" unicode="&#x4e56;" d="M123 967 l0 127 q61 -13 178 -13 l672 0 l0 273 q-240 -37 -608 -41 q-29 78 -72 131 q106 -10 231 -8 q789 22 1082 141 l75 -129 q11 -20 11 -27 q0 -3 -2 -4 q-2 -4 -8 -4 q-8 0 -25 6 q-29 7 -56 7 q-27 0 -61 -7 q-192 -35 -453 -55 l0 -283 l664 0 q107 0 176 13 l0 -127 q-67 12 -178 12 l-662 0 l0 -1075 q0 -125 13 -189 l-139 0 q12 60 12 189 l0 1075 l-672 0 q-125 0 -178 -12 ZM784 137 l-139 0 q12 35 12 119 q-168 -43 -405 -131 q-41 88 -90 141 q119 -4 448 86 q33 8 47 13 l0 192 l-247 0 q-91 0 -131 -12 l0 127 q36 -13 135 -13 l243 0 l0 23 q0 100 -12 172 l158 -18 q22 -2 24 -11 q0 -6 -20 -24 q-35 -27 -35 -123 l0 -418 q0 -90 12 -123 ZM1415 694 l0 -61 q232 84 365 178 l71 -113 q25 -36 22 -44.5 q-3 -8.5 -11 -8.5 q-10 0 -25 6 q-17 6 -32 6 q-14 0 -33 -6 q-203 -82 -357 -123 l0 -211 q4 -63 80 -67 q41 -1 93 -1 q81 0 100 5 q104 31 120 190 q52 -69 121 -75 q-71 -226 -235 -226 q-41 -5 -95 -5 q-34 0 -96 3 q-143 6 -172 37 q-35 23 -31 142 l0 376 q0 105 -12 172 l158 -18 q24 -4 24 -10 q3 -8 -18 -25 q-39 -24 -37 -121 Z" /><glyph glyph-name="" unicode="&#x4e58;" d="M86 -90 q414 121 850 620 q35 43 41 70 q8 23 8 84 l0 356 l-629 0 q-84 0 -198 -12 l0 127 q108 -12 198 -12 l629 0 l0 213 q-309 -17 -555 -25 q-22 68 -76 150 q117 -17 293 -19 q178 -2 377 13 q412 30 602 96 l92 -131 q15 -21 13 -27 q-3 -2 -7 -2 q-5 0 -20 4 q-9 3 -27 3 q-22 0 -73 -5 q-316 -33 -504 -47 l0 -223 l639 0 q96 0 188 12 l0 -127 q-102 12 -188 12 l-639 0 l0 -356 q-6 -94 43 -145 q393 -465 846 -557 q-84 -68 -138 -138 q-360 138 -751 566 l0 -504 q0 -92 12 -203 l-139 0 q12 111 12 203 l0 493 q-352 -379 -768 -616 q-55 72 -131 127 ZM272 707 l0 127 q88 -13 170 -13 l222 0 q0 80 -13 178 l158 -20 q25 -2 25 -8 q2 -6 -19 -25 q-37 -33 -37 -125 l0 -293 q0 -79 13 -147 l-140 0 q13 49 13 106 q-211 -49 -381 -108 l-68 139 q72 -6 449 66 l0 135 l-222 0 q-80 0 -170 -12 ZM1708 915 l78 -120 q4 -7 4 -11 q0 -3 -2 -6 q-4 -4 -16 -2 q-8 3 -18 3 q-18 0 -46 -9 q-129 -41 -297 -88 l0 -94 q-1 -8 -1 -19 q0 -61 60 -59 q28 -2 69 -2 q79 0 149 12 q55 -4 81 162 q48 -55 111 -86 q-61 -193 -174 -193 q-20 -4 -117 -6 q-67 -1 -110 -1 q-44 0 -64 1 q-80 9 -98 33 q-23 23 -21 102 l0 248 q0 86 -12 199 l158 -21 q22 -2 22 -10 q2 -8 -20 -24 q-35 -21 -33 -144 l0 -10 q162 64 297 145 Z" /><glyph glyph-name="" unicode="&#x4e5f;" d="M63 752 q125 10 388 65 l0 266 q0 99 -13 172 l160 -20 q25 -4 27 -14.5 q2 -10.5 -21 -20.5 q-35 -12 -35 -151 l0 -199 q250 49 418 90 l0 447 q0 96 -12 172 l158 -21 q18 -2 20 -12 q2 -8 -14 -21 q-37 -6 -33 -151 l0 -385 q356 75 616 159 l-41 -702 q-6 -156 -63 -203 q-47 -51 -252 -90 q-23 82 -80 154 q178 -2 223 30 q52 29 54 148 l20 498 q-76 -17 -237 -56 q-158 -37 -240 -55 l0 -612 q0 -66 12 -156 l-143 0 q12 96 12 160 l0 585 q-14 -4 -43 -10 q-235 -55 -375 -84 l0 -694 q-8 -117 109 -137 q96 -31 553 -29 l69 0 q349 -4 422 51 q97 47 109 271 q65 -62 141 -95 q-61 -221 -147 -276 q-86 -68 -326 -64 l-536 5 q-314 2 -412 51 q-105 43 -100 182 l0 707 q-193 -39 -342 -101 q-11 56 -46 146 Z" /><glyph glyph-name="" unicode="&#x4e60;" d="M356 131 l-98 158 q662 137 1184 401 q-7 -56 -7 -113 q0 -26 1 -45 q-785 -274 -1080 -401 ZM1214 -209 q-24 84 -81 174 q152 -21 234 -21 q27 0 52 3 q86 8 131 63 q5 -17 10 -17 q41 0 78 1307 l-1146 0 q-80 0 -177 -12 l0 131 q99 -12 177 -12 l1087 0 q90 0 197 12 q-13 -112 -17 -200 q-40 -1289 -76 -1289 q-3 0 -6 9 q-47 -142 -463 -148 ZM637 1104 q231 -141 450 -295 l-75 -123 q-170 148 -441 303 l66 115 Z" /><glyph glyph-name="" unicode="&#x4e66;" d="M365 598 l548 0 l0 467 l-436 0 q-76 -2 -186 -12 l0 127 q123 -13 186 -13 l436 0 l0 236 q-2 74 -12 188 l158 -20 q20 -4 22 -10 q0 -9 -18 -23 q-31 -25 -31 -151 l0 -220 l477 0 q105 0 201 15 l-41 -160 l-90 -424 l137 0 q56 0 129 14 q-2 -34 -4 -96 q-10 -219 -18 -297 q-15 -155 -97 -203 q-71 -53 -335 -77 q-37 104 -80 170 q142 -26 220 -26 q61 0 89 15 q74 29 88 189 q4 33 4 80 q2 36 2 129 l-682 0 l0 -588 q2 -76 12 -191 l-143 0 q10 113 12 191 l0 588 l-548 0 q-66 -2 -181 -13 l0 127 q117 -12 181 -12 ZM1032 1065 l0 -467 l426 0 l94 467 l-520 0 ZM1391 1415 l75 103 q156 -91 396 -256 l-76 -117 q-178 151 -395 270 Z" /><glyph glyph-name="" unicode="&#x4e70;" d="M174 348 l0 127 q100 -10 172 -12 l705 0 q28 168 36 409 q2 67 2 119 q0 151 -14 248 l168 -20 q31 -2 31 -9 q4 -4 -17 -28 q-43 -51 -43 -105 q-6 -327 -38 -614 l563 0 q69 2 180 12 l0 -127 q-113 12 -180 12 l-590 0 q-137 -405 -866 -616 q-47 90 -99 135 q615 78 838 481 l-676 0 q-76 -2 -172 -12 ZM1481 1026 q88 80 207 311 l-1237 0 q-68 0 -172 -12 l0 127 q98 -10 170 -12 l1220 0 q125 0 223 12 q-131 -240 -258 -457 q-18 4 -125 25 q-24 6 -28 6 ZM395 803 l82 92 q148 -94 373 -256 l-82 -107 q-172 136 -373 271 ZM561 1085 l78 101 q190 -117 340 -219 l-80 -109 q-172 129 -338 227 ZM1888 -154 l-84 -116 q-262 221 -624 442 l82 98 q335 -217 626 -424 Z" /><glyph glyph-name="" unicode="&#x4e71;" d="M268 924 l312 0 l0 360 q-197 -24 -383 -43 q-15 62 -74 150 q92 -7 182 -7 q368 0 629 125 l94 -118 q23 -29 21 -37 q-1 -3 -9 -3 q-9 0 -24 3 q-27 6 -322 -43 l0 -387 l271 0 q55 0 176 12 l0 -127 q-111 12 -176 12 l-271 0 l0 -315 l109 0 q74 0 201 12 q-13 -123 -13 -186 l0 -395 q2 -58 13 -168 l-140 0 q10 71 13 133 l-506 0 q2 -47 12 -154 l-139 0 q10 107 12 170 l0 422 q-2 78 -12 178 q118 -10 184 -12 l152 0 l0 315 l-312 0 q-71 -2 -166 -12 l0 127 q101 -10 166 -12 ZM371 403 l0 -403 l506 0 l0 403 l-506 0 ZM1376 1325 l0 -1311 q-2 -92 25 -106 q20 -23 135 -25 q150 -4 207 27 q61 31 78 121 q10 57 14 166 q51 -35 152 -74 q-7 -21 -17 -55 q-18 -72 -28 -97 q-52 -133 -132 -174 q-38 -20 -98 -28 q-53 -9 -164 -7 q-166 0 -229 46 q-64 38 -62 147 l0 1382 q-2 70 -12 195 l158 -21 q22 -4 22 -10 q0 -6 -18 -22 q-35 -19 -31 -154 Z" /><glyph glyph-name="" unicode="&#x4e86;" d="M1497 1325 l-1059 0 q-65 2 -174 -12 l0 131 q96 -14 170 -12 l1161 0 q86 -2 185 12 q-359 -414 -678 -594 l0 -854 q6 -164 -68 -207 q-63 -49 -334 -65 q-2 63 -65 180 q135 -29 214 -29 q42 0 66 8 q72 21 68 131 l0 899 q315 170 514 412 Z" /><glyph glyph-name="" unicode="&#x4e89;" d="M104 559 l0 127 q97 -10 170 -12 l697 0 l0 248 l-383 0 q-76 -2 -180 -13 l0 82 q-37 -43 -109 -102 q-72 45 -156 74 q383 235 564 643 l129 -47 q13 -8 13 -17 q0 -10 -18 -22 q-30 -11 -94 -113 l555 0 q80 2 193 12 q-191 -286 -264 -395 l266 0 q76 2 186 12 q-10 -94 -12 -172 l0 -190 l127 0 q74 2 166 12 l0 -127 q-90 10 -166 12 l-127 0 l0 -239 q2 -80 12 -180 l-143 0 q10 41 12 79 l-452 0 l0 -303 q4 -149 -62 -192 q-57 -47 -276 -60 q-4 74 -62 162 q117 -15 180 -15 q37 0 54 5 q51 8 47 76 l0 327 l-447 0 q-71 -2 -170 -12 l0 127 q97 -10 168 -12 l449 0 l0 237 l-695 0 q-73 -2 -172 -12 ZM444 1036 q78 -10 144 -12 l477 0 q115 131 192 281 l-579 0 q-139 -181 -234 -269 ZM1090 571 l0 -237 l456 0 l0 237 l-456 0 ZM1090 922 l0 -248 l456 0 l0 248 l-456 0 Z" /><glyph glyph-name="" unicode="&#x4e8b;" d="M113 338 l0 127 q96 -10 157 -12 l701 0 l0 133 l-522 0 q-60 -2 -164 -13 l0 123 q102 -12 164 -12 l522 0 l0 143 l-408 0 q-49 0 -180 -12 q12 109 12 164 l0 29 q-2 63 -12 176 q119 -10 182 -13 l406 0 l0 115 l-692 0 q-62 -2 -164 -12 l0 127 q104 -12 161 -12 l695 0 l0 47 q-2 63 -13 172 l156 -19 q21 -2 25 -10 q2 -8 -15 -20 q-45 -29 -43 -142 l0 -28 l662 0 q47 0 176 12 l0 -127 q-109 10 -172 12 l-666 0 l0 -115 l400 0 q65 3 182 13 q-10 -96 -12 -164 l0 -39 q2 -66 12 -166 q-92 10 -193 12 l-389 0 l0 -143 l451 0 q74 2 188 12 q-10 -94 -12 -164 l0 -79 l68 0 q45 0 176 12 l0 -127 q-113 10 -176 12 l-68 0 l0 -153 q2 -70 12 -174 l-131 0 q4 36 8 90 l-516 0 l0 -236 q4 -117 -57 -145 q-49 -35 -283 -51 q-16 83 -61 161 q108 -15 175 -15 q45 0 65 7 q55 12 51 90 l0 189 l-518 0 q-60 0 -168 -13 l0 123 q108 -12 168 -12 l518 0 l0 139 l-701 0 q-49 0 -157 -12 ZM971 1073 l-473 0 l0 -147 l473 0 l0 147 ZM1597 211 l0 139 l-516 0 l0 -139 l516 0 ZM1081 586 l0 -133 l516 0 l0 133 l-516 0 ZM1548 1073 l-467 0 l0 -147 l467 0 l0 147 Z" /><glyph glyph-name="" unicode="&#x4e8c;" d="M147 -18 l0 131 q93 -15 152 -13 l1436 0 q65 -2 166 13 l0 -131 q-107 12 -172 12 l-1426 0 q-53 0 -156 -12 ZM317 1165 l0 131 q93 -12 154 -12 l1104 0 q65 -2 160 12 l0 -131 q-101 13 -162 13 l-1090 0 q-67 0 -166 -13 Z" /><glyph glyph-name="" unicode="&#x4e8e;" d="M121 659 l0 127 q108 -12 186 -12 l692 0 l0 580 l-516 0 q-73 0 -178 -13 l0 127 q111 -12 178 -12 l1110 0 q74 0 179 12 l0 -127 q-97 13 -179 13 l-471 0 l0 -580 l615 0 q90 0 188 12 l0 -127 q-100 13 -188 13 l-615 0 l0 -723 q4 -144 -61 -180 q-57 -45 -301 -62 q-12 86 -60 170 q117 -20 183 -20 q42 0 61 8 q57 12 55 100 l0 707 l-692 0 q-82 0 -186 -13 Z" /><glyph glyph-name="" unicode="&#x4e92;" d="M1278 -63 l47 397 l-612 0 q-56 0 -181 -10 l52 165 l178 859 l-330 0 q-57 0 -182 -13 l0 127 q108 -10 182 -12 l1192 0 q59 2 178 12 l0 -127 q-106 11 -178 13 l-743 0 l-74 -392 l563 0 q80 0 166 13 l-27 -195 l-100 -837 l340 0 q59 2 170 12 l0 -123 q-113 12 -170 12 l-1432 0 q-61 0 -182 -12 l0 123 q123 -12 184 -12 l959 0 ZM780 854 l-78 -418 l637 0 l45 418 l-604 0 Z" /><glyph glyph-name="" unicode="&#x4e94;" d="M147 -166 l0 127 q78 -14 142 -12 l413 0 l95 727 l-219 -8 q-103 -4 -191 -15 l0 144 q55 -11 90 -13 q33 -2 107 -2 l227 0 l74 531 l-494 0 q-57 2 -139 -13 l0 132 q84 -15 137 -13 l1288 0 q68 -2 123 13 l0 -132 q-71 15 -123 13 l-676 0 l-69 -531 l407 11 q134 0 250 22 q-16 -72 -22 -180 l-54 -686 l279 0 q61 -2 131 12 l0 -127 q-84 14 -131 12 l-1501 0 q-68 2 -144 -12 ZM922 678 l-101 -729 l576 0 l49 737 l-524 -8 Z" /><glyph glyph-name="" unicode="&#x4e9b;" d="M102 582 q142 18 199 28 l0 619 q-2 71 -12 188 l157 -18 q25 -2 25 -10 q2 -7 -18 -25 q-39 -31 -37 -154 l0 -579 l241 47 l0 670 q-2 59 -12 190 l158 -20 q22 -2 22 -9 q2 -6 -16 -24 q-39 -31 -37 -154 l0 -172 l131 0 q49 2 154 12 l0 -127 q-88 11 -156 13 l-129 0 l0 -352 q150 28 279 67 l0 -129 q-467 -86 -891 -203 l-58 142 ZM1862 -88 l0 -127 q-72 6 -181 8 l-1323 0 q-102 -2 -174 -8 l0 127 q101 -10 174 -12 l1323 0 q70 2 181 12 ZM440 201 l0 127 q117 -11 162 -13 l860 0 q58 2 164 13 l0 -127 q-72 8 -164 8 l-860 0 q-94 0 -162 -8 ZM1272 1370 l0 -293 q342 164 487 299 l96 -110 q19 -23 15 -29 q-4 -8 -39 -12 q-47 0 -176 -78 q-103 -57 -383 -195 l0 -245 q-2 -76 22 -91 q21 -20 109 -16 q63 2 188 2 q119 -4 152 41 q37 37 63 209 q62 -61 140 -84 q-48 -129 -70 -172 q-31 -113 -279 -115 q-55 -3 -108 -3 q-53 0 -103 3 q-141 6 -184 37 q-47 29 -45 115 l0 751 q-2 62 -12 177 l155 -25 q21 -2 23 -10 q0 -8 -16 -23 q-35 -26 -35 -133 Z" /><glyph glyph-name="" unicode="&#x4ea1;" d="M631 983 l0 -1063 l966 0 q95 0 177 12 l0 -139 q-93 12 -177 17 l-909 0 q-92 -5 -201 -17 q15 117 17 189 l0 1001 l-228 0 q-75 -4 -178 -16 l0 143 q90 -12 176 -16 l1495 0 q86 4 168 16 l0 -143 q-90 12 -168 16 l-1138 0 ZM922 1561 q153 -160 299 -328 l-105 -92 q-129 170 -293 332 l99 88 Z" /><glyph glyph-name="" unicode="&#x4ea4;" d="M952 186 q-190 203 -342 498 q64 33 138 82 q45 -229 290 -490 q181 216 267 535 l161 -86 q25 -14 25 -22.5 q0 -8.5 -25 -16.5 q-57 -18 -84 -78 q-102 -233 -258 -420 q318 -268 820 -315 q-82 -68 -125 -164 q-512 160 -779 385 q-286 -254 -800 -395 q-47 94 -123 162 q481 16 835 325 ZM330 1247 l753 0 q-151 140 -319 252 l94 94 q133 -94 328 -252 l-90 -94 l645 0 q88 0 166 13 l0 -127 q-82 12 -166 12 l-1411 0 q-84 0 -166 -12 l0 127 q80 -13 166 -13 ZM201 649 q321 174 479 434 l133 -88 q18 -12 16 -24 q-2 -10 -22 -15 q-43 -2 -90 -55 q-131 -143 -381 -354 q-62 61 -135 102 ZM1241 1001 l86 97 q272 -201 463 -365 l-94 -100 q-221 205 -455 368 Z" /><glyph glyph-name="" unicode="&#x4ea7;" d="M53 -236 q207 150 277 396 q48 163 48 402 q0 125 -13 270 q90 -11 174 -13 l323 0 q-86 148 -205 279 l86 76 q131 -136 230 -277 l-90 -78 l301 0 q153 230 196 357 l138 -74 q18 -10 16 -25 q-4 -14 -23 -18 q-41 -4 -79 -68 q-60 -96 -113 -172 l383 0 q76 2 166 13 l0 -127 q-94 10 -166 12 l-1200 0 q16 -658 -287 -1020 q-70 45 -162 67 ZM516 1288 l645 0 q-96 92 -262 207 l76 96 q168 -110 272 -198 l-78 -105 l459 0 q88 2 168 12 l0 -126 q-84 10 -168 12 l-1112 0 q-78 -2 -166 -12 l0 126 q92 -10 166 -12 Z" /><glyph glyph-name="" unicode="&#x4eac;" d="M922 1610 q170 -107 295 -211 l-84 -109 q-123 115 -293 213 l82 107 ZM1927 1296 l0 -127 q-102 13 -168 13 l-1450 0 q-67 0 -168 -13 l0 127 q99 -12 168 -12 l1450 0 q62 0 168 12 ZM264 -176 q-51 53 -127 96 q273 125 471 418 l137 -96 q19 -13 15 -25 q-6 -12 -31 -12 q-49 4 -100 -51 q-176 -185 -365 -330 ZM1608 1004 q-13 -101 -13 -179 l0 -209 q0 -63 13 -176 q-95 13 -174 13 l-314 0 l0 -557 q4 -132 -57 -168 q-51 -41 -277 -60 q-16 82 -65 162 q85 -16 147 -16 q151 0 145 -19 q-6 -19 -6 106 q0 7 -1 15 l0 537 l-361 0 q-88 0 -192 -13 q12 101 12 181 l0 196 q0 66 -12 187 q110 -13 196 -13 l783 0 q71 0 176 13 ZM580 889 l0 -334 l901 0 l0 334 l-901 0 ZM1335 217 l97 98 q245 -190 436 -376 l-94 -115 q-175 203 -439 393 Z" /><glyph glyph-name="" unicode="&#x4eae;" d="M176 -199 q328 19 436 146 q84 93 84 282 q0 69 -12 156 q72 -14 160 -12 l366 0 q62 0 154 12 q-12 -109 -12 -160 l0 -323 q-2 -60 32 -72 q31 -16 160 -16 q243 -14 243 207 q0 18 -1 32 q69 -69 141 -78 q-51 -165 -127 -219 q-69 -57 -237 -55 q-209 -2 -269 31 q-61 26 -57 131 l0 411 l-420 0 q10 -284 -104 -409 q-107 -129 -439 -211 q-20 67 -98 147 ZM195 635 q67 -14 170 -12 l1335 0 q86 -2 172 12 q-14 -76 -12 -146 l0 -86 q-2 -57 12 -124 l-135 0 q14 65 12 122 l0 123 l-1432 0 l0 -127 q-2 -63 13 -125 l-135 0 q14 62 12 125 l0 90 q2 62 -12 148 ZM358 1331 l789 0 q-88 80 -268 168 l82 109 q131 -72 280 -172 l-76 -105 l502 0 q96 -2 166 13 l0 -123 q-82 14 -166 12 l-1309 0 q-88 2 -165 -12 l0 123 q63 -15 165 -13 ZM1577 1126 q-14 -59 -12 -145 l0 -104 q-2 -72 12 -144 q-84 15 -158 12 l-768 0 q-84 3 -162 -12 q15 76 13 133 l0 115 q2 68 -13 145 q54 -14 162 -12 l768 0 q84 -2 158 12 ZM612 1016 l0 -172 l842 0 l0 172 l-842 0 Z" /><glyph glyph-name="" unicode="&#x4eb2;" d="M1178 1401 l-62 -82 l463 0 q84 0 184 12 l0 -127 q-98 13 -182 13 l-1092 0 q-65 0 -178 -13 l0 127 q115 -12 181 -12 l565 0 q-111 106 -279 199 l84 102 q162 -98 316 -219 ZM332 836 l432 0 q-88 131 -219 262 l98 84 q141 -152 244 -287 l-64 -59 l361 0 q129 190 188 368 l150 -69 q20 -11 20 -21 q0 -10 -22 -14 q-50 -10 -76 -56 q-68 -106 -139 -208 l426 0 q84 0 182 12 l0 -127 q-92 12 -178 12 l-633 0 l0 -262 l467 0 q73 -2 186 12 l0 -127 q-104 13 -186 13 l-467 0 l0 -494 q4 -113 -53 -145 q-50 -37 -263 -60 q-4 80 -61 160 q79 -10 131 -10 q52 0 76 10 q53 14 51 88 l0 451 l-487 0 q-74 0 -179 -13 l0 127 q107 -12 179 -12 l487 0 l0 262 l-651 0 q-74 0 -178 -12 l0 127 q104 -12 178 -12 ZM162 -133 q276 117 473 403 l119 -98 q22 -18 20 -26.5 q-2 -8.5 -31 -10.5 q-57 -6 -108 -63 q-137 -152 -352 -316 q-37 64 -121 111 ZM1405 256 q270 -201 446 -377 l-98 -98 q-188 219 -434 371 l86 104 Z" /><glyph glyph-name="" unicode="&#x4eba;" d="M63 -92 q876 251 876 1395 q0 104 -7 213 l178 -31 q23 -4 25 -15 q4 -10 -15 -24 q-33 -33 -41 -86 q-1 -28 -1 -72 q0 -914 861 -1401 q-77 -24 -143 -112 q-579 344 -776 1036 q-133 -707 -827 -1030 q-60 92 -130 127 Z" /><glyph glyph-name="" unicode="&#x4ec0;" d="M532 1178 l0 -1289 q3 -67 13 -180 l-139 0 q10 107 12 180 l0 1094 q-88 -139 -211 -297 q-78 62 -148 88 q320 260 504 813 l158 -71 q24 -11 22 -19 q0 -8 -26 -24 q-37 -21 -78 -99 q-57 -108 -107 -196 ZM664 776 l0 127 q110 -12 170 -12 l458 0 l0 496 q0 79 -12 200 l158 -20 q24 -2 24 -8.5 q0 -6.5 -20 -24.5 q-37 -29 -35 -154 l0 -489 l397 0 q76 2 189 12 l0 -127 q-121 12 -189 12 l-397 0 l0 -909 q2 -80 12 -190 l-139 0 q10 112 12 190 l0 909 l-454 0 q-66 -2 -174 -12 Z" /><glyph glyph-name="" unicode="&#x4ec5;" d="M57 702 q332 316 496 889 l156 -65 q18 -8 18 -14.5 q0 -6.5 -16 -14.5 q-39 -20 -70 -78 q-18 -45 -49 -121 q-39 -98 -62 -141 l0 -1243 q0 -82 13 -193 l-148 0 q13 111 13 193 l0 1024 q-99 -172 -197 -307 q-68 53 -154 71 ZM575 -149 q400 200 646 512 q-246 403 -334 927 l-23 0 q-49 0 -110 -12 l0 131 q98 -12 164 -12 l729 0 q108 0 178 12 q-123 -643 -445 -1040 q291 -381 617 -525 q-96 -57 -150 -114 q-321 231 -547 530 q-270 -311 -571 -516 q-65 74 -154 107 ZM1309 477 q284 383 354 809 l-647 0 q39 -407 293 -809 Z" /><glyph glyph-name="" unicode="&#x4eca;" d="M47 733 q608 221 860 891 l152 -45 q25 -6 25 -13 q0 -2 -1 -3 q-2 -9 -47 -43 q353 -580 938 -768 q-76 -33 -149 -127 q-565 315 -856 805 q-295 -502 -774 -809 q-60 69 -148 112 ZM1546 576 q-207 -498 -585 -879 q-78 65 -146 90 q297 182 535 666 l-772 0 q-82 0 -168 -13 l0 136 q69 -13 168 -13 l778 0 q114 0 190 13 ZM1051 664 q-107 190 -232 329 l115 70 q125 -152 240 -324 l-123 -75 Z" /><glyph glyph-name="" unicode="&#x4ecb;" d="M59 762 q617 190 902 848 l141 -45 q29 -9 29 -16 q0 -2 -1 -3 q3 -6 -49 -37 q328 -553 881 -739 q-80 -47 -133 -127 q-612 363 -821 774 q-258 -463 -803 -774 q-60 66 -146 119 ZM616 862 l162 -35 q35 -8 37 -14 q4 -6 -18 -20 q-49 -29 -45 -123 q4 -84 4 -165 q0 -296 -60 -458 q-71 -217 -288 -381 q-64 62 -164 94 q266 111 334 328 q38 113 47 291 q3 50 3 133 q0 151 -12 350 ZM1384 -326 l-147 0 q12 103 12 187 l0 837 q0 88 -12 152 l158 -21 q24 -2 24 -10 q2 -4 -18 -20 q-31 -21 -29 -127 l0 -811 q0 -115 12 -187 Z" /><glyph glyph-name="" unicode="&#x4ecd;" d="M70 690 q391 459 458 903 l150 -51 q24 -8 29 -16 q2 -8 -17 -19 q-31 -16 -43 -51 q-43 -115 -119 -303 q-8 -20 -12 -33 l0 -1245 q0 -104 8 -172 l-135 0 q12 84 12 172 l0 1053 q-75 -154 -184 -318 q-51 41 -147 80 ZM555 -176 q285 231 381 547 q95 289 95 818 q0 71 -1 122 l-149 0 q-74 0 -144 -13 l0 136 q66 -13 144 -13 l659 0 q86 0 164 13 q-4 -25 -14 -68 q-11 -51 -17 -80 l-100 -518 l196 0 q58 0 138 10 q-47 -307 -64 -788 q-8 -230 -471 -242 q0 86 -63 170 q114 -18 194 -18 q75 0 121 16 q92 27 100 143 q11 113 19 318 q6 184 14 285 l-176 0 q-70 2 -160 -11 q29 107 49 213 l82 447 l-401 0 q0 -649 -88 -942 q-82 -316 -348 -621 q-90 55 -160 76 Z" /><glyph glyph-name="" unicode="&#x4ece;" d="M57 -104 q336 237 430 884 q25 174 31 383 q4 205 -12 389 l160 -18 q43 -4 45 -12 q1 -2 1 -4 q0 -10 -24 -35 q-41 -37 -41 -133 q-16 -416 -39 -611 q269 -272 410 -465 q-70 -61 -115 -110 q-94 172 -319 426 q-92 -453 -375 -772 q-78 63 -152 78 ZM686 -188 l10 6 q539 356 576 1157 q14 188 12 313 q0 121 -14 273 l160 -29 q40 -8 43.5 -16.5 q3.5 -8.5 -25.5 -36.5 q-43 -37 -43 -135 q-4 -314 20 -494 q123 -655 539 -965 q-88 -55 -135 -114 q-332 313 -479 911 q-43 -510 -512 -958 q-54 43 -152 88 Z" /><glyph glyph-name="" unicode="&#x4ed3;" d="M66 774 q639 252 917 815 l141 -57 q17 -6 15 -18.5 q-2 -12.5 -23 -22.5 l-35 -18 q355 -433 901 -592 q-71 -41 -118 -131 q-574 251 -848 630 q-215 -376 -813 -729 q-76 84 -137 123 ZM1102 174 q-17 86 -58 160 q125 -17 202 -17 q61 0 89 11 q68 18 68 123 l6 243 l-735 0 l0 -688 q-1 -10 -1 -25 q0 -130 146 -126 q127 -7 283 -7 q153 0 287 9 q161 6 204 65 q52 51 58 250 q55 -57 151 -100 q-55 -213 -131 -264 q-67 -62 -303 -74 q-113 -8 -270 -8 q-160 0 -269 6 q-198 8 -229 57 q-45 35 -41 244 l0 592 q-2 73 -12 184 q106 -10 184 -12 l637 0 q80 2 176 12 q-6 -72 -10 -174 l-4 -170 q0 -180 -78 -225 q-70 -56 -350 -66 Z" /><glyph glyph-name="" unicode="&#x4ed6;" d="M43 711 q319 233 508 895 l145 -62 q33 -12 31 -18 q4 -6 -25 -21 q-30 -20 -49 -61 q-67 -160 -168 -348 l0 -1235 q0 -94 13 -168 l-140 0 q13 57 13 168 l0 1024 q-113 -174 -178 -258 q-58 51 -150 84 ZM561 686 l-20 137 q84 11 239 37 q37 6 56 10 l0 390 q0 110 -13 174 l158 -21 q23 -2 23 -8 q2 -6 -17 -21 q-39 -24 -37 -145 l0 -338 q54 12 189 45 q67 15 100 23 l0 465 q0 110 -12 172 l157 -21 q23 -2 23 -8 q0 -6 -23 -25 q-30 -24 -30 -151 l0 -406 q293 64 467 121 q-13 -65 -13 -184 l0 -436 q2 -152 -63 -207 q-57 -56 -242 -64 q-4 86 -39 168 q63 -10 109 -10 q58 0 78 18 q41 25 39 164 l0 408 q-148 -33 -336 -76 l0 -649 q0 -113 12 -166 l-139 0 q12 70 12 166 l0 618 q-33 -8 -106 -26 q-142 -33 -183 -45 l0 -766 q-2 -88 27 -109 q29 -26 129 -31 q123 -6 272.5 -4 q149.5 2 272.5 11 q188 -13 202 256 q62 -56 136 -99 q-72 -243 -234 -266 q-178 -16 -422 -16 q-138 0 -264 4 q-234 -4 -234 177 q0 13 1 25 l0 791 q-23 -6 -66 -20 q-145 -41 -209 -62 Z" /><glyph glyph-name="" unicode="&#x4ee3;" d="M59 684 q385 334 576 907 l145 -75 q23 -11 21 -17 q0 -8 -25 -18 q-35 -15 -76 -92 q-28 -56 -84 -160 q-36 -72 -53 -103 l0 -1235 q0 -57 12 -192 l-135 0 q11 123 13 192 l0 1059 q-119 -186 -252 -346 q-70 49 -142 80 ZM655 657 l-26 134 q141 4 186 14 l303 51 q-35 340 -37 535 q0 45 -8 149 q-2 16 -2 25 l154 -23 q30 -4 30 -10 q5 -6 -16 -29 q-43 -41 -39 -119 q6 -315 35 -509 q436 63 672 141 l26 -135 q-202 -25 -688 -109 q64 -637 420 -856 q47 -32 81 -32 q50 0 71 71 q12 35 26 145 q39 -65 144 -75 q-37 -117 -66 -179 q-41 -117 -133 -117 q-68 0 -166 66 q-408 234 -494 959 l-313 -58 q-4 0 -160 -39 ZM1348 1415 l106 86 q115 -125 281 -336 l-103 -92 q-157 219 -284 342 Z" /><glyph glyph-name="" unicode="&#x4ee4;" d="M965 1614 l153 -43 q25 -6 23 -12 q2 -5 -19 -19 q-16 -10 -35 -29 q340 -503 906 -690 q-101 -71 -142 -139 q-645 389 -841 741 q-310 -473 -822 -749 q-47 53 -147 117 q569 182 924 823 ZM358 473 l0 131 q64 -14 136 -12 l989 0 q82 -2 182 12 q-184 -284 -580 -639 q132 -92 236 -186 l-84 -111 q-301 279 -653 463 l90 100 q157 -92 311 -196 q285 241 430 450 l-915 0 q-58 2 -142 -12 ZM780 993 l101 82 q151 -121 346 -305 l-101 -106 q-125 159 -346 329 Z" /><glyph glyph-name="" unicode="&#x4ee5;" d="M444 1319 l0 -1301 q183 234 428 545 q13 -78 39 -149 q-10 -13 -30 -39 q-342 -420 -504 -641 q-39 104 -101 172 q29 26 37 57 q9 29 9 105 l0 1245 q0 100 -13 205 l178 -21 q21 -4 21 -16 q0 -15 -21 -25 q-41 -26 -43 -137 ZM1573 1522 l178 -29 q33 -6 37 -14.5 q4 -8.5 -21 -28.5 q-36 -39 -38 -145 q-19 -607 -213 -979 q176 -181 389 -465 l-131 -117 q-175 289 -344 467 q-312 -367 -637 -522 q-62 84 -123 135 q929 379 927 1464 q0 47 -16 172 q-6 45 -8 62 ZM743 1210 l95 80 q237 -246 424 -502 l-111 -94 q-139 242 -408 516 Z" /><glyph glyph-name="" unicode="&#x4eec;" d="M74 711 q280 233 489 860 l142 -60 q22 -10 22 -16 q0 -6 -22 -14 q-27 -15 -41 -49 q-80 -205 -140 -320 l0 -1253 q0 -111 13 -174 l-140 0 q13 63 13 174 l0 1044 q-86 -143 -181 -278 q-53 47 -155 86 ZM961 -293 l-140 0 q13 68 13 178 l0 1129 q0 106 -13 172 l158 -19 q25 -4 25 -10 q0 -8 -21 -22 q-33 -27 -35 -154 l0 -1098 q0 -112 13 -176 ZM981 1532 q139 -148 240 -279 l-111 -94 q-86 158 -236 287 l107 86 ZM1284 1260 l0 127 q66 -13 170 -13 l250 0 q92 0 149 13 q-12 -52 -12 -144 l0 -1362 q6 -108 -57 -139 q-66 -39 -275 -51 q-12 94 -61 168 q94 -22 155 -22 q138 0 131 -21.5 q-7 -21.5 -7 109.5 q0 13 -1 20 l0 1327 l-274 0 q-92 0 -168 -12 Z" /><glyph glyph-name="" unicode="&#x4ef0;" d="M74 766 q317 307 452 805 l150 -70 q18 -10 16 -18 q0 -10 -24 -21 q-35 -22 -52 -59 q-47 -137 -84 -211 l0 -1298 q0 -107 13 -193 l-139 0 q12 70 12 193 l0 1087 q-94 -158 -199 -299 q-53 43 -145 84 ZM1186 1495 l78 -102 q10 -13 8 -17 q0 -2 -12 -4 q-35 -4 -66 -14 q-121 -37 -238 -53 l0 -1102 q164 104 252 182 q6 -59 33 -129 q-190 -125 -293 -209 q-4 -2 -47 -43 q-39 55 -100 90 q41 45 41 105 l0 1048 q0 92 -13 144 q154 10 357 104 ZM1321 1427 q53 -12 160 -12 l227 0 q98 0 162 12 q-12 -59 -12 -159 l0 -1000 q4 -166 -46 -198 q-43 -45 -241 -52 q-15 82 -60 150 q78 -15 128 -15 q119 0 112.5 -15 q-6.5 -15 -6.5 78 q0 7 -2 17 l0 1080 l-295 0 l0 -1450 q0 -105 12 -170 l-139 0 q12 69 12 170 l0 1405 q0 98 -12 159 Z" /><glyph glyph-name="" unicode="&#x4ef6;" d="M72 692 q391 357 510 881 l155 -64 q23 -10 23 -20 q-2 -12 -27 -23 q-37 -16 -61 -75 q-54 -123 -129 -285 l0 -1196 q-2 -94 12 -193 l-139 0 q12 99 12 193 l0 1003 q-96 -153 -201 -288 q-73 43 -155 67 ZM705 702 q202 304 225 664 l149 -49 q23 -8 21 -17 q0 -10 -23 -24 q-20 -14 -30 -43 q-17 -55 -41 -131 l282 0 l0 260 q2 106 -12 213 l158 -21 q20 -2 22 -10 q2 -8 -16 -22 q-41 -25 -37 -152 l0 -268 l276 0 q66 -2 154 12 l0 -127 q-86 14 -154 12 l-276 0 l0 -450 l418 0 q65 -2 153 12 l0 -127 q-92 15 -153 12 l-418 0 l0 -542 q-2 -74 12 -189 l-139 0 q14 107 12 189 l0 542 l-422 0 q-65 3 -151 -12 l0 127 q71 -14 145 -12 l428 0 l0 450 l-311 0 q-80 -245 -123 -337 q-61 22 -149 40 Z" /><glyph glyph-name="" unicode="&#x4ef7;" d="M508 1571 l156 -58 q16 -6 14 -12 q-2 -8 -23 -16 q-26 -15 -49 -68 q-63 -162 -131 -311 l0 -1229 q-2 -92 12 -192 l-139 0 q12 114 12 192 l0 1028 q-75 -108 -178 -227 q-51 49 -135 98 q289 166 461 795 ZM1188 1604 l149 -39 q13 -4 11 -13 q-5 -8 -19 -16 q-22 -6 -33 -47 q201 -408 709 -635 q-76 -47 -137 -129 q-467 334 -621 639 q-157 -367 -569 -690 q-74 65 -141 108 q516 275 651 822 ZM963 797 l147 -21 q29 -4 29 -12 q0 -8 -29 -39 q-18 -18 -20 -76 l0 -274 q2 -32 2 -53 q0 -378 -353 -635 q-53 63 -137 100 q209 96 291 233 q84 134 82 375 l0 226 q2 88 -12 176 ZM1636 -313 l-139 0 q12 86 12 166 l0 737 q2 104 -12 217 l156 -21 q24 -2 24 -8 q2 -6 -18 -24 q-37 -31 -35 -154 l0 -747 q-2 -66 12 -166 Z" /><glyph glyph-name="" unicode="&#x4efb;" d="M63 727 q367 326 517 854 l139 -59 q37 -15 35 -21 q4 -4 -31 -26 q-35 -27 -66 -101 q-53 -131 -125 -272 l0 -1231 q5 -111 13 -193 l-142 0 q13 154 15 193 l0 1055 q-107 -156 -203 -277 q-76 51 -152 78 ZM651 565 l0 135 q49 -12 162 -12 l463 0 l0 516 q-279 -51 -485 -73 q-15 22 -35 63 q-31 55 -51 82 q577 -10 1015 197 l111 -117 q24 -27 20 -33 q-1 -5 -17 -5 q-11 0 -19 1 q-56 2 -129 -19 q-160 -47 -295 -75 l0 -539 l430 0 q67 0 159 12 l0 -133 q-6 0 -16 2 q-106 11 -143 11 l-430 0 l0 -627 l376 0 q66 0 156 12 l0 -131 q-86 12 -156 12 l-901 0 q-63 0 -155 -12 l0 131 q90 -12 155 -12 l410 0 l0 627 l-463 0 q-88 0 -162 -13 Z" /><glyph glyph-name="" unicode="&#x4f01;" d="M39 735 q635 248 919 842 l146 -53 q24 -11 24 -17 q0 -6 -24 -22 q-14 -10 -31 -29 q297 -526 893 -713 q-86 -59 -129 -135 q-571 295 -836 746 q-286 -455 -823 -729 q-49 51 -139 110 ZM651 551 l0 -655 l340 0 l0 892 q2 117 -12 197 l158 -20 q18 -2 18 -11 q2 -6 -14 -22 q-39 -27 -35 -152 l0 -231 l330 0 q59 -2 129 12 l0 -127 q-76 15 -127 12 l-332 0 l0 -550 l612 0 q56 -2 131 12 l0 -127 q-82 14 -133 12 l-1458 0 q-53 2 -135 -12 l0 127 q80 -14 131 -12 l283 0 l0 651 q2 100 -13 196 l158 -20 q25 -2 25 -8 q2 -6 -19 -25 q-41 -28 -37 -139 Z" /><glyph glyph-name="" unicode="&#x4f0e;" d="M446 -106 l0 1116 q-104 -172 -243 -353 q-103 66 -158 82 q338 295 530 856 l156 -73 q23 -11 21 -17 q0 -8 -23 -14 q-33 -14 -61 -64 q-70 -143 -107 -217 l0 -1316 q0 -78 12 -193 l-139 0 q15 113 12 193 ZM696 -147 q260 12 586 272 q-229 231 -319 557 l-45 0 q-54 2 -119 -12 l0 127 q75 -15 168 -13 l325 0 l0 347 l-395 0 q-92 2 -170 -13 l0 127 q72 -14 170 -12 l395 0 l0 158 q2 102 -12 213 l158 -21 q24 -2 24 -8 q2 -6 -18 -25 q-25 -22 -31 -51 q-6 -24 -6 -102 l0 -164 l391 0 q60 -2 168 12 l0 -127 q-111 13 -168 13 l-391 0 l0 -347 l264 0 q60 0 164 13 q-82 -277 -369 -660 q244 -186 535 -241 q-72 -52 -113 -144 q-305 127 -516 293 q-242 -207 -567 -334 q-21 66 -109 142 ZM1665 682 l-584 0 q70 -252 289 -463 q137 156 295 463 Z" /><glyph glyph-name="" unicode="&#x4f17;" d="M80 -190 q486 283 486 840 q0 43 -3 89 l160 -34 q29 -7 29 -13 q2 -4 -25 -22 q-29 -27 -35 -62 q-14 -123 -39 -243 q189 -132 404 -293 q-43 -52 -86 -119 q-142 131 -353 289 q-98 -269 -389 -527 q-49 37 -149 95 ZM973 1571 l166 -39 q18 -4 18 -13.5 q0 -9.5 -20 -25.5 q-37 -27 -39 -78 q153 -377 784 -588 q-53 -39 -125 -125 q-563 277 -719 603 q-176 -433 -719 -627 q-55 65 -133 131 q717 115 787 762 ZM823 -227 q273 135 379 366 q88 188 88 497 q0 67 -4 138 l150 -31 q28 -6 30 -12 q2 -8 -18 -22 q-29 -29 -35 -72 q-2 -27 -4 -66 q-2 -32 -2 -53 q84 -424 567 -682 q-82 -31 -137 -100 q-364 295 -467 563 q-74 -352 -397 -602 q-74 43 -150 76 Z" /><glyph glyph-name="" unicode="&#x4f18;" d="M31 668 q327 364 471 913 l153 -70 q21 -8 19 -18 q0 -8 -23 -18 q-45 -17 -69 -84 q-37 -95 -97 -236 l0 -1274 q0 -73 13 -192 l-140 0 q13 123 13 192 l0 1032 q-97 -178 -195 -325 q-59 47 -145 80 ZM1061 924 l-346 0 q-68 0 -158 -13 l0 127 q96 -12 158 -12 l346 0 l0 408 q2 75 -12 172 l157 -21 q23 -2 25 -10 q2 -8 -17 -25 q-40 -30 -38 -143 l0 -381 l544 0 q78 0 164 12 l0 -127 q-88 13 -164 13 l-544 0 q16 -711 -496 -1182 q-70 55 -152 90 q537 358 533 1092 ZM1378 600 l0 -614 q-2 -12 -2 -22 q0 -85 135 -81 q19 -1 54 -1 q86 0 157 14 q80 12 99 51 q24 39 24 170 q72 -45 146 -68 q-41 -276 -244 -272 q-113 -15 -277 -13 q-129 3 -165 39 q-43 35 -41 144 l0 659 q2 70 -13 172 l158 -18 q23 -2 25 -10.5 q2 -8.5 -17 -24.5 q-37 -35 -39 -125 ZM1339 1413 l93 94 q157 -135 297 -286 l-97 -99 q-127 160 -293 291 Z" /><glyph glyph-name="" unicode="&#x4f19;" d="M53 768 q350 330 459 821 l143 -61 q23 -8 21 -18.5 q-2 -10.5 -27 -20.5 q-28 -10 -53 -72 q-57 -135 -117 -272 l0 -1249 q2 -76 13 -193 l-140 0 q8 88 13 193 l0 1052 q-70 -125 -160 -256 q-84 51 -152 76 ZM1194 1585 l156 -18 q22 -2 22 -8 q4 -7 -14 -27 q-21 -16 -23 -109 q-8 -399 -16 -608 q14 -188 123 -412 q203 -399 555 -565 q-80 -51 -137 -123 q-476 385 -594 805 q-109 -487 -600 -799 q-50 74 -136 123 q625 222 670 1047 q8 98 10 344 q0 90 0 143 q0 41 -16 207 ZM647 592 q146 219 174 561 l135 -39 q21 -6 23 -12 q0 -6 -16 -21 q-15 -6 -39 -106 q-80 -320 -133 -424 q-62 25 -144 41 ZM1417 670 q187 196 301 512 l142 -76 q14 -8 12 -14.5 q-2 -6.5 -19 -12.5 q-22 0 -79 -102 q-109 -186 -226 -371 q-67 39 -131 64 Z" /><glyph glyph-name="" unicode="&#x4f1a;" d="M49 832 q625 262 922 774 l129 -58 q26 -12 24 -20 q-2 -8 -34 -25 q-15 -6 -29 -28 q373 -435 913 -584 q-90 -68 -121 -135 q-610 299 -866 639 q-282 -365 -801 -680 q-51 59 -137 117 ZM174 365 l0 127 q109 -13 168 -13 l1292 0 q52 0 164 13 l0 -127 q-110 12 -164 12 l-690 0 l72 -72 q20 -20 16 -29 q0 -8 -28 -12 q-66 -8 -115 -63 q-133 -133 -334 -322 q96 6 842 41 q-101 125 -238 244 l98 86 q203 -197 465 -477 l-102 -103 q-55 80 -133 168 q-486 -39 -819 -57 q-199 -10 -310 -35 q-22 76 -45 129 q99 33 162 82 q139 100 404 420 l-539 0 q-66 0 -166 -12 ZM524 739 l0 127 q94 -12 164 -12 l631 0 q53 0 162 12 l0 -127 q-107 13 -162 13 l-631 0 q-63 0 -164 -13 Z" /><glyph glyph-name="" unicode="&#x4f20;" d="M86 713 q352 342 526 878 l140 -71 q22 -11 20 -21 q-2 -8 -29 -22 q-47 -23 -69 -78 q-39 -84 -127 -256 q-6 -10 -8 -17 l0 -1226 q0 -62 12 -193 l-135 0 q12 141 12 193 l0 1028 q-111 -172 -192 -285 q-56 43 -150 70 ZM649 772 l0 127 q107 -10 176 -12 l256 0 l78 241 l-233 0 q-56 0 -174 -12 l0 127 q116 -10 174 -12 l260 0 q53 223 71 352 l168 -43 q17 -4 17 -12 q0 -8 -17 -17 q-41 -24 -57 -73 q-39 -135 -61 -207 l329 0 q70 2 181 12 l0 -127 q-119 12 -181 12 l-358 0 l-74 -241 l553 0 q70 2 180 12 l0 -127 q-127 12 -180 12 l-586 0 q-53 -127 -114 -254 l624 0 q45 0 181 11 q-203 -283 -473 -561 q139 -93 264 -187 l-88 -110 q-193 178 -596 411 l78 101 q165 -101 239 -152 q187 178 344 385 l-538 0 q-54 0 -162 -12 q-17 51 -51 108 q65 41 94 103 q37 73 67 157 l-215 0 q-47 0 -176 -12 Z" /><glyph glyph-name="" unicode="&#x4f24;" d="M61 752 q351 270 484 821 l145 -64 q33 -14 31 -22 q0 -6 -37 -29 q-29 -14 -49 -63 q-60 -142 -129 -283 l0 -1241 q0 -84 12 -199 l-135 0 q12 115 12 199 l0 1053 q-92 -140 -178 -250 q-80 51 -156 78 ZM1032 1595 l144 -59 q28 -10 26 -18 q-2 -11 -35 -27 q-20 -4 -49 -72 q-33 -69 -76 -153 l719 0 q92 0 191 12 l0 -127 q-94 12 -191 12 l-770 0 q-112 -200 -266 -379 q-63 48 -152 91 q334 249 459 720 ZM1194 592 l-201 -10 q-108 -6 -211 -23 l0 139 q123 -16 219 -12 l201 6 q12 104 12 185 q0 82 -12 157 l156 -20 q33 -4 35 -13 q4 -6 -19 -24 q-39 -27 -43 -127 q0 -21 -2 -59 q-2 -62 -4 -91 l309 15 q95 6 211 24 q-12 -116 -16 -223 l-12 -551 q2 -147 -62 -186 q-51 -45 -301 -80 q-16 70 -59 170 q105 -12 171 -12 q47 0 70 6 q60 12 58 80 l18 667 l-395 -12 q-17 -545 -539 -911 q-45 49 -129 106 q522 258 545 799 Z" /><glyph glyph-name="" unicode="&#x4f26;" d="M580 758 q399 219 610 839 l149 -47 q17 -4 17 -14 q0 -10 -19 -20 q-14 -9 -32 -33 q254 -482 712 -656 q-80 -36 -139 -120 q-403 231 -635 659 q-229 -457 -524 -707 q-68 60 -139 99 ZM1126 674 l0 -277 q326 193 484 373 l96 -111 q20 -22 18 -30 q-2 -6 -28 -8 q-29 0 -92 -48 q-164 -114 -478 -303 l0 -295 q-10 -92 156 -88 q16 0 51 0 q39 -1 69 -1 q30 0 50 1 q166 2 213 54 q40 38 40 145 q0 30 -3 64 q50 -42 124 -42 q17 0 27 1 q-24 -193 -94 -258 q-65 -70 -243 -78 q-61 -3 -108 -3 q-66 0 -155 5 q-155 4 -194 39 q-49 30 -47 133 l0 743 q-2 70 -13 191 l156 -21 q25 -2 25 -8 q2 -6 -19 -25 q-37 -26 -35 -153 ZM78 741 q317 271 487 826 l152 -62 q18 -6 16 -14 q-2 -6 -24 -21 q-25 -12 -78 -120 l-17 -33 q-90 -184 -106 -215 l0 -1215 q2 -125 8 -192 l-135 0 q10 104 12 192 l0 1002 q-117 -164 -180 -244 q-49 41 -135 96 Z" /><glyph glyph-name="" unicode="&#x4f2f;" d="M569 1604 l144 -62 q18 -8 16 -20 q0 -13 -20 -23 q-31 -16 -56 -72 q-8 -18 -24 -55 q-54 -121 -80 -176 l0 -1337 q2 -80 12 -181 l-139 0 q12 109 12 179 l0 1138 q-94 -166 -207 -313 q-67 47 -161 72 q303 258 503 850 ZM977 -295 l-139 0 q12 105 12 168 l0 1141 q-2 74 -12 178 q96 -10 182 -12 l125 0 q96 303 106 428 l164 -39 q16 -7 16 -18 q0 -11 -18 -25 q-33 -21 -61 -96 q-62 -168 -92 -250 l454 0 q76 2 166 12 q-10 -96 -12 -168 l0 -1130 q2 -93 12 -164 l-139 0 q10 82 12 164 l0 20 l-788 0 l0 -39 q2 -70 12 -170 ZM1753 12 l0 486 l-788 0 l0 -486 l788 0 ZM965 1077 l0 -477 l788 0 l0 477 l-788 0 Z" /><glyph glyph-name="" unicode="&#x4f38;" d="M905 125 l-139 0 q12 92 12 184 l0 723 q0 64 -12 156 q92 -12 166 -12 l330 0 l0 223 q0 94 -13 205 l156 -21 q22 -2 25 -10 q0 -6 -19 -24 q-20 -19 -25.5 -43.5 q-5.5 -24.5 -5.5 -106.5 l0 -223 l365 0 q82 0 164 12 q-13 -86 -13 -156 l0 -715 q0 -77 13 -176 l-140 0 q13 66 13 121 l-402 0 l0 -375 q0 -108 13 -209 l-144 0 q13 103 13 209 l0 375 l-369 0 q0 -67 12 -137 ZM893 674 l0 -309 l369 0 l0 309 l-369 0 ZM893 1073 l0 -297 l369 0 l0 297 l-369 0 ZM1380 674 l0 -309 l402 0 l0 309 l-402 0 ZM1380 1073 l0 -297 l402 0 l0 297 l-402 0 ZM72 737 q313 301 481 873 l145 -74 q27 -12 25 -18 q2 -7 -23 -21 q-41 -22 -69 -92 q-45 -105 -107 -225 l0 -1282 q0 -90 13 -195 l-140 0 q13 90 13 195 l0 1050 q-82 -151 -191 -303 q-61 49 -147 92 Z" /><glyph glyph-name="" unicode="&#x4f3c;" d="M369 -80 l0 971 q-74 -133 -166 -254 q-62 49 -160 80 q315 309 473 848 l154 -54 q24 -8 26 -18 q0 -10 -22 -23 q-37 -22 -62 -88 q-37 -112 -125 -262 l0 -1200 q0 -115 13 -190 l-144 0 q13 71 13 190 ZM915 1143 l0 -916 q215 205 322 334 q18 -61 61 -123 q-163 -162 -333 -342 q-35 -37 -109 -129 q-49 66 -108 111 q53 51 49 117 l0 950 q0 106 -13 172 l158 -21 q25 -2 25 -10 q2 -6 -19 -22 q-35 -27 -33 -121 ZM1593 1446 l154 -21 q31 -4 31 -12 q4 -6 -19 -31 q-24 -34 -28 -104 q-7 -641 -76 -956 q227 -246 346 -410 l-117 -102 q-61 129 -274 378 q-101 -223 -490 -485 q-53 70 -129 123 q447 174 547 537 q43 176 61 524 q7 145 7 273 q0 169 -13 286 ZM1169 1587 q138 -217 279 -497 l-127 -80 q-131 290 -279 512 l127 65 Z" /><glyph glyph-name="" unicode="&#x4f46;" d="M629 -166 l0 123 q96 -12 162 -12 l1024 0 q65 -2 167 12 l0 -123 q-90 12 -167 12 l-1024 0 q-60 0 -162 -12 ZM836 1413 q110 -12 186 -12 l606 0 q62 -2 166 12 q-12 -106 -12 -176 l0 -776 q0 -80 12 -182 q-98 12 -166 12 l-604 0 q-78 0 -188 -12 q12 104 12 184 l0 770 q0 63 -12 180 ZM963 795 l0 -402 l704 0 l0 402 l-704 0 ZM963 897 l704 0 l0 401 l-704 0 l0 -401 ZM578 1597 l149 -79 q18 -11 18 -21 q-2 -8 -24 -18 q-29 -15 -47 -49 q-80 -173 -146 -299 l0 -1250 q0 -73 13 -190 l-140 0 q13 112 13 190 l0 1028 q-72 -116 -191 -284 q-63 45 -160 82 q347 327 515 890 Z" /><glyph glyph-name="" unicode="&#x4f4d;" d="M1440 -39 l422 0 q49 -2 129 12 l0 -122 q-80 12 -131 12 l-1117 0 q-59 0 -137 -12 l0 122 q70 -14 133 -12 l580 0 q160 522 223 977 l172 -55 q23 -6 21 -15 q0 -10 -23 -24 q-39 -21 -53 -90 q-117 -480 -219 -793 ZM1913 1174 l0 -127 q-78 14 -137 12 l-971 0 q-60 2 -143 -12 l0 127 q75 -13 135 -13 l977 0 q63 -2 139 13 ZM963 860 q141 -383 247 -729 l-141 -47 q-106 426 -244 723 l138 53 ZM969 1526 l100 94 q184 -178 332 -340 l-113 -104 q-131 196 -319 350 ZM539 1589 l151 -67 q23 -11 23 -17 q0 -8 -23 -18 q-31 -21 -51 -62 q-29 -69 -111 -249 l0 -1350 q-2 -55 13 -156 l-140 0 q15 94 13 152 l0 1122 q-88 -164 -195 -328 q-65 48 -160 82 q303 293 480 891 Z" /><glyph glyph-name="" unicode="&#x4f4e;" d="M1724 1483 l115 -119 q16 -16 12 -23.5 q-4 -7.5 -30 -5.5 q-7 1 -18 1 q-26 0 -62 -7 q-99 -14 -279 -35 q-4 -75 -4 -159 q0 -158 15 -330 l290 0 q62 0 172 12 l0 -123 q-106 13 -172 13 l-280 0 q49 -482 256 -760 q45 -53 65 -49 q19 0 39.5 61 q20.5 61 20.5 158 q71 -58 129 -68 q-25 -108 -66 -209 q-41 -104 -98 -106 q-55 -4 -148 96 q-245 283 -321 877 l-406 0 l0 -760 q176 145 306 286 q20 -73 53 -116 q-160 -150 -264 -240 q-80 -67 -148 -149 l-100 94 q47 53 43 106 l0 1268 q0 66 -13 186 q92 -9 201 -9 q143 0 291 16 q266 30 401 94 ZM954 1262 l0 -457 l396 0 q-13 194 -17 475 q-286 -18 -379 -18 ZM1243 -51 l96 71 q103 -120 177 -229 l-103 -74 q-70 123 -170 232 ZM559 1581 l133 -68 q25 -12 25 -22 q0 -10 -25 -26 q-26 -17 -43 -54 q-35 -72 -125 -246 l0 -1278 q0 -73 13 -190 l-136 0 q13 113 13 190 l0 1082 q-90 -144 -207 -291 q-51 47 -150 82 q342 284 502 821 Z" /><glyph glyph-name="" unicode="&#x4f4f;" d="M643 -225 l0 131 q72 -12 160 -12 l440 0 l0 550 l-272 0 q-94 0 -162 -12 l0 131 q82 -12 162 -12 l272 0 l0 442 l-409 0 q-72 0 -156 -12 l0 131 q84 -12 156 -12 l950 0 q78 0 164 12 l0 -131 q-86 12 -164 12 l-422 0 l0 -442 l350 0 q66 0 148 12 l0 -131 q-60 12 -148 12 l-350 0 l0 -550 l453 0 q69 0 161 12 l0 -131 q-82 12 -161 12 l-1012 0 q-92 0 -160 -12 ZM1008 1475 l102 100 q207 -186 311 -303 l-108 -105 q-162 189 -305 308 ZM57 721 q322 252 549 876 l142 -75 q24 -13 24 -23 q0 -10 -29 -22 q-45 -27 -69 -80 q-39 -90 -137 -279 l0 -1249 q0 -127 12 -193 l-139 0 q12 101 12 195 l0 1059 q-66 -103 -201 -277 q-16 -22 -24 -32 q-47 55 -140 100 Z" /><glyph glyph-name="" unicode="&#x4f53;" d="M25 768 q307 248 512 817 l139 -74 q24 -12 22 -20 q-2 -10 -28 -21 q-39 -14 -68 -75 q-63 -133 -139 -275 l0 -964 q368 233 616 886 l-329 0 q-70 0 -160 -12 l0 131 q80 -12 160 -12 l424 0 l0 283 q0 75 -13 172 l156 -21 q24 -2 26.5 -10 q2.5 -8 -18.5 -25 q-37 -28 -37 -145 l0 -254 l453 0 q74 0 164 12 l0 -131 q-86 12 -164 12 l-393 0 q251 -606 643 -835 q-88 -35 -146 -109 q-358 344 -557 830 l0 -676 l215 0 q64 0 150 10 l0 -125 q-13 2 -33 4 q-88 9 -117 9 l-215 0 l0 -250 q0 -72 12 -191 l-139 0 q13 117 13 191 l0 250 l-211 0 q-41 0 -142 -11 q-14 -2 -20 -2 l0 125 q88 -10 162 -10 l211 0 l0 713 q-220 -543 -564 -908 q-63 56 -147 90 l0 -239 q0 -76 12 -193 l-139 0 q12 111 12 193 l0 1022 q-65 -109 -176 -256 q-51 59 -147 94 Z" /><glyph glyph-name="" unicode="&#x4f55;" d="M684 1239 l0 127 q90 -10 168 -12 l958 0 q74 2 164 12 l0 -127 q-88 10 -164 12 l-79 0 l0 -1241 q6 -190 -56 -229 q-47 -51 -303 -66 q-18 84 -61 164 q126 -19 191 -19 q50 0 67 11 q51 12 47 131 l0 1249 l-764 0 q-74 -2 -168 -12 ZM768 295 q10 90 12 156 l0 335 q-2 70 -12 162 q90 -10 166 -12 l266 0 q84 2 168 12 q-10 -82 -12 -162 l0 -333 q2 -72 12 -158 q-90 10 -174 12 l-252 0 q-76 -2 -174 -12 ZM891 834 l0 -424 l354 0 l0 424 l-354 0 ZM518 1565 l146 -56 q16 -6 16 -16 q-2 -8 -21 -20 q-34 -23 -57 -76 q-35 -80 -90 -205 l0 -1288 q2 -84 12 -189 l-139 0 q10 109 12 189 l0 1069 q-92 -189 -202 -354 q-50 38 -148 69 q309 326 471 877 Z" /><glyph glyph-name="" unicode="&#x4f59;" d="M627 279 l118 -99 q21 -18 19 -26.5 q-2 -8.5 -29 -14.5 q-49 -8 -92 -59 q-123 -141 -350 -346 q-51 55 -133 104 q272 144 467 441 ZM324 352 l0 127 q96 -12 165 -12 l502 0 l0 297 l-303 0 q-65 0 -166 -12 l0 127 q94 -13 166 -13 l676 0 q78 0 172 13 l0 -127 q-102 12 -172 12 l-258 0 l0 -297 l477 0 q66 0 158 12 l0 -127 q-86 13 -160 13 l-475 0 l0 -488 q2 -102 -68 -141 q-69 -43 -262 -55 q-8 88 -53 167 q98 -14 159 -14 q41 0 60 6 q51 13 49 80 l0 445 l-504 0 q-67 0 -163 -13 ZM1298 137 l74 119 q299 -158 522 -317 l-86 -117 q-217 176 -510 315 ZM979 1602 l147 -80 q17 -11 17 -17 q0 -6 -19 -14 q-14 -6 -32 -21 q338 -438 903 -559 q-76 -59 -125 -143 q-582 248 -860 619 q-305 -422 -797 -693 q-53 64 -141 117 q602 213 907 791 Z" /><glyph glyph-name="" unicode="&#x4f5c;" d="M647 758 q359 270 488 854 l168 -58 q16 -4 16 -10 q0 -6 -14 -14 q-37 -21 -68 -96 q-53 -136 -125 -283 l686 0 q86 0 166 12 l0 -131 q-86 12 -164 12 l-506 0 l0 -358 l396 0 q71 0 157 12 l0 -127 q-75 13 -157 13 l-396 0 l0 -332 l482 0 q67 0 153 12 l0 -127 q-67 13 -153 13 l-482 0 l0 -269 q0 -102 13 -192 l-148 0 q12 80 12 192 l0 1163 l-110 0 q-119 -219 -258 -370 q-68 51 -156 84 ZM84 782 q334 275 487 822 l156 -68 q16 -6 16 -14 q-2 -9 -18 -17 q-31 -8 -72 -98 q-18 -37 -55 -113.5 q-37 -76.5 -59 -124.5 l0 -1275 q0 -95 12 -193 l-139 0 q12 111 12 193 l0 1069 q-109 -166 -182 -269 q-97 66 -158 88 Z" /><glyph glyph-name="" unicode="&#x4f60;" d="M588 4 q241 184 373 606 l159 -75 q19 -11 17 -21 q-4 -12 -27 -16 q-39 -15 -76 -88 q-106 -240 -291 -492 q-71 51 -155 86 ZM1020 1610 l172 -49 q25 -7 22 -13 q0 -6 -24 -22 q-33 -17 -55 -82 q-39 -115 -91 -240 l670 0 q90 0 184 13 q-43 -179 -141 -420 q-78 20 -155 24 q77 129 122 281 l-727 0 q-104 -213 -233 -381 q-78 37 -174 53 q334 279 430 836 ZM1030 -315 q-8 92 -41 178 q122 -29 183 -29 q24 0 36 4 q49 10 45 101 l0 792 q0 88 -12 201 l154 -21 q22 -2 22 -8 q2 -6 -16 -22 q-33 -27 -33 -150 l0 -833 q4 -142 -53 -170 q-49 -37 -285 -43 ZM1606 588 q200 -264 368 -527 l-123 -92 q-168 291 -362 535 l117 84 ZM53 743 q312 265 453 840 l149 -59 q33 -13 31 -19 q4 -6 -22 -20 q-33 -17 -64 -94 q-63 -160 -106 -246 l0 -1260 q0 -92 12 -202 l-139 0 q12 106 12 202 l0 1033 q-92 -154 -160 -250 q-72 41 -166 75 Z" /><glyph glyph-name="" unicode="&#x4f7f;" d="M1006 436 q49 -131 153 -239 q64 125 74 305 l-272 0 q-70 -2 -195 -13 q10 115 12 189 l0 129 q-2 70 -12 194 q131 -10 203 -12 l268 0 l0 211 l-426 0 q-59 -2 -158 -12 l0 127 q109 -12 158 -12 l426 0 l0 94 q-2 69 -12 190 l157 -20 q21 -2 21 -8 q2 -7 -17 -25 q-34 -33 -34 -133 l0 -98 l417 0 q58 2 173 12 l0 -127 q-107 10 -173 12 l-417 0 l0 -211 l284 0 q68 2 191 12 q-10 -120 -12 -184 l0 -151 q2 -60 12 -177 q-129 11 -189 13 l-286 0 q-15 -193 -101 -387 q314 -230 719 -254 q-78 -70 -112 -152 q-398 115 -670 314 q-189 -193 -479 -330 q-45 80 -123 129 q340 74 510 285 q-117 124 -203 284 q76 25 113 45 ZM1237 887 l-348 0 l0 -283 l348 0 l0 283 ZM1352 887 l0 -283 l348 0 l0 283 l-348 0 ZM49 666 q338 340 467 911 l162 -64 q20 -8 18 -14 q-2 -6 -26 -20 q-37 -19 -64 -95 q-43 -114 -92 -231 l0 -1264 q2 -69 12 -190 l-135 0 q12 133 12 190 l0 1031 q-110 -197 -182 -316 q-61 31 -172 62 Z" /><glyph glyph-name="" unicode="&#x4f8b;" d="M872 1282 l-59 0 q-80 -2 -166 -12 l0 131 q96 -10 166 -12 l418 0 q69 2 158 12 l0 -131 q-84 10 -158 12 l-240 0 q-33 -162 -84 -317 l201 0 q76 2 168 12 q0 -858 -574 -1196 q-59 55 -133 94 q324 170 445 412 q-111 119 -250 231 l98 92 q123 -118 205 -209 q72 236 72 457 l-269 0 q-86 -192 -182 -350 q-84 41 -156 57 q252 254 340 717 ZM1532 1014 l0 -649 q2 -82 12 -172 l-139 0 q10 94 12 172 l0 669 q-2 90 -12 183 l158 -21 q14 -4 14 -14 q0 -10 -14 -25 q-31 -26 -31 -143 ZM1501 -285 q-2 86 -53 162 q134 -25 198 -25 q34 0 46 7 q45 10 41 123 l0 1405 q-2 81 -13 190 l158 -21 q14 -4 14 -13 q0 -10 -18 -27 q-27 -21 -27 -146 l0 -1403 q6 -178 -49 -205 q-35 -41 -297 -47 ZM45 735 q315 322 430 865 l154 -58 q20 -8 20 -18.5 q0 -10.5 -20 -18.5 q-37 -18 -58 -80 q-36 -112 -94 -260 l0 -1294 q2 -82 12 -182 l-139 0 q10 102 12 182 l0 1075 q-67 -135 -157 -274 q-74 43 -160 63 Z" /><glyph glyph-name="" unicode="&#x4f9b;" d="M614 389 l0 127 q41 -12 168 -12 l195 0 l0 481 l-129 0 q-98 0 -162 -12 l0 127 q57 -12 162 -12 l129 0 l0 253 q0 99 -12 172 l157 -18 q25 -2 25 -10 q2 -6 -21 -25 q-36 -26 -34 -149 l0 -223 l389 0 l0 274 q0 117 -13 172 l158 -21 q25 -2 25 -8 q2 -6 -19 -24 q-41 -21 -37 -148 l0 -245 l123 0 q97 0 170 12 l0 -127 q-73 12 -170 12 l-123 0 l0 -481 l211 0 q107 0 164 12 l0 -127 q-67 12 -164 12 l-1024 0 q-100 0 -168 -12 ZM1481 504 l0 481 l-389 0 l0 -481 l389 0 ZM635 -223 q270 172 401 502 l148 -89 q12 -8 10 -16 q-2 -10 -18 -14 q-37 -10 -72 -66 q-117 -200 -322 -405 q-77 53 -147 88 ZM1532 272 q268 -256 434 -464 l-100 -93 q-160 230 -434 465 l100 92 ZM53 735 q320 246 475 852 l166 -69 q10 -5 10 -11 q0 -1 -3 -6.5 q-3 -5.5 -17 -11.5 q-37 -12 -51 -53 q-49 -136 -129 -285 l0 -1264 q0 -118 12 -192 l-139 0 q12 92 12 192 l0 1033 q-4 -7 -10 -19 q-80 -151 -156 -252 q-65 37 -170 86 Z" /><glyph glyph-name="" unicode="&#x4f9d;" d="M543 301 q397 272 551 793 l-320 0 q-80 0 -166 -13 l0 131 q72 -12 166 -12 l981 0 q86 0 172 12 l0 -131 q-86 13 -172 13 l-516 0 q-2 -6 -6 -19 q-66 -178 -107 -264 l0 -846 q158 121 260 238 q7 -23 41 -119 q5 -10 7 -14 q-224 -174 -383 -338 q-31 59 -99 98 q64 59 60 154 l0 620 q-187 -276 -334 -411 q-74 69 -135 108 ZM1063 1470 l90 103 q172 -135 274 -238 l-100 -102 q-137 147 -264 237 ZM1370 958 q2 -174 90 -391 q195 217 258 355 l129 -93 q21 -14 19 -18 q-2 -6 -29 -12 q-35 -8 -65 -45 q-103 -119 -265 -289 q209 -363 482 -483 q-66 -31 -138 -113 q-530 387 -596 1075 q68 2 115 14 ZM37 698 q369 310 528 889 l146 -55 q26 -8 24 -16 q2 -7 -22 -21 q-39 -22 -56 -68 q-20 -51 -73 -176 q-33 -75 -52 -118 l0 -1270 q0 -78 13 -176 l-139 0 q12 88 12 178 l0 1079 q-76 -160 -242 -342 q-59 49 -139 96 Z" /><glyph glyph-name="" unicode="&#x4fbf;" d="M545 -147 q260 16 477 184 q-131 96 -283 293 q76 55 105 76 q61 -125 264 -275 q70 100 96 330 l-307 0 q-86 0 -133 -12 q12 75 12 192 l0 383 q0 100 -12 166 q74 -12 166 -12 l299 0 l0 206 l-379 0 q-105 0 -164 -12 l0 127 q62 -12 164 -12 l907 0 q101 0 176 12 l0 -127 q-84 12 -176 12 l-414 0 l0 -206 l295 0 q107 0 174 12 q-12 -62 -12 -166 l0 -381 q0 -111 12 -194 q-67 12 -174 12 l-313 0 q-33 -273 -106 -393 q383 -183 761 -174 q-61 -70 -112 -170 q-543 131 -742 247 q-139 -151 -460 -264 q-37 78 -121 146 ZM887 563 l327 0 l13 207 l-340 0 l0 -207 ZM887 872 l342 0 l0 203 l-342 0 l0 -203 ZM1341 770 l-8 -207 l353 0 l0 207 l-345 0 ZM1343 1075 l0 -203 l343 0 l0 203 l-343 0 ZM31 768 q295 260 448 821 l148 -63 q16 -8 16 -19.5 q0 -11.5 -16 -15.5 q-41 -23 -62 -66 q-43 -120 -104 -258 l0 -1241 q0 -108 12 -188 l-139 0 q12 72 12 188 l0 1018 q-74 -123 -156 -248 q-43 35 -159 72 Z" /><glyph glyph-name="" unicode="&#x4fc3;" d="M821 625 l158 -27 q18 -2 18 -10 q2 -6 -10 -19 q-37 -32 -43 -90 q-8 -59 -24 -151 q-7 -37 -11 -56 q95 -219 322 -307 l0 858 l-221 0 q-74 0 -201 -12 q10 104 12 188 l0 287 q0 72 -12 193 q133 -13 205 -13 l536 0 q49 0 203 13 q-10 -105 -12 -176 l0 -314 q0 -55 12 -178 q-147 12 -201 12 l-206 0 l0 -338 l296 0 q66 2 166 13 l0 -127 q-110 10 -166 12 l-296 0 l0 -442 q133 -21 319 -19 q184 2 309 29 q-57 -76 -65 -152 q-80 4 -217 4 q-349 0 -512 66 q-166 55 -320 246 q-92 -195 -242 -357 q-55 56 -133 95 q338 213 338 698 q0 34 -2 74 ZM932 1364 l0 -438 l698 0 l0 438 l-698 0 ZM53 768 q289 272 453 811 l156 -63 q14 -7 12 -17 q-2 -10 -19 -18 q-47 -19 -73 -82 q-31 -70 -95 -207 q-26 -53 -38 -80 l0 -1237 q2 -76 12 -192 l-139 0 q10 114 12 192 l0 1024 q-60 -108 -129 -203 q-74 52 -152 72 Z" /><glyph glyph-name="" unicode="&#x4fdd;" d="M565 -29 q328 95 570 566 l-318 0 q-102 0 -160 -13 l0 127 q58 -12 160 -12 l402 0 l0 231 l-220 0 q-106 0 -159 -12 q12 90 12 170 l0 279 q0 104 -12 168 q57 -13 159 -13 l596 0 q99 0 150 13 q-12 -58 -12 -168 l0 -279 q0 -113 12 -170 q-59 12 -146 12 l-266 0 l0 -231 l414 0 q100 0 160 12 l0 -127 q-72 13 -160 13 l-338 0 q217 -406 578 -564 q-80 -53 -123 -127 q-328 218 -531 578 l0 -528 q0 -111 13 -189 l-140 0 q13 76 13 184 l0 543 q-230 -391 -504 -573 q-37 39 -150 110 ZM963 1360 l0 -387 l655 0 l0 387 l-655 0 ZM43 705 q379 346 516 882 l152 -53 q26 -10 24 -16 q0 -9 -28 -23 q-41 -20 -60 -72 q-53 -149 -143 -319 l0 -1204 q0 -80 16 -193 l-139 0 q12 84 12 193 l0 1007 q-125 -196 -192 -286 q-51 47 -158 84 Z" /><glyph glyph-name="" unicode="&#x4fe1;" d="M41 731 q326 254 520 866 l154 -69 q16 -8 14 -15.5 q-2 -7.5 -22 -19.5 q-50 -31 -91 -127 q-61 -143 -104 -215 l0 -1272 q2 -63 12 -192 l-139 0 q10 116 12 192 l0 1057 q-92 -148 -194 -291 q-56 43 -162 86 ZM653 1153 l0 127 q92 -10 156 -12 l577 0 q-139 121 -292 241 l96 101 q160 -123 305 -238 l-94 -104 l391 0 q57 0 178 12 l0 -127 q-121 10 -178 12 l-983 0 q-57 0 -156 -12 ZM946 -313 l-137 0 q10 102 12 176 l0 315 q-2 58 -12 180 q147 -12 199 -12 l577 0 q60 0 207 12 q-10 -96 -12 -182 l0 -301 q0 -43 12 -174 l-139 0 q12 84 12 131 l-729 0 q0 -43 10 -145 ZM936 244 l0 -314 l729 0 l0 314 l-729 0 ZM825 842 l0 123 q107 -13 172 -13 l637 0 q54 2 170 13 l0 -123 q-102 10 -170 12 l-637 0 q-67 -2 -172 -12 ZM825 541 l0 123 q105 -11 172 -13 l637 0 q62 2 170 13 l0 -123 q-108 10 -170 12 l-637 0 q-57 -2 -172 -12 Z" /><glyph glyph-name="" unicode="&#x500d;" d="M51 684 q375 336 527 903 l155 -65 q23 -11 23 -21 q0 -10 -25 -16 q-20 -8 -51 -55 q-41 -107 -160 -328 l0 -1225 q0 -100 12 -192 l-135 0 q13 79 13 190 l0 1028 q-129 -201 -197 -293 q-57 43 -162 74 ZM633 639 l0 127 q63 -12 170 -12 l592 0 q141 297 168 422 l139 -70 q24 -12 24 -25 q0 -10 -24 -20 q-37 -14 -70 -80 q-49 -104 -127 -227 l340 0 q80 0 146 12 l0 -127 q-64 12 -142 12 l-1046 0 q-92 0 -170 -12 ZM1894 1315 l0 -127 q-63 12 -151 12 l-848 0 q-109 0 -168 -12 l0 127 q61 -12 164 -12 l852 0 q86 0 151 12 ZM983 -307 l-141 0 q12 90 12 158 l0 452 q0 111 -12 160 q57 -12 172 -12 l618 0 q105 0 166 12 q-12 -60 -12 -162 l0 -459 q0 -88 12 -133 l-139 0 q12 60 12 137 l-700 0 q0 -96 12 -153 ZM965 348 l0 -403 l706 0 l0 403 l-706 0 ZM903 1071 l105 74 q141 -187 211 -309 l-109 -76 q-88 180 -207 311 ZM1085 1520 l91 100 q116 -76 266 -209 l-90 -100 q-135 133 -267 209 Z" /><glyph glyph-name="" unicode="&#x5019;" d="M39 752 q291 249 463 852 l151 -64 q17 -6 15 -16 q0 -13 -19 -21 q-31 -12 -59 -88 q-64 -151 -113 -258 l0 -1266 q2 -79 12 -182 l-139 0 q10 99 12 182 l0 1049 q-83 -152 -167 -270 q-72 51 -156 82 ZM719 -172 q416 94 538 469 l-278 0 q-70 -2 -162 -12 l0 127 q92 -11 162 -13 l299 0 q22 166 25 320 l-222 0 q-67 -154 -137 -262 q-61 32 -153 65 q190 168 239 477 l146 -43 q16 -4 18 -16 q0 -10 -14 -20 q-41 -27 -64 -99 l529 0 q67 2 153 13 l0 -127 q-86 10 -153 12 l-209 0 q-13 -166 -29 -320 l350 0 q76 2 156 13 l0 -127 q-82 10 -156 12 l-325 0 q196 -369 563 -475 q-99 -66 -137 -133 q-363 221 -506 514 q-119 -324 -502 -504 q-45 70 -131 129 ZM805 1008 l0 127 q96 -11 168 -13 l500 0 l73 256 l-403 0 q-66 -2 -158 -12 l0 127 q94 -10 158 -12 l391 0 q80 2 170 12 l-111 -371 l183 0 q79 2 159 13 l0 -127 q-80 10 -159 12 l-801 0 q-78 -2 -170 -12 ZM758 102 l-140 0 q11 97 13 174 l0 568 q-2 88 -13 194 l156 -20 q11 -4 11 -12 q0 -11 -17 -29 q-25 -10 -23 -145 l0 -556 q3 -73 13 -174 Z" /><glyph glyph-name="" unicode="&#x503c;" d="M475 1573 l162 -68 q18 -8 18 -16 q0 -6 -22 -21 q-39 -22 -62 -81 q-43 -109 -96 -234 l0 -1284 q-2 -88 12 -172 l-139 0 q14 76 12 170 l0 1046 q-67 -118 -157 -256 q-64 48 -164 72 q303 268 436 844 ZM698 -80 l95 0 l0 995 q2 58 -13 142 q56 -10 78 -13 q27 -2 64 -2 l241 0 l15 172 l-406 0 q-49 3 -125 -12 l0 127 q68 -14 123 -12 l416 0 l12 166 q0 26 -10 76 q-6 36 -4 41 l159 -37 q21 -4 21 -14.5 q0 -10.5 -18 -26.5 q-29 -25 -33 -60 l-13 -145 l463 0 q47 -2 121 12 l0 -127 q-78 15 -123 12 l-469 0 l-14 -172 l289 0 q47 -2 141 15 q-14 -76 -12 -139 l0 -998 l133 0 q43 -2 123 8 l0 -123 q-76 15 -125 13 l-1125 0 q-57 2 -133 -13 l0 123 q76 -10 129 -8 ZM1581 188 l0 189 l-674 0 l0 -189 l674 0 ZM907 666 l0 -191 l674 0 l0 191 l-674 0 ZM907 942 l0 -178 l674 0 l0 178 l-674 0 ZM907 -80 l674 0 l0 170 l-674 0 l0 -170 Z" /><glyph glyph-name="" unicode="&#x505a;" d="M930 1446 l0 -287 l96 0 q88 0 150 12 l0 -127 q-82 13 -150 13 l-108 0 l0 -357 l83 0 q50 0 134 13 q-13 -80 -13 -158 l0 -410 q2 -100 13 -172 l-140 0 q11 39 13 121 l-306 0 l0 -53 q0 -70 13 -123 l-140 0 q13 90 13 176 l0 461 q0 84 -13 158 q80 -13 152 -13 l72 0 l12 357 l-121 0 q-82 0 -145 -13 l0 127 q61 -12 143 -12 l121 0 l0 271 l-12 145 l161 -21 q19 -2 19 -10 q0 -8 -19 -22 q-26 -29 -28 -76 ZM702 602 l0 -409 l306 0 l0 409 l-306 0 ZM985 -174 q297 108 463 364 q-127 228 -188 529 q71 14 116 33 q31 -240 137 -445 q134 328 132 711 l-230 0 q-49 -117 -127 -256 q-88 39 -153 49 q247 274 321 754 l150 -45 q14 -4 16 -13 q-2 -10 -16 -16 q-39 -18 -64 -115 q-31 -116 -86 -256 l324 0 q63 0 127 13 l0 -127 q-70 12 -123 12 l-25 0 q-20 -537 -172 -832 q180 -243 418 -348 q-88 -53 -141 -112 q-201 168 -340 354 q-135 -178 -402 -379 q-49 63 -137 125 ZM436 1579 l152 -59 q12 -7 12 -15 q-2 -8 -14 -14 q-43 -18 -70 -98 q-39 -117 -98 -260 l0 -1239 q0 -101 12 -193 l-139 0 q12 92 12 193 l0 989 q-14 -27 -123 -207 q-55 47 -147 84 q258 205 403 819 Z" /><glyph glyph-name="" unicode="&#x505c;" d="M786 293 l-139 0 q10 86 12 160 l0 18 q-2 74 -12 160 q94 -10 174 -12 l1002 0 q73 2 166 12 q-11 -88 -13 -154 l0 -18 q2 -74 13 -156 l-140 0 q11 82 13 156 l0 57 l-1088 0 l0 -63 q2 -72 12 -160 ZM655 1204 l0 127 q99 -10 170 -12 l457 0 q-100 106 -233 199 l100 98 q133 -107 256 -217 l-76 -80 l447 0 q84 2 161 12 l0 -127 q-86 10 -161 13 l-951 0 q-75 -3 -170 -13 ZM858 1128 q94 -10 168 -12 l537 0 q77 2 170 12 q-11 -90 -13 -155 l0 -92 q2 -78 13 -156 q-91 10 -166 12 l-541 0 q-76 -2 -168 -12 q10 90 12 156 l0 90 q-2 63 -12 157 ZM985 1018 l0 -182 l621 0 l0 182 l-621 0 ZM862 246 l0 123 q90 -11 164 -13 l580 0 q69 2 155 13 l0 -123 q-84 10 -155 12 l-185 0 l0 -364 q6 -132 -53 -156 q-45 -35 -303 -51 q-14 71 -61 168 q173 -25 233 -25 q14 0 25 2 q51 2 45 62 l0 364 l-281 0 q-65 -2 -164 -12 ZM553 1587 l160 -74 q22 -10 20 -18 q0 -10 -24 -18 q-41 -13 -76 -84 q-21 -43 -70 -146 q-41 -86 -57 -119 l0 -1282 q2 -69 12 -176 l-139 0 q10 99 12 176 l0 1080 q-94 -164 -180 -289 q-68 49 -160 82 q320 289 502 868 Z" /><glyph glyph-name="" unicode="&#x5099;" d="M1817 578 l0 -672 q2 -107 -54 -139 q-51 -37 -221 -48 q-8 70 -55 144 q77 -11 121 -11 q35 0 55 7 q45 10 43 65 l0 168 l-340 0 l0 -174 q0 -67 12 -176 l-135 0 q12 113 12 178 l0 172 l-319 0 l0 -201 q0 -69 12 -161 l-135 0 q12 96 12 161 l0 687 l0 12 q-125 -125 -211 -199 q-32 47 -114 101 q178 79 446 409 l-205 0 q-69 2 -141 -12 l0 123 q76 -15 137 -13 l271 0 l0 238 l-170 0 q-66 2 -138 -12 l0 123 q62 -15 134 -13 l174 0 l0 70 q2 96 -13 172 l154 -21 q18 -4 18 -12 q0 -8 -18 -22 q-33 -19 -31 -115 l0 -72 l303 0 l0 86 q2 95 -12 172 l152 -20 q20 -2 22 -10 q0 -9 -20 -25 q-31 -22 -31 -113 l0 -90 l197 0 q57 -2 131 13 l0 -123 q-78 14 -136 12 l-192 0 l0 -238 l278 0 q58 -2 136 13 l0 -123 q-68 14 -134 12 l-708 0 q-70 -86 -146 -170 l23 0 l674 0 q96 -2 174 10 q-14 -102 -12 -163 ZM475 1556 l168 -40 q21 -5 18.5 -11 q-2.5 -6 -24.5 -16 q-41 -21 -64 -72 q-51 -125 -120 -278 l0 -1229 q0 -139 12 -203 l-135 0 q12 84 12 199 l0 1018 q-96 -179 -152 -258 q-59 34 -145 59 q287 326 430 831 ZM1118 1237 l0 -238 l303 0 l0 238 l-303 0 ZM1706 459 l0 178 l-340 0 l0 -178 l340 0 ZM1366 186 l340 0 l0 179 l-340 0 l0 -179 ZM1255 459 l0 178 l-319 0 l0 -178 l319 0 ZM936 365 l0 -179 l319 0 l0 179 l-319 0 Z" /><glyph glyph-name="" unicode="&#x50a8;" d="M70 725 q276 260 442 858 l133 -49 q35 -12 33 -21 q4 -6 -27 -22 q-30 -18 -55 -80 q-59 -149 -139 -326 l0 -1198 q0 -65 12 -202 l-139 0 q12 131 12 202 l0 994 q-61 -115 -143 -219 q-56 38 -129 63 ZM532 797 l0 123 q78 -11 140 -13 l20 0 q56 0 150 13 q-15 -107 -17 -160 l-14 -719 q111 92 190 170 q19 -72 39 -115 q-252 -190 -321 -286 q-12 20 -64 86 q-16 20 -24 28 q49 37 59 64 q12 22 12 98 l15 723 l-45 0 q-51 0 -140 -12 ZM653 1356 q4 4 19 12 q45 33 80 57 q129 -145 217 -280 q-58 -47 -99 -84 q-96 172 -217 295 ZM850 379 q100 24 270 172 l-14 92 l88 -16 q104 100 186 202 l-262 0 q-76 0 -178 -12 l0 123 q94 -12 174 -12 l193 0 l0 291 l-93 0 q-61 -2 -153 -13 l0 123 q98 -12 153 -12 l93 0 l0 102 q0 76 -11 189 l146 -17 q28 -2 31 -12 q4 -8 -17 -27 q-35 -34 -35 -110 l0 -125 l49 0 q52 2 162 12 l0 -123 q-108 13 -162 13 l-49 0 l0 -291 l33 0 q240 342 305 510 l135 -78 q21 -10 17 -16 q0 -7 -27 -19 q-37 -12 -88 -94 q-115 -180 -203 -303 l207 0 q51 0 170 12 l0 -123 q-104 10 -170 12 l-268 0 q-92 -110 -180 -202 l274 0 q70 2 191 12 q-11 -100 -13 -174 l0 -545 q0 -57 13 -196 l-140 0 q11 69 13 155 l-455 0 q0 -45 12 -180 l-139 0 q10 115 12 188 l0 512 q-43 -36 -149 -110 q-49 47 -121 90 ZM1235 -27 l455 0 l0 232 l-455 0 l0 -232 ZM1235 502 l0 -199 l455 0 l0 225 l-426 0 l-29 -26 Z" /><glyph glyph-name="" unicode="&#x50cf;" d="M557 -82 q397 51 686 397 q-20 41 -53 82 q-223 -221 -512 -362 q-43 55 -94 104 q301 70 526 328 q-31 25 -66 43 q-161 -111 -356 -184 q-43 67 -100 116 q286 41 508 248 l-150 0 q-76 0 -170 -12 q12 80 10 156 l0 86 q0 59 -8 108 q-57 -45 -116 -84 q-41 55 -99 103 q369 161 543 553 l129 -74 q22 -13 20 -21 q-2 -6 -26 -14 q-41 -12 -58 -39 q-32 -45 -45 -61 l332 0 q101 0 201 12 q-53 -66 -103 -137 q-63 -92 -118 -160 l235 0 q80 0 162 12 q-12 -80 -12 -151 l0 -140 q0 -77 12 -149 q-92 12 -170 12 l-422 0 q-63 -67 -106 -108 q133 -88 213 -217 q292 208 336 303 l108 -109 q33 -31 27 -37 q0 -8 -47 -8 q-52 -2 -105 -41 q-22 -16 -61 -49 q-25 -21 -37 -29 q112 -360 420 -475 q-66 -41 -115 -106 q-268 161 -395 512 q-37 -27 -88 -56 q30 -120 32 -247 q0 -125 -26 -187 q-47 -127 -324 -151 q-12 77 -53 170 q78 -24 136 -24 q75 0 114 42 q33 71 33 163 q0 77 -23 167 q-248 -246 -610 -414 q-41 70 -115 129 ZM885 1114 q47 -8 106 -8 l309 0 q60 82 121 186 l-377 0 q-57 -67 -159 -178 ZM897 1008 l0 -220 l268 0 q47 91 64 220 l-332 0 ZM1288 788 l424 0 l0 220 l-366 0 q-23 -111 -58 -220 ZM41 743 q340 256 491 828 l148 -62 q27 -10 27 -18 q0 -8 -27 -25 q-39 -22 -74 -102 q-84 -195 -106 -242 l0 -1239 q0 -98 12 -190 l-139 0 q12 94 12 190 l0 1055 q-84 -131 -211 -291 q-59 64 -133 96 Z" /><glyph glyph-name="" unicode="&#x50d5;" d="M1122 160 l-297 0 q-61 -2 -174 -13 l0 127 q111 -10 174 -12 l349 0 q10 47 28 162 l-229 0 q-64 -2 -172 -12 l0 127 q110 -11 172 -13 l241 0 q7 78 7 150 l-330 0 q-60 -2 -156 -12 l0 127 q101 -11 156 -13 l172 0 q-62 76 -137 150 l82 65 q73 -69 168 -180 l-39 -35 l217 0 q98 131 137 230 l-690 0 q-47 0 -156 -13 l0 127 q105 -12 156 -12 l262 0 l0 272 q-2 74 -12 183 l151 -23 q17 -2 19 -10 q0 -8 -17 -21 q-41 -26 -39 -145 l0 -256 l199 0 l0 291 q-2 59 -12 184 l147 -22 q21 -2 23 -11 q2 -6 -15 -18 q-41 -33 -41 -150 l0 -274 l301 0 q52 0 156 10 l0 -123 q-92 11 -156 11 l-262 0 l123 -62 q14 -8 10 -14 q-6 -6 -30 -10 q-37 2 -109 -97 l-37 -47 l187 0 q84 2 178 13 l0 -127 q-125 10 -178 12 l-314 0 q0 -33 -4 -127 q0 -14 0 -23 l281 0 q47 2 155 13 l0 -127 q-104 12 -155 12 l-293 0 q-12 -96 -27 -162 l459 0 q55 2 156 12 l0 -127 q-109 13 -156 13 l-397 0 q231 -273 540 -338 q-73 -74 -92 -127 q-377 160 -559 436 q-135 -244 -508 -455 q-37 60 -121 115 q330 92 508 369 ZM467 1577 l162 -45 q18 -6 16 -16 q-4 -11 -29 -21 q-26 -12 -38 -45 q-37 -123 -82 -227 l0 -1329 q0 -132 12 -203 l-139 0 q12 73 12 203 l0 1069 q-84 -201 -188 -353 q-54 37 -144 62 q307 338 418 905 ZM1698 1473 l119 -60 q14 -8 14 -16 q-2 -8 -21 -15 q-38 -12 -71 -69 q-53 -94 -94 -154 q-41 31 -107 51 q111 127 160 263 ZM1006 1249 l-84 -67 q-95 112 -187 202 l78 68 q70 -68 193 -203 Z" /><glyph glyph-name="" unicode="&#x513f;" d="M76 -174 q383 154 487 350 q119 187 113 682 l0 442 q0 89 -12 205 l151 -24 q29 -4 31 -15 q0 -10 -25 -30 q-33 -17 -30 -136 l0 -442 q6 -504 -103 -704 q-98 -215 -465 -439 q-49 64 -147 111 ZM1843 201 q62 -72 146 -92 q-74 -207 -146 -252 q-67 -58 -272 -54 q-182 0 -254 48 q-74 47 -72 163 l0 1299 q2 94 -12 207 l166 -25 q16 -4 16 -14 q0 -15 -14 -25 q-47 -18 -41 -143 l0 -1256 q-2 -90 39 -110 q39 -27 188 -25 q154 -2 193 49 q47 43 63 230 Z" /><glyph glyph-name="" unicode="&#x5143;" d="M94 -143 q674 153 649 934 l-419 0 q-86 0 -179 -13 l0 131 q93 -12 179 -12 l1388 0 q78 0 172 12 l0 -131 q-86 13 -172 13 l-422 0 l0 -762 q-6 -109 101 -109 q51 -3 98 -3 q84 0 164 9 q159 23 168 295 q57 -53 147 -104 q-86 -297 -291 -307 q-47 -9 -137 -11 q-96 -2 -170 4 q-117 9 -158 54 q-43 43 -41 157 l0 777 l-301 0 q19 -797 -655 -1067 q-51 69 -121 133 ZM356 1305 l0 131 q105 -13 183 -13 l979 0 q90 0 178 13 l0 -131 q-94 12 -178 12 l-979 0 q-80 0 -183 -12 Z" /><glyph glyph-name="" unicode="&#x5145;" d="M764 582 q-213 -4 -340 -35 q-14 57 -47 141 q90 14 149 82 q168 170 305 387 l-516 0 q-82 0 -184 -12 l0 127 q105 -12 184 -12 l824 0 q-142 122 -320 231 l78 102 q193 -125 328 -233 l-78 -100 l563 0 q92 0 188 12 l0 -127 q-92 12 -188 12 l-792 0 l69 -45 q29 -18 27 -31 q-2 -10 -33 -14 q-55 -4 -117 -78 q-133 -166 -262 -305 l840 27 q-80 108 -201 241 l96 76 q189 -209 383 -452 l-98 -87 q-45 62 -100 123 l-281 -12 l0 -641 q2 -86 76 -104 q41 -9 172 -9 q123 0 178 9 q123 9 123 197 q0 17 -2 46 q72 -51 149 -73 q-53 -289 -221 -291 q-59 -10 -205 -13 q-170 -2 -237 9 q-152 22 -148 190 l0 676 l-235 -10 q-14 -445 -143 -606 q-117 -177 -527 -324 q-51 88 -125 145 q412 78 527 228 q133 143 141 553 Z" /><glyph glyph-name="" unicode="&#x5148;" d="M104 -182 q670 116 664 778 l-401 0 q-76 0 -181 -12 l0 131 q107 -13 181 -13 l608 0 l0 361 l-428 0 q-55 -113 -139 -252 q-89 29 -168 39 q225 221 323 627 l148 -45 q32 -11 34 -19 q5 -8 -22 -22 q-47 -23 -68 -70 q-49 -111 -67 -152 l387 0 l0 215 q0 84 -12 211 l149 -24 q33 -4 35 -10 q4 -7 -19 -27 q-38 -18 -34 -150 l0 -215 l403 0 q86 0 180 13 l0 -131 q-98 12 -180 12 l-403 0 l0 -361 l600 0 q88 0 180 13 l0 -131 q-90 12 -180 12 l-410 0 l0 -596 q-8 -129 111 -123 q105 -3 149 -3 q77 0 105 5 q136 19 136 171 q0 26 -5 61 q73 -47 153 -76 q-43 -252 -260 -273 q-64 -6 -141 -6 q-77 0 -168 6 q-119 9 -158 48 q-43 38 -41 141 l0 645 l-268 0 q-6 -676 -655 -899 q-56 61 -138 121 Z" /><glyph glyph-name="" unicode="&#x5149;" d="M137 723 l0 127 q51 -12 176 -12 l680 0 l0 544 q0 134 -12 203 l168 -29 q20 -4 20 -10 q2 -8 -14 -20 q-39 -43 -47 -117 l0 -571 l631 0 q108 0 178 12 l0 -127 q-80 12 -184 12 l-459 0 l0 -725 q-2 -84 43 -104 q39 -27 192 -25 q68 0 144 13 q102 14 129 65 q28 43 35 225 q75 -55 149 -80 q-51 -260 -151 -296 q-39 -27 -160 -39 q-64 -7 -139 -7 q-78 -2 -140 2 q-229 9 -217 199 l0 772 l-260 0 q-12 -813 -674 -1028 q-24 51 -114 135 q630 103 653 893 l-455 0 q-110 0 -172 -12 ZM358 1311 l103 96 q241 -233 370 -373 l-100 -100 q-176 225 -373 377 ZM1366 934 q-49 49 -100 82 q225 213 362 459 l123 -97 q25 -18 23 -28 q0 -11 -27 -13 q-53 -12 -100 -67 q-113 -152 -281 -336 Z" /><glyph glyph-name="" unicode="&#x514b;" d="M784 416 l-174 0 q-73 0 -166 -13 q13 82 13 156 l0 246 q0 63 -13 168 q101 -12 181 -12 l340 0 l0 243 l-623 0 q-76 0 -178 -12 l0 127 q100 -12 178 -12 l623 0 l0 108 q0 74 -13 182 l160 -22 q35 -4 37 -14.5 q2 -10.5 -27 -32.5 q-41 -27 -39 -113 l0 -108 l641 0 q84 0 177 12 l0 -127 q-91 12 -177 12 l-641 0 l0 -243 l344 0 q91 0 185 12 q-13 -86 -13 -158 l0 -260 q0 -78 13 -152 q-88 13 -174 13 l-193 0 l0 -490 q-2 -14 -2 -22 q0 -76 90 -74 q80 -6 156 -6 q76 0 147 6 q193 2 185 291 q75 -55 149 -82 q-57 -195 -115 -246 q-51 -59 -204 -78 q-45 -6 -154 -8 q-115 0 -184 6 q-191 11 -183 197 l0 506 l-223 0 q6 -537 -692 -746 q-51 74 -115 138 q691 83 684 608 ZM571 858 l0 -340 l914 0 l0 340 l-914 0 Z" /><glyph glyph-name="" unicode="&#x514d;" d="M86 952 q371 152 662 635 l143 -80 q31 -16 33 -30.5 q2 -14.5 -27 -16.5 q-51 -4 -80 -37 q-39 -51 -74 -94 l560 0 q124 0 208 12 q-8 -12 -22 -34 q-23 -33 -47 -66 q-25 -33 -178 -246 l309 0 q92 0 151 13 q-12 -60 -12 -154 l0 -303 q0 -94 12 -145 q-63 12 -151 12 l-375 0 l0 -475 q6 -92 100 -111 q99 -14 213 -10 q107 6 179 31 q122 69 125 284 q61 -63 153 -82 q-72 -229 -176 -305 q-37 -31 -201 -43 q-72 -4 -135 -4 q-104 0 -201 10 q-184 15 -172 187 l0 518 l-49 0 q-112 -461 -809 -742 q-49 74 -147 117 q586 133 819 625 l-330 0 q-108 0 -172 -12 q13 53 13 155 l0 283 q0 4 -13 141 q-129 -108 -164 -133 q-38 41 -133 94 q-8 4 -12 6 ZM426 1008 q74 -13 145 -13 l529 0 q98 121 174 232 l-615 0 q-4 -4 -12 -13 q-31 -26 -221 -206 ZM522 893 l0 -373 l410 0 q45 176 55 373 l-465 0 ZM1055 520 l542 0 l0 373 l-487 0 q-23 -238 -55 -373 Z" /><glyph glyph-name="" unicode="&#x5165;" d="M53 -123 q631 328 844 1213 q7 31 7 55 q0 69 -50 102 q-92 70 -182 107 q73 53 100 110 q215 -133 311 -311 q11 -22 35 -84 q371 -967 885 -1171 q-113 -33 -178 -107 q-527 430 -813 1249 q-232 -843 -797 -1263 q-63 74 -162 100 Z" /><glyph glyph-name="" unicode="&#x5168;" d="M45 809 q565 213 883 766 l141 -47 q33 -6 27 -19 q-2 -6 -52 -36 q435 -500 945 -605 q-84 -55 -134 -137 q-550 242 -876 670 q-277 -406 -795 -701 q-61 72 -139 109 ZM436 725 l0 131 q62 -12 170 -12 l811 0 q103 0 164 12 l0 -131 q-80 12 -166 12 l-371 0 l0 -348 l312 0 q88 0 162 12 l0 -131 q-93 13 -162 13 l-312 0 l0 -394 l578 0 q68 0 172 13 l0 -131 q-61 12 -172 12 l-1260 0 q-104 0 -167 -12 l0 131 q84 -13 170 -13 l563 0 l0 394 l-310 0 q-67 0 -153 -13 l0 131 q90 -12 153 -12 l310 0 l0 348 l-322 0 q-78 0 -170 -12 Z" /><glyph glyph-name="" unicode="&#x516b;" d="M37 -104 q567 462 700 1472 l166 -45 q13 -4 13 -12 q0 -13 -31 -35 q-23 -16 -33 -59 q-160 -883 -670 -1418 q-59 54 -145 97 ZM1825 -201 q-617 688 -711 1680 l129 10 q86 -1002 735 -1595 q-75 -33 -153 -95 Z" /><glyph glyph-name="" unicode="&#x516c;" d="M702 1458 l160 -63 q21 -8 21 -19 q-2 -10 -23 -16 q-49 -23 -86 -96 q-166 -428 -551 -813 q-57 43 -149 98 q399 239 628 909 ZM625 -37 q139 8 479 37 q207 16 313 25 q-137 213 -223 321 l109 74 q223 -328 368 -572 l-119 -77 q-28 71 -86 157 q-508 -43 -823 -82 q-6 0 -164 -38 q-51 98 -69 137 q75 37 110 73 q293 420 441 867 l161 -49 q25 -9 25 -21 q-2 -12 -29 -27 q-33 -14 -67 -94 q-156 -338 -426 -731 ZM1829 453 q-535 436 -688 1046 q2 0 6 2 q35 8 123 25 q139 -615 706 -963 q-61 -43 -147 -110 Z" /><glyph glyph-name="" unicode="&#x516d;" d="M729 666 l137 -72 q33 -16 29 -27 q0 -10 -39 -26 q-35 -21 -65 -78 q-254 -475 -508 -707 l-150 103 q399 264 596 807 ZM170 911 l0 131 q90 -14 174 -12 l1397 0 q76 -2 157 12 l0 -131 q-88 15 -157 13 l-1399 0 q-74 2 -172 -13 ZM780 1450 l113 92 q188 -176 344 -360 l-115 -101 q-153 217 -342 369 ZM1851 -106 l-127 -97 q-188 367 -594 783 l115 79 q383 -442 606 -765 Z" /><glyph glyph-name="" unicode="&#x5171;" d="M121 315 l0 127 q61 -12 151 -12 l400 0 l0 514 l-271 0 q-96 0 -159 -12 l0 127 q57 -12 161 -12 l269 0 l0 276 q0 117 -13 176 l156 -18 q25 -2 27 -10.5 q2 -8.5 -21 -24.5 q-37 -25 -35 -154 l0 -245 l502 0 l0 282 q0 109 -12 176 l158 -18 q24 -2 24 -10.5 q0 -8.5 -22 -28.5 q-35 -25 -33 -154 l0 -247 l254 0 q92 0 155 12 l0 -127 q-59 12 -155 12 l-254 0 l0 -514 l399 0 q94 0 135 12 l0 -127 q-53 13 -135 13 l-1528 0 q-100 0 -153 -13 ZM786 944 l0 -514 l502 0 l0 514 l-502 0 ZM174 -215 q356 154 639 491 l107 -90 q24 -20 22 -28 q-2 -6 -33 -6 q-39 -9 -82 -50 q-184 -211 -516 -417 q-47 55 -137 100 ZM1188 166 l90 102 q309 -207 559 -450 l-88 -105 q-248 256 -561 453 Z" /><glyph glyph-name="" unicode="&#x5173;" d="M150 -156 q628 152 759 629 l-567 0 q-111 0 -166 -12 l0 127 q64 -10 166 -12 l586 0 q14 151 16 391 l-518 0 q-104 0 -166 -13 l0 127 q62 -12 166 -12 l647 0 q234 272 336 504 l125 -90 q31 -23 29 -37 q-2 -14 -39 -19 q-35 -4 -62 -38 q-116 -158 -252 -320 l408 0 q88 0 166 12 l0 -127 q-80 13 -166 13 l-557 0 q-2 -103 -12 -330 q-2 -41 -2 -61 l661 0 q104 0 164 12 l0 -127 q-66 12 -164 12 l-586 0 q230 -465 822 -602 q-66 -74 -109 -145 q-641 274 -815 710 q-111 -456 -758 -729 q-49 88 -112 137 ZM403 1434 l74 102 q234 -147 404 -281 l-80 -98 q-160 139 -398 277 Z" /><glyph glyph-name="" unicode="&#x5176;" d="M117 158 l0 127 q78 -15 139 -13 l328 0 l0 887 l-226 0 q-53 2 -137 -12 l0 127 q70 -14 131 -12 l232 0 l0 155 q0 84 -13 172 l162 -20 q21 -2 21 -9.5 q0 -7.5 -19 -23.5 q-35 -23 -33 -125 l0 -149 l654 0 l0 127 q2 108 -13 200 l162 -20 q21 -2 21 -9.5 q0 -7.5 -19 -23.5 q-22 -18 -26 -43 q-6 -23 -6 -109 l0 -122 l221 0 q65 -2 137 12 l0 -127 q-84 14 -135 12 l-223 0 l0 -887 l315 0 q63 -2 147 13 l0 -127 q-84 14 -147 12 l-1524 0 q-61 2 -149 -12 ZM702 526 l0 -254 l654 0 l0 254 l-654 0 ZM702 854 l0 -229 l654 0 l0 229 l-654 0 ZM702 1159 l0 -207 l654 0 l0 207 l-654 0 ZM809 150 l84 -95 q17 -19 17 -28 q0 -3 -1 -4 q0 -7 -39 -15 q-43 -6 -96 -45 q-199 -139 -465 -276 l-108 125 q258 63 608 338 ZM1171 61 l82 99 q277 -131 590 -305 l-74 -125 q-253 180 -598 331 Z" /><glyph glyph-name="" unicode="&#x5177;" d="M1579 1520 q-8 -80 -8 -168 q0 -13 0 -19 l0 -993 l190 0 q66 0 160 12 l0 -127 q-90 13 -160 13 l-1482 0 q-70 0 -170 -13 l0 127 q92 -12 170 -12 l184 0 l0 991 q2 68 -12 189 q116 -13 188 -13 l762 0 q67 -2 178 13 ZM578 532 l0 -192 l878 0 l0 192 l-878 0 ZM578 823 l0 -192 l878 0 l0 192 l-878 0 ZM578 1114 l0 -192 l878 0 l0 192 l-878 0 ZM578 1212 l878 0 l0 193 l-878 0 l0 -193 ZM739 221 l105 -96 q16 -16 12 -25 q-6 -10 -31 -12 q-39 -2 -88 -43 q-143 -123 -489 -350 q-55 63 -123 106 q371 152 614 420 ZM1171 88 l82 109 q320 -174 621 -373 l-90 -119 q-281 225 -613 383 Z" /><glyph glyph-name="" unicode="&#x517b;" d="M772 645 l-391 0 q-100 0 -158 -12 l0 127 q51 -12 158 -12 l453 0 q38 67 69 172 l-307 0 q-100 0 -160 -13 l0 127 q56 -12 160 -12 l334 0 q16 84 22 172 l-477 0 q-90 0 -160 -12 l0 127 q45 -13 160 -13 l350 0 q-108 119 -233 201 l78 88 q129 -88 264 -215 l-64 -74 l301 0 q119 142 181 289 l149 -82 q19 -10 15 -20 q-7 -8 -33 -10 q-60 -3 -94 -64 q-29 -47 -84 -113 l299 0 q106 0 159 13 l0 -127 q-69 12 -159 12 l-533 0 q-10 -109 -24 -172 l432 0 q102 0 159 12 l0 -127 q-59 13 -159 13 l-453 0 q-18 -84 -59 -172 l733 0 q98 0 158 12 l0 -127 q-62 12 -158 12 l-367 0 q226 -272 596 -377 q-71 -47 -114 -121 q-240 123 -371 240 q-31 -18 -31 -119 l0 -428 q0 -90 12 -162 l-139 0 q12 60 12 162 l0 430 q0 107 -12 170 l127 -24 q-117 92 -211 229 l-289 0 q-71 -123 -174 -207 l123 -30 q25 -7 27 -19 q0 -12 -25 -18 q-37 -27 -41 -111 q8 -231 -61 -340 q-64 -119 -285 -264 q-39 57 -127 117 q223 49 301 190 q61 103 61 299 q0 68 -7 144 q-269 -193 -486 -263 q-41 78 -96 129 q407 76 649 373 Z" /><glyph glyph-name="" unicode="&#x5185;" d="M1784 1204 q-12 -88 -12 -176 l0 -1026 q6 -180 -72 -227 q-66 -56 -348 -76 q-23 92 -64 180 q114 -8 181 -8 q95 0 124 14 q62 15 56 125 l0 1071 l-564 0 q-10 -127 -24 -243 q248 -279 465 -559 l-137 -109 q-140 231 -367 512 q-117 -358 -412 -573 q-59 55 -141 114 q453 185 492 858 l-560 0 l0 -1173 q0 -82 13 -187 l-144 0 q13 87 13 187 l0 1122 q0 86 -13 174 q99 -12 189 -12 l504 0 q0 162 -2 231 q-5 76 -13 146 l166 -15 q39 -2 39 -14 q2 -10 -29 -39 q-39 -31 -37 -117 q0 -100 0 -192 l504 0 q90 0 193 12 Z" /><glyph glyph-name="" unicode="&#x518d;" d="M106 328 l0 127 q95 -13 179 -13 l153 0 l0 547 q0 74 -12 178 q96 -12 186 -12 l381 0 l0 238 l-626 0 q-74 0 -179 -13 l0 127 q99 -12 179 -12 l1384 0 q86 0 170 12 l0 -127 q-86 13 -170 13 l-643 0 l0 -238 l399 0 q99 0 189 12 q-13 -92 -13 -178 l0 -547 l121 0 q78 0 170 13 l0 -127 q-86 12 -170 12 l-121 0 l0 -422 q3 -102 -59 -135 q-57 -39 -246 -51 q-22 88 -65 162 q105 -16 163 -16 q38 0 52 7 q45 9 41 95 l0 360 l-1016 0 l0 -428 q0 -80 12 -186 l-139 0 q12 100 12 186 l0 428 l-153 0 q-80 0 -179 -12 ZM553 698 l0 -256 l440 0 l0 256 l-440 0 ZM553 1053 l0 -252 l440 0 l0 252 l-440 0 ZM1108 698 l0 -256 l461 0 l0 256 l-461 0 ZM1108 1053 l0 -252 l461 0 l0 252 l-461 0 Z" /><glyph glyph-name="" unicode="&#x5199;" d="M201 133 l0 127 q96 -12 157 -12 l889 0 q66 2 174 12 l0 -127 q-102 10 -168 12 l-891 0 q-65 -2 -161 -12 ZM592 1233 l160 -21 q24 -4 26 -12 q2 -10 -16 -29 q-49 -45 -47 -88 l-4 -69 l747 0 q62 0 174 12 l0 -123 q-98 10 -168 12 l-759 0 l-23 -286 l903 0 q86 2 164 12 q-2 -22 -8 -68 q-8 -75 -10 -112 q-21 -350 -31 -463 q-6 -125 -84 -170 q-70 -47 -309 -74 q-7 88 -56 164 q100 -13 163 -13 q68 0 93 15 q60 19 74 144 q14 73 33 462 l-909 0 q-52 0 -148 -10 q-10 -2 -14 -2 q18 113 22 156 l33 411 q2 47 -6 152 ZM1847 1483 q-10 -101 -12 -158 l0 -41 q2 -72 12 -174 l-139 0 q10 92 12 170 l0 88 l-1372 0 l0 -92 q2 -76 12 -174 l-143 0 q10 106 12 170 l0 47 q-2 72 -12 164 q90 -10 184 -13 l1256 0 q45 0 190 13 Z" /><glyph glyph-name="" unicode="&#x51a0;" d="M463 616 l-94 0 q-99 0 -179 -12 l0 123 q64 -12 179 -12 l479 0 q129 0 203 12 l0 -125 q-35 6 -76 8 q-33 2 -115 2 l0 -620 q-2 -82 131 -84 q13 0 35 0 q141 -4 232 -4 q242 0 368 20 q170 25 189 219 q51 -65 127 -82 q-82 -233 -259 -243 q-258 -30 -494 -30 q-103 0 -190 5 q-168 8 -206 55 q-48 37 -43 191 l0 577 l-166 0 q2 -559 -363 -874 q-63 66 -131 90 q356 143 373 784 ZM348 1077 l-139 0 q12 62 12 172 l0 54 q0 81 -12 149 q61 -12 153 -12 l1328 0 q98 0 159 12 q-12 -47 -12 -143 l0 -66 q0 -106 12 -168 l-139 0 q12 60 12 160 l0 102 l-1386 0 l0 -90 q0 -125 12 -170 ZM971 1114 l0 -123 q-68 13 -180 13 l-234 0 q-100 0 -168 -13 l0 123 q74 -12 174 -12 l228 0 q120 0 180 12 ZM1157 891 l332 0 l0 172 q0 102 -12 176 l161 -31 q27 -6 29 -12 q2 -6 -18 -20 q-47 -23 -45 -162 l0 -123 l106 0 q131 0 195 12 l0 -123 q-70 13 -195 13 l-106 0 l0 -549 q2 -94 -9 -123 q-8 -39 -36 -60 q-41 -38 -273 -51 q8 72 -53 162 q122 -26 178 -26 q23 0 33 4 q47 8 45 90 l0 553 l-332 0 q-102 0 -172 -13 l0 123 q55 -12 172 -12 ZM1182 690 q98 -123 176 -268 l-84 -62 q-92 162 -176 269 l84 61 Z" /><glyph glyph-name="" unicode="&#x51b3;" d="M98 -49 q234 356 348 739 q48 -69 111 -110 q-178 -394 -301 -709 l-158 80 ZM139 1294 l92 93 q177 -156 332 -326 l-98 -100 q-143 178 -326 333 ZM412 -184 q506 200 643 731 l-291 0 q-64 2 -168 -12 l0 127 q100 -13 168 -13 l309 0 q23 166 33 473 l-248 0 q-72 0 -168 -12 l0 127 q96 -12 168 -12 l248 0 q4 141 -14 346 l170 -12 q30 -3 34 -13 q2 -12 -22 -33 q-39 -36 -41 -106 q0 -76 0 -111 q0 -41 -2 -71 l328 0 q71 -2 170 12 q-9 -45 -15 -96 q0 -4 0 -6 q-8 -82 -43 -486 l86 0 q72 0 168 13 l0 -127 q-96 12 -168 12 l-518 0 q217 -547 711 -684 q-86 -60 -140 -146 q-469 281 -655 711 q-117 -395 -598 -747 q-49 77 -145 135 ZM1202 649 l346 0 q17 162 39 473 l-356 0 q-10 -282 -29 -473 Z" /><glyph glyph-name="" unicode="&#x51b5;" d="M100 109 q285 282 451 596 q31 -78 74 -140 q-219 -278 -387 -545 l-138 89 ZM184 1341 l90 99 q162 -137 330 -305 l-92 -101 q-166 178 -328 307 ZM768 1479 q100 -13 174 -13 l588 0 q69 0 174 13 q-12 -76 -12 -154 l0 -477 q0 -78 12 -170 q-86 12 -178 12 l-94 0 l0 -686 q0 -67 47 -76 q30 -4 104 -6 q88 -2 113 2 q123 25 123 215 q59 -53 131 -94 q-68 -237 -238 -233 q-60 -4 -104 -4 q-104 0 -199 16 q-94 22 -92 147 l0 719 l-211 0 q-8 -436 -123 -618 q-102 -185 -448 -344 q-58 65 -134 114 q344 88 465 275 q117 165 117 484 q0 46 -2 89 l-43 0 q-76 0 -170 -12 q12 92 12 172 l0 463 q0 76 -12 166 ZM895 1368 l0 -580 l682 0 l0 580 l-682 0 Z" /><glyph glyph-name="" unicode="&#x51b7;" d="M63 12 q218 187 416 570 q31 -68 92 -119 q-182 -264 -376 -557 l-132 106 ZM129 1276 l98 94 q162 -137 322 -299 l-115 -102 q-131 170 -305 307 ZM1124 1602 l150 -58 q20 -8 20 -16 q0 -10 -20 -23 q-23 -12 -41 -41 q330 -497 788 -598 q-73 -47 -129 -145 q-444 225 -731 633 q-194 -398 -606 -695 q-70 72 -160 117 q518 213 729 826 ZM1296 -70 q93 -75 211 -196 l-131 -96 q-176 247 -526 471 l102 98 q164 -125 250 -195 q203 203 367 443 l-752 0 q-63 -2 -166 -13 l0 127 q92 -10 166 -12 l801 0 q84 2 199 12 q-236 -331 -521 -639 ZM985 922 l107 82 q163 -138 301 -289 l-113 -99 q-125 172 -295 306 Z" /><glyph glyph-name="" unicode="&#x51c6;" d="M94 31 q271 284 459 598 q25 -64 78 -117 q-182 -244 -412 -584 q-59 72 -125 103 ZM154 1300 l100 95 q178 -156 293 -279 l-101 -88 q-133 146 -292 272 ZM387 774 q348 213 561 821 l129 -55 q31 -12 29 -24 q0 -11 -35 -21 q-18 -6 -53 -72 q-4 -8 -6 -12 q-43 -82 -105 -211 l836 0 q100 0 166 12 l0 -122 q-80 12 -166 12 l-309 0 l0 -297 l211 0 q98 0 167 12 l0 -123 q-71 13 -167 13 l-211 0 l0 -312 l211 0 q79 0 167 13 l0 -123 q-71 12 -167 12 l-211 0 l0 -322 l352 0 q94 0 166 13 l0 -119 q-72 12 -166 12 l-864 0 l0 -76 q0 -75 12 -124 l-139 0 q12 100 12 188 l0 1149 q-172 -230 -287 -328 q-43 33 -133 84 ZM922 -25 l397 0 l0 322 l-397 0 l0 -322 ZM1319 395 l0 312 l-397 0 l0 -312 l397 0 ZM922 1102 l0 -297 l397 0 l0 297 l-397 0 ZM1315 1595 q147 -127 262 -264 l-102 -98 q-129 166 -261 266 l101 96 Z" /><glyph glyph-name="" unicode="&#x51dd;" d="M61 -20 q166 317 256 718 q43 -55 109 -92 q-135 -387 -225 -686 l-140 60 ZM236 1444 q124 -154 247 -346 l-118 -74 q-97 188 -238 342 l109 78 ZM307 -162 q328 113 426 482 l-139 0 q-72 0 -168 -13 l0 119 q94 -12 168 -12 l156 0 q10 135 16 272 l-80 0 q-39 -96 -98 -211 q-64 33 -127 47 q160 195 184 428 l121 -43 q31 -10 29 -18 q2 -8 -29 -31 q-14 -12 -31 -45 q-2 -4 -4 -12 q-6 -13 -10 -21 l186 0 q86 0 174 13 l0 -119 q-92 12 -168 12 l-39 0 q-12 -194 -18 -272 l88 0 q84 0 176 12 l0 -119 q-90 13 -176 13 l-98 0 q-6 -33 -15 -62 q117 -115 211 -233 l-106 -78 q-59 104 -141 192 q-131 -237 -359 -405 q-53 59 -129 104 ZM684 1387 l0 -78 q236 106 363 194 l69 -108 q13 -18 13 -24 q0 -2 -1 -3 q-2 -6 -28 -6 q-66 -2 -131 -31 q-72 -35 -242 -108 q-29 -15 -43 -21 l0 -69 q-6 -62 51 -64 q29 -2 131 -2 q76 0 88 2 q105 16 117 174 q51 -49 119 -84 q-66 -186 -223 -194 q-33 -4 -133 -4 q-105 2 -138 6 q-129 16 -123 141 l0 279 q0 88 -12 202 l150 -24 q22 -4 26 -13 q2 -8 -14 -20 q-43 -21 -39 -145 ZM1200 582 l141 -23 q27 -4 27 -12 q2 -8 -18 -27 q-35 -28 -37 -102 q-2 -94 -13 -185 q48 -114 160 -233 l0 778 l-149 0 q-72 0 -176 -12 l0 119 q102 -13 176 -13 l491 0 q96 0 176 13 q-73 -166 -161 -338 q-64 26 -129 37 q69 96 118 194 l-235 0 l0 -364 l149 0 q88 0 174 12 l0 -119 q-88 13 -174 13 l-149 0 l0 -398 q111 -53 251 -53 q66 0 140 12 q-31 -71 -47 -153 q-520 39 -649 362 q-66 -201 -273 -401 q-53 55 -127 104 q195 94 271 277 q66 152 66 401 q0 53 -3 111 ZM1577 875 q-129 190 -274 329 l83 72 q76 -76 144 -154 q106 111 186 256 l-336 0 q-77 0 -172 -12 l0 119 q88 -12 172 -12 l371 0 q80 0 166 12 q-137 -236 -307 -453 q43 -49 71 -92 l-104 -65 Z" /><glyph glyph-name="" unicode="&#x51e0;" d="M78 -180 q319 133 438 336 q123 196 121 583 l0 529 q2 82 -12 178 q96 -12 172 -12 l471 0 q61 -2 166 12 q-15 -86 -13 -160 l0 -1290 q-2 -12 -2 -20 q0 -94 176 -85 q162 -6 193 50 q41 41 53 282 q80 -71 150 -86 q-47 -256 -113 -305 q-55 -63 -276 -59 q-193 -2 -244 41 q-60 37 -55 178 l0 1339 l-547 0 l0 -592 q3 -47 3 -93 q0 -609 -530 -933 q-51 62 -151 107 Z" /><glyph glyph-name="" unicode="&#x51e1;" d="M717 834 l90 86 q242 -205 459 -402 l-78 -100 q-201 190 -471 416 ZM53 -209 q285 189 365 375 q92 180 88 584 l0 514 q0 67 -12 174 q104 -13 182 -13 l614 0 q86 0 176 13 q-12 -86 -12 -164 l0 -1315 q-8 -90 88 -92 q42 -4 76 -4 q56 0 100 10 q144 41 133 399 q68 -61 140 -92 q-41 -409 -250 -432 q-47 -7 -114 -7 q-48 0 -97 3 q-211 4 -199 211 l0 1368 l-710 0 l0 -573 q6 -416 -72 -590 q-66 -183 -346 -465 q-66 55 -150 96 Z" /><glyph glyph-name="" unicode="&#x51fa;" d="M387 328 l0 -361 l545 17 l0 714 l-428 0 q-84 0 -166 -12 q12 92 12 172 l0 297 q0 96 -12 215 l149 -24 q27 -5 27 -11 q2 -4 -22 -30 q-25 -13 -23 -150 l0 -354 l463 0 l0 551 q0 94 -12 213 l147 -25 q35 -6 35 -14 q2 -8 -31 -37 q-22 -2 -20 -137 l0 -551 l460 0 l0 391 q0 90 -12 215 l148 -25 q32 -6 32 -14 q2 -8 -28 -33 q-23 -4 -21 -143 l0 -334 q0 -80 12 -172 q-102 12 -184 12 l-407 0 l0 -710 l571 16 l0 332 q0 96 -12 221 l157 -25 q23 -4 23 -14 q2 -10 -21 -26 q-30 -13 -28 -156 l0 -361 q0 -100 12 -213 l-143 0 q12 93 12 148 l-1182 -43 q-92 -4 -184 -19 q12 89 12 168 l0 312 q0 100 -12 209 l150 -25 q30 -4 28 -12 q2 -8 -26 -33 q-23 -2 -21 -139 Z" /><glyph glyph-name="" unicode="&#x51fb;" d="M954 743 l0 357 l-495 0 q-68 -2 -164 -12 l0 126 q111 -12 164 -12 l495 0 l0 197 q-2 71 -12 192 l148 -24 q26 -4 30 -13 q2 -8 -16 -24 q-33 -23 -31 -115 l0 -213 l504 0 q57 0 178 12 l0 -126 q-115 12 -178 12 l-504 0 l0 -357 l688 0 q60 0 174 13 l0 -127 q-116 12 -174 12 l-688 0 l0 -719 l477 17 l0 385 q0 61 -12 192 l148 -24 q28 -5 30 -13 q4 -6 -16 -22 q-35 -29 -35 -117 l0 -453 q2 -82 12 -192 l-139 0 q10 86 12 149 l-1018 -45 q-6 0 -180 -20 q8 96 10 160 l0 378 q0 58 -12 195 l150 -25 q26 -4 26 -12 q4 -6 -16 -26 q-33 -33 -33 -115 l0 -432 l477 18 l0 721 l-686 0 q-67 -2 -162 -12 l0 127 q101 -13 162 -13 l686 0 Z" /><glyph glyph-name="" unicode="&#x51fd;" d="M1681 -137 l-1255 -33 q-74 -2 -180 -18 q10 90 12 165 l0 719 q-2 86 -12 201 l149 -20 q17 -6 17 -17 q0 -9 -13 -22 q-28 -17 -26 -152 l0 -758 l1308 35 l0 707 q-2 84 -12 196 l154 -20 q11 -6 11 -16 q0 -11 -15 -27 q-23 -17 -23 -144 l0 -755 q2 -78 12 -183 l-139 0 q10 70 12 142 ZM1094 1030 l0 -743 q4 -140 -52 -170 q-43 -39 -264 -58 q-12 86 -59 158 q98 -13 152 -13 q40 0 61 7 q49 12 47 88 l0 635 q-2 76 -12 170 q231 86 389 235 l-854 0 q-66 -2 -164 -12 l0 127 q92 -10 164 -12 l952 0 q92 2 197 12 q-260 -264 -557 -424 ZM514 256 l-102 113 q163 51 479 288 q2 -79 14 -133 q-203 -131 -391 -268 ZM479 926 l68 98 q198 -123 348 -227 l-72 -101 q-149 121 -344 230 ZM1126 524 l62 101 q203 -119 411 -273 l-86 -104 q-180 158 -387 276 ZM1229 694 q-27 58 -64 109 q193 86 396 250 l84 -103 q9 -12 9 -19 q0 -3 -2.5 -8 q-2.5 -5 -23.5 -3 q-4 1 -12 1 q-29 0 -68 -28 q-164 -109 -319 -199 Z" /><glyph glyph-name="" unicode="&#x5200;" d="M129 -168 q769 308 769 1329 q0 45 -1 80 l-467 0 q-59 0 -180 -12 l0 139 q108 -12 180 -12 l1149 0 q92 -2 193 10 q-17 -135 -23 -225 q-37 -649 -68 -1086 q-10 -184 -90 -243 q-73 -66 -317 -88 q-12 96 -78 188 q105 -17 174 -17 q73 0 105 19 q67 29 79 188 q45 523 68 1139 l-590 0 q15 -1075 -751 -1526 q-56 68 -152 117 Z" /><glyph glyph-name="" unicode="&#x5206;" d="M57 672 q467 262 643 852 l138 -54 q30 -10 28 -18 q2 -8 -28 -27 q-43 -20 -78 -104 q-211 -457 -570 -741 q-59 55 -133 92 ZM215 -172 q565 190 571 887 l-135 0 q-78 0 -170 -13 l0 127 q86 -12 170 -12 l670 0 q113 0 209 12 q-14 -100 -17 -190 l-18 -377 q-10 -323 -86 -395 q-63 -88 -338 -103 q-27 78 -74 158 q75 -7 140 -7 q133 0 168 36 q65 39 69 280 l21 484 l-477 0 q-23 -717 -580 -1004 q-51 62 -123 117 ZM1253 1587 q154 -579 713 -874 q-70 -35 -147 -103 q-482 348 -695 959 l129 18 Z" /><glyph glyph-name="" unicode="&#x5207;" d="M1200 1235 l-143 0 q-60 0 -162 -12 l0 127 q94 -13 156 -13 l669 0 q74 0 172 13 q-18 -181 -18 -277 q0 -422 -25 -1009 q-6 -164 -84 -224 q-71 -61 -290 -78 q-15 82 -70 160 q81 -9 133 -9 q87 0 123 21 q65 33 68 170 q20 457 20 1131 l-426 0 q2 -668 -127 -942 q-115 -291 -528 -567 q-43 73 -136 122 q402 166 543 469 q129 257 129 748 q0 71 -4 170 ZM551 1403 l0 -332 l178 14 q102 9 180 25 l6 -127 q-54 5 -103 5 q-33 0 -83 -3 l-178 -14 l0 -719 q252 123 395 227 q-9 -49 -9 -94 q0 -25 3 -51 q-61 -43 -213 -123 q-127 -70 -254 -164 l-88 131 q53 55 51 156 l0 627 l-200 -17 q-50 -4 -134 -22 q-14 -2 -22 -4 l-12 129 q41 -2 78 -2 q50 0 85 4 l205 14 l0 334 q0 73 -12 178 l156 -21 q28 -2 30 -12 q2 -8 -20 -29 q-39 -36 -39 -110 Z" /><glyph glyph-name="" unicode="&#x5212;" d="M129 991 q152 4 156 4 l164 19 q-21 176 -31 358 q-6 82 -19 178 l154 -18 q31 -2 33 -10 q2 -6 -21 -25 q-30 -18 -28 -106 q-2 -199 20 -365 l467 55 q55 7 147 31 q7 -68 19 -125 q-29 -2 -74 -4 q-49 -2 -86 -4 l-459 -49 q29 -334 142 -619 q172 209 250 488 l135 -56 q32 -14 32 -24 q3 -10 -28 -23 q-41 -12 -66 -65 q-143 -281 -268 -430 q70 -166 227 -303 q35 -33 62 -33 q34 0 55 55 q35 72 41 189 q39 -37 143 -84 q-32 -99 -71 -181 q-52 -115 -137 -115 q-60 0 -138 60 q-166 129 -262 313 q-151 -161 -393 -333 q-66 63 -145 102 q247 76 483 340 q-117 285 -172 704 l-176 -26 q-4 0 -140 -31 q-8 94 -16 133 ZM989 1176 q-141 137 -268 235 l78 86 q112 -88 268 -229 l-78 -92 ZM1444 248 l-139 0 q12 119 12 170 l0 710 q0 52 -12 195 l149 -25 q25 -4 27 -14 q4 -8 -13 -24 q-34 -39 -36 -113 l0 -725 q2 -62 12 -174 ZM1485 -305 q-29 102 -80 172 q96 -18 167 -18 q160 0 148 102 l0 1438 q0 63 -12 194 l152 -24 q26 -5 30 -15 q4 -8 -16 -24 q-35 -33 -35 -125 l0 -1475 q4 -121 -63 -158 q-62 -43 -291 -67 Z" /><glyph glyph-name="" unicode="&#x5217;" d="M1034 1348 l-360 0 q-29 -136 -76 -304 l340 0 q70 -2 158 13 q-23 -1047 -858 -1379 q-48 76 -121 132 q475 135 665 485 q-149 151 -315 276 l92 103 q131 -105 289 -254 q90 164 119 522 l-408 0 q-143 -305 -364 -506 q-68 60 -132 99 q379 208 478 813 l-242 0 q-74 2 -162 -13 l0 127 q86 -14 158 -12 l735 0 q109 -2 174 12 l0 -127 q-61 15 -170 13 ZM1454 211 l-139 0 q14 82 12 172 l0 770 q2 80 -12 197 l149 -21 q21 -4 23 -14 q-2 -12 -23 -22 q-22 -11 -22 -122 l0 -786 q-2 -88 12 -174 ZM1456 -293 q-18 105 -61 176 q112 -17 176 -17 q42 0 63 7 q60 12 56 86 l0 1444 q0 86 -13 194 l168 -20 q15 -2 17 -12 q0 -13 -15 -23 q-41 -26 -39 -121 l0 -1501 q2 -117 -71 -158 q-74 -47 -281 -55 Z" /><glyph glyph-name="" unicode="&#x5219;" d="M225 -279 q-49 60 -123 119 q371 152 447 387 q51 127 61 336 q4 73 4 147 q0 166 -16 421 l156 -23 q20 -4 22 -12 q-2 -13 -22 -27 q-35 -22 -31 -127 q2 -87 2 -159 q0 -474 -76 -631 q-67 -201 -424 -431 ZM948 444 l0 895 l-549 0 l0 -931 q0 -82 13 -181 l-140 0 q13 97 13 181 l0 874 q0 82 -13 172 q99 -12 187 -12 l440 0 q90 0 176 12 q-12 -92 -12 -170 l0 -840 q0 -77 12 -182 l-139 0 q12 98 12 182 ZM713 145 l82 95 q198 -156 409 -336 l-96 -101 q-152 154 -395 342 ZM1331 1423 l150 -24 q24 -4 28 -14.5 q4 -10.5 -14 -24.5 q-37 -31 -37 -131 l0 -844 q0 -84 12 -182 l-139 0 q12 104 12 182 l0 844 q0 90 -12 194 ZM1509 -305 q-20 90 -63 172 q109 -18 175 -18 q38 0 58 6 q58 14 56 90 l0 1444 q0 92 -13 200 l154 -24 q25 -4 27 -13 q4 -8 -15 -26 q-41 -35 -39 -137 l0 -1473 q4 -127 -57 -162 q-53 -39 -283 -59 Z" /><glyph glyph-name="" unicode="&#x521b;" d="M76 858 q397 285 592 735 l145 -53 q27 -8 27 -18.5 q0 -10.5 -25 -22.5 q-29 -14 -49 -49 q235 -162 510 -367 q-49 -47 -90 -120 q-244 225 -494 391 q-256 -373 -469 -578 q-71 51 -147 82 ZM395 885 q119 -13 201 -13 l356 0 q4 0 144 11 q-17 -203 -31 -334 q-12 -125 -41 -164 q-23 -43 -109 -72 q-61 -22 -186 -28 q-14 84 -55 141 q41 -6 78 -6 q28 0 65 4 q78 8 103 39 q26 26 34 119 q0 6 13 188 l-449 0 l0 -741 q-2 -64 29 -80 q26 -21 129 -25 q56 -2 116 -2 q60 0 123 2 q201 -8 218 215 q65 -65 131 -90 q-84 -239 -308 -235 q-113 -6 -192 -6 q-82 0 -162 6 q-203 8 -194 176 l0 710 q0 64 -13 185 ZM1493 203 l-139 0 q12 131 12 182 l0 750 q0 63 -12 194 l157 -29 q21 -4 23 -10 q2 -8 -16 -24 q-37 -35 -37 -125 l0 -756 q0 -41 12 -182 ZM1487 -287 q-12 60 -64 168 q98 -16 163 -16 q168 0 160.5 -17.5 q-7.5 -17.5 -7.5 99.5 q0 6 -2 18 l0 1407 q0 51 -13 195 l152 -27 q31 -4 31 -12 q2 -8 -21 -29 q-33 -37 -35 -108 l0 -1461 q4 -116 -63 -153 q-62 -41 -301 -64 Z" /><glyph glyph-name="" unicode="&#x521d;" d="M86 420 q350 180 592 588 l-340 0 q-88 0 -186 -13 l0 127 q98 -12 186 -12 l354 0 q103 0 191 12 q-138 -245 -271 -407 l0 -82 q4 -4 17 -10 q55 -39 92 -66 q104 123 201 297 l110 -100 q25 -23 21 -29 q0 -8 -31 -18 q-59 -21 -90 -62 q-64 -80 -121 -147 q98 -70 184 -142 l-86 -120 q-129 133 -297 253 l0 -614 q0 -90 13 -178 l-140 0 q13 100 13 178 l0 696 q-140 -145 -275 -245 q-59 57 -137 94 ZM360 1475 l89 98 q190 -141 339 -283 l-86 -98 q-157 149 -342 283 ZM1456 -264 q-24 76 -84 166 q47 -2 79 -2 q187 0 216 47 q3 -16 6 -16 q29 0 86 1290 l-354 0 q0 -1153 -520 -1508 q-64 56 -144 99 q533 223 535 1409 l-150 0 q-84 0 -188 -13 l0 127 q100 -12 188 -12 l603 0 q86 0 172 12 q-15 -110 -19 -184 q-55 -1298 -94 -1298 q-4 0 -8 14 q-31 -86 -324 -131 Z" /><glyph glyph-name="" unicode="&#x5229;" d="M635 883 l-324 0 q-78 -2 -172 -13 l0 127 q88 -10 170 -12 l342 0 l0 371 q-237 -37 -424 -62 q-8 52 -53 127 q498 4 840 146 l84 -107 q20 -24 16 -30 q-1 -6 -15 -6 q-7 0 -14 1 q-61 5 -157 -16 q-76 -16 -158 -31 l0 -393 l240 0 q86 2 168 12 l0 -127 q-91 11 -168 13 l-240 0 l0 -64 q236 -174 365 -301 l-76 -119 q-125 154 -289 275 l0 -774 q2 -72 12 -185 l-143 0 q10 97 12 183 l0 766 q-155 -285 -397 -578 q-74 45 -150 70 q297 254 531 727 ZM1282 1243 l166 -20 q13 -3 13 -12 q0 -11 -21 -33 q-29 -21 -27 -148 l0 -663 q2 -76 12 -185 l-143 0 q10 105 12 185 l0 684 q-2 90 -12 192 ZM1688 1595 l165 -20 q15 -6 15 -15 q0 -11 -19 -28 q-30 -25 -30 -145 l0 -1381 q6 -182 -62 -217 q-51 -47 -340 -61 q-16 112 -49 166 q135 -16 211 -16 q56 0 72 9 q55 13 49 136 l0 1376 q-2 76 -12 196 Z" /><glyph glyph-name="" unicode="&#x522b;" d="M188 512 l-6 131 q105 -8 150 -8 l248 6 q9 82 9 146 q0 36 -3 69 l162 -27 q32 -4 32 -14 q2 -8 -26 -33 q-39 -34 -43 -94 l-2 -45 l270 10 q92 2 164 15 q-2 -19 -6 -60 q-11 -82 -11 -112 q0 -15 0 -43 q-2 -242 -18 -455 q-14 -123 -135 -174 q-121 -37 -219 -39 q-11 90 -56 160 q72 -14 126 -14 q45 0 83 10 q68 28 84 118 q15 353 23 492 l-314 -8 q-26 -584 -432 -858 q-47 65 -133 104 q420 188 443 752 l-246 -11 q-43 -2 -144 -18 ZM307 1470 q49 -12 137 -12 l508 0 q84 0 146 12 q-13 -45 -13 -141 l0 -291 q0 -88 13 -147 q-66 12 -146 12 l-483 0 q-104 0 -162 -12 q12 70 12 147 l0 279 q0 90 -12 153 ZM430 1001 l541 0 l0 359 l-541 0 l0 -359 ZM1489 260 l-139 0 q12 80 12 170 l0 686 q0 123 -12 193 l149 -27 q29 -4 31 -14 q4 -8 -17 -23 q-36 -24 -36 -112 l0 -701 q0 -100 12 -172 ZM1528 -291 q-21 115 -58 168 q117 -8 132 -8 q96 4 122 22 q31 15 29 66 l0 1413 q0 113 -12 195 l151 -27 q27 -4 29 -12 q4 -6 -14 -25 q-37 -41 -39 -112 l0 -1467 q8 -129 -82 -162 q-55 -26 -258 -51 Z" /><glyph glyph-name="" unicode="&#x5230;" d="M606 8 l0 361 l-217 0 q-59 0 -162 -13 l0 127 q97 -12 156 -12 l223 0 l0 105 q2 69 -12 180 l147 -21 q27 -2 29 -12 q4 -10 -16 -31 q-31 -30 -33 -112 l0 -109 l197 0 q61 -2 174 12 l0 -127 q-111 15 -168 13 l-203 0 l0 -346 q252 18 446 67 q-22 -53 -37 -137 q-722 -72 -958 -137 l-61 166 q288 -5 495 26 ZM367 885 q362 12 594 37 q-89 108 -195 213 l100 79 q185 -196 336 -403 l-110 -96 q-35 63 -66 112 q-362 -30 -546.5 -53.5 q-184.5 -23.5 -262.5 -42.5 l-53 152 q90 12 137 80 q158 215 252 401 l-225 0 q-68 0 -174 -12 l0 127 q118 -13 174 -13 l641 0 q71 -2 174 13 l0 -127 q-99 12 -168 12 l-338 0 l63 -37 q23 -14 23 -22 q-2 -11 -29 -19 q-39 -10 -73 -59 q-125 -180 -254 -342 ZM1448 266 l-139 0 q12 105 12 172 l0 697 q0 71 -12 194 l147 -20 q25 -2 27 -13 q2 -8 -17 -30 q-30 -33 -30 -115 l0 -713 q0 -59 12 -172 ZM1493 -285 q-18 72 -70 162 q84 -9 137 -9 q54 0 76 9 q50 14 47 90 l0 1426 q0 71 -12 194 l150 -20 q24 -2 26 -12.5 q2 -10.5 -16 -32.5 q-31 -41 -33 -113 l0 -1487 q2 -117 -61 -158 q-56 -40 -244 -49 Z" /><glyph glyph-name="" unicode="&#x5236;" d="M416 1231 l266 0 l0 147 q2 101 -12 195 l157 -21 q23 -2 23 -12 q0 -10 -23 -29 q-32 -20 -30 -114 l0 -166 l293 0 q49 -2 129 12 l0 -123 q-82 15 -127 13 l-295 0 l0 -261 l333 0 q58 -2 127 13 l0 -123 q-69 14 -124 12 l-336 0 l0 -217 l272 0 q59 -2 135 12 q-14 -69 -12 -131 l0 -370 q2 -91 -45 -119 q-43 -33 -197 -49 q-10 73 -63 151 q54 -10 93 -10 q104 0 101 72 l0 346 l-284 0 l0 -602 q-2 -68 12 -140 l-139 0 q14 76 12 138 l0 604 l-272 0 l0 -463 q-2 -64 12 -129 l-135 0 q14 65 12 129 l0 444 q2 56 -12 129 q78 -14 145 -12 l250 0 l0 217 l-403 0 q-50 2 -129 -12 l0 123 q69 -15 124 -13 l408 0 l0 261 l-317 0 q-43 -80 -84 -152 q-72 29 -148 47 q176 182 268 510 l146 -55 q22 -8 20 -17 q0 -6 -26 -20 q-41 -27 -60 -66 q-32 -73 -65 -149 ZM1511 268 l-139 0 q14 72 12 156 l0 678 q2 94 -12 194 l160 -20 q22 -4 22 -12 q2 -11 -20 -23 q-35 -24 -35 -123 l0 -698 q-2 -86 12 -152 ZM1505 -291 q-10 96 -61 158 q73 -3 113 -3 q94 0 124 11 q50 12 45 82 l0 1403 q3 94 -12 192 l158 -20 q24 -2 24 -11.5 q0 -9.5 -24 -29.5 q-31 -25 -31 -115 l0 -1454 q4 -110 -63 -149 q-64 -43 -273 -64 Z" /><glyph glyph-name="" unicode="&#x523b;" d="M1012 1147 l-398 0 l72 -33 q25 -10 23 -19.5 q-2 -9.5 -33 -25.5 q-27 -14 -58 -59 q-67 -101 -188 -269 q180 4 297 9 q82 104 133 256 l131 -74 q27 -17 25 -23 q0 -6 -35 -20 q-37 -17 -72 -70 q-225 -368 -592 -663 q-51 51 -129 96 q248 119 471 401 q-223 -16 -370 -57 l-53 135 q71 27 102 64 q141 182 213 352 l-248 0 q-78 0 -176 -12 l0 122 q98 -12 176 -12 l709 0 q86 0 182 12 l0 -122 q-94 12 -182 12 ZM754 1255 q-125 144 -265 263 l97 88 q129 -115 262 -256 l-94 -95 ZM1044 696 l132 -71 q26 -15 26 -23 q0 -10 -26 -16 q-50 0 -109 -97 q-96 -143 -201 -282 q148 -121 334 -289 l-100 -102 q-133 153 -312 309 q-266 -268 -550 -399 q-45 67 -107 125 q569 147 913 845 ZM1481 154 l-140 0 q13 100 13 184 l0 801 q0 82 -13 207 l150 -25 q27 -4 29 -15.5 q2 -11.5 -21 -29.5 q-33 -23 -31 -137 l0 -801 q0 -90 13 -184 ZM1507 -322 q-16 80 -53 160 q77 -16 127 -16 q133 0 121 100 l0 1467 q0 86 -12 213 l153 -27 q31 -4 29 -14 q2 -9 -27 -37 q-30 -23 -28 -135 l0 -1495 q4 -117 -56 -154 q-51 -41 -254 -62 Z" /><glyph glyph-name="" unicode="&#x524a;" d="M272 1432 q138 -150 254 -301 l-100 -87 q-121 170 -248 312 l94 76 ZM743 1360 l0 -399 l183 0 q90 0 184 12 q-12 -92 -12 -170 l0 -881 q2 -14 2 -26 q0 -151 -287 -158 q-22 74 -63 149 q75 -8 122 -8 q48 0 68 8 q45 11 43 72 l0 266 l-596 0 l0 -311 q0 -94 12 -188 l-139 0 q12 102 12 188 l0 877 q0 71 -12 182 q105 -12 191 -12 l178 0 l0 399 q0 80 -13 205 l154 -25 q27 -4 27 -16 q2 -11 -23 -29 q-31 -20 -31 -135 ZM387 862 l0 -219 l596 0 l0 219 l-596 0 ZM387 545 l0 -221 l596 0 l0 221 l-596 0 ZM831 1122 q152 166 228 355 l125 -84 q22 -15 20 -21 q0 -8 -28 -20 q-37 -15 -72 -68 q-64 -96 -160 -231 q-65 47 -113 69 ZM1468 217 l-139 0 q12 94 12 178 l0 680 q0 90 -12 197 l152 -25 q24 -4 26 -14 q4 -10 -14 -27 q-39 -30 -37 -131 l0 -680 q0 -84 12 -178 ZM1503 -283 q-33 78 -86 158 q83 -8 132 -8 q58 0 89 10 q60 19 58 86 l0 1421 q0 89 -13 197 l152 -25 q29 -4 31 -12 q4 -6 -17 -26 q-41 -37 -39 -134 l0 -1456 q5 -112 -53 -145 q-49 -39 -254 -66 Z" /><glyph glyph-name="" unicode="&#x524d;" d="M557 1509 l92 95 q154 -125 277 -252 l-88 -88 l354 0 q117 147 201 354 l155 -78 q25 -12 23 -22 q0 -11 -27 -17 q-61 -14 -96 -67 q-59 -86 -119 -170 l436 0 q70 0 174 12 l0 -127 q-96 12 -174 12 l-1482 0 q-72 0 -162 -12 l0 127 q94 -12 162 -12 l532 0 q-117 133 -258 245 ZM313 983 q101 -12 168 -12 l344 0 q70 0 164 12 q-12 -106 -12 -178 l0 -885 q2 -108 -53 -145 q-54 -43 -226 -60 q-12 78 -67 160 q104 -13 152 -13 q29 0 44 5 q41 10 39 76 l0 305 l-430 0 l0 -369 q0 -65 13 -174 l-136 0 q13 107 13 172 l0 928 q0 63 -13 178 ZM436 553 l0 -207 l430 0 l0 207 l-430 0 ZM436 872 l0 -221 l430 0 l0 221 l-430 0 ZM1366 125 l-139 0 q12 102 12 172 l0 352 q0 82 -12 187 l153 -21 q25 -2 25 -12 q2 -6 -16 -29 q-37 -39 -35 -115 l0 -360 q0 -78 12 -174 ZM1364 -322 q-6 80 -55 162 q104 -14 163 -14 q44 0 68 8 q57 12 55 88 l0 928 q0 84 -12 194 l156 -20 q26 -2 28 -12 q2 -8 -18 -29 q-37 -41 -39 -117 l0 -972 q4 -130 -57 -160 q-51 -39 -289 -56 Z" /><glyph glyph-name="" unicode="&#x5251;" d="M100 866 q392 234 594 713 l144 -57 q18 -9 16 -15 q-2 -6 -27 -16 q-20 -6 -41 -41 q11 -6 33 -20 q307 -193 506 -340 l-88 -119 q-227 213 -512 375 q-129 -201 -305 -402 q53 -10 133 -8 l424 0 q113 0 174 12 l0 -123 q-10 2 -31 2 q-86 11 -137 11 l-430 0 q-55 0 -145 -11 q-13 -2 -19 -2 l0 93 q-53 -56 -141 -138 q-49 49 -148 86 ZM203 -70 q268 4 618 60 q150 346 213 725 l146 -60 q30 -14 30 -26 q-2 -15 -34 -29 q-27 -16 -48 -70 q-98 -292 -190 -524 q178 21 373 78 q-19 -66 -27 -141 q-657 -86 -1010 -170 l-71 157 ZM420 631 q115 -277 184 -508 l-129 -45 q-59 254 -178 510 l123 43 ZM612 698 l117 37 q82 -233 123 -426 l-123 -39 q-39 228 -117 428 ZM1520 211 l-140 0 q15 92 13 156 l0 761 q0 103 -11 170 q-2 11 -2 15 l152 -21 q24 -4 27 -14 q4 -12 -15 -31 q-37 -37 -37 -127 l0 -760 q0 -59 13 -149 ZM1536 -299 q-14 92 -55 162 q20 -2 55 -4 q43 -4 86 -4 q14 -1 27 -1 q124 0 117.5 -4.5 q-6.5 -4.5 -6.5 83.5 q0 11 -1 18 l0 1421 q0 58 -12 172 l158 -20 q22 -2 26 -13 q2 -8 -16 -26 q-37 -41 -41 -98 l0 -1467 q4 -121 -57 -153 q-52 -39 -281 -66 Z" /><glyph glyph-name="" unicode="&#x5267;" d="M43 -106 q227 296 219 813 l0 628 q0 60 -12 174 q94 -14 160 -12 l628 0 q74 0 168 12 q-10 -94 -10 -159 l0 -144 q-2 -63 12 -149 q-80 12 -155 12 l-676 0 l0 -272 l364 0 q4 114 -12 227 l152 -16 q26 -2 28 -13 q2 -8 -18 -30 q-31 -31 -35 -168 l283 0 q71 0 174 12 l0 -127 q-96 12 -168 12 l-289 0 l-10 -252 l172 0 q74 0 164 13 q-13 -99 -13 -162 l0 -346 q0 -64 13 -142 l-135 0 q10 54 12 101 l-486 0 q2 -55 13 -133 l-133 0 q12 88 12 157 l0 361 q0 65 -12 164 q88 -13 168 -13 l112 0 l8 252 l-366 0 q4 -499 -207 -862 q-45 41 -125 62 ZM377 1399 l0 -232 l704 0 l0 232 l-704 0 ZM575 344 l0 -344 l484 0 l0 344 l-484 0 ZM1532 203 l-139 0 q12 104 12 178 l0 797 q0 73 -12 192 l153 -20 q25 -2 27 -15 q2 -10 -17 -28 q-36 -35 -36 -115 l0 -811 q0 -74 12 -178 ZM1499 -291 q-8 78 -47 154 q88 -16 145 -16 q142 0 132 90 l0 1462 q0 78 -13 194 l158 -20 q24 -4 26.5 -13.5 q2.5 -9.5 -18.5 -29.5 q-37 -37 -39 -115 l0 -1507 q2 -113 -69 -152 q-70 -43 -275 -47 Z" /><glyph glyph-name="" unicode="&#x5269;" d="M94 -57 q348 172 594 565 l0 524 l-387 0 q-59 0 -164 -12 l0 119 q96 -13 158 -13 l393 0 l0 191 q-211 -23 -385 -33 q-24 68 -70 131 q104 -11 211 -11 q135 0 293 17 q254 31 383 99 l74 -123 q10 -16 10 -24 q0 -3 -3 -6 q-3 -3 -9 -3 q-6 0 -27 4 q-26 5 -50 5 q-30 0 -71 -7 q-118 -20 -245 -35 l0 -205 l334 0 q65 2 174 13 l0 -119 q-105 12 -168 12 l-340 0 l0 -596 q225 -139 510 -358 q-45 -55 -82 -119 q-258 248 -428 344 l0 -434 q2 -59 12 -174 l-135 0 q12 113 12 172 l0 430 q-256 -293 -457 -451 q-53 62 -137 97 ZM426 463 q-197 -39 -268 -66 l-52 133 q31 -2 60 -2 q107 0 260 21 l0 149 l-139 0 q-74 0 -123 -10 l0 111 q53 -11 117 -11 l145 0 l0 50 q0 37 -12 131 l137 -17 q14 -2 16 -10 q2 -8 -10 -20 q-22 -15 -20 -88 l0 -322 q0 -68 8 -141 l-127 0 q6 47 8 92 ZM1268 860 l63 -108 q3 -7 3 -11 q0 -4 -3 -6 q-8 -4 -26 -2 q-10 2 -20 2 q-25 0 -60 -10 q-41 -10 -152 -31 l0 -121 q4 -59 70 -63 q63 4 88 63 q12 31 22 99 q41 -41 115 -66 q-45 -121 -92 -164 q-43 -43 -123 -39 q-115 3 -147 29 q-37 27 -35 111 l0 268 q0 55 -13 162 l144 -21 q18 -2 20 -10 q2 -4 -12 -20 q-39 -41 -37 -107 l0 -37 q117 21 195 82 ZM1427 1290 l156 -24 q21 -4 23 -12.5 q2 -8.5 -17 -26.5 q-39 -37 -39 -129 l0 -658 q2 -55 13 -172 l-136 0 q13 117 13 170 l0 658 q-2 75 -13 194 ZM1501 -276 q-24 81 -69 161 q107 -10 163 -10 q54 0 78 8 q60 15 58 82 l0 1417 q-2 86 -13 195 l150 -25 q28 -4 30 -12 q5 -8 -16 -27 q-37 -36 -37 -120 l0 -1463 q2 -106 -67 -145 q-64 -43 -277 -61 Z" /><glyph glyph-name="" unicode="&#x529b;" d="M147 -199 q684 283 715 1184 l-385 -10 q-96 0 -188 -21 l-8 136 q38 -9 69 -9 q14 -1 39 -1 q25 0 62 1 l415 9 q-2 389 -16 499 l164 -24 q30 -4 30 -17 q3 -10 -28 -35 q-21 -24 -23 -106 q0 -147 -8 -315 l563 16 q99 0 187 16 q-17 -90 -58 -999 q-4 -258 -80 -309 q-57 -66 -368 -82 q-2 78 -49 170 q104 -20 175 -20 q190 0 191 130 q45 625 51 994 l-614 -17 q-31 -868 -696 -1306 q-56 71 -140 116 Z" /><glyph glyph-name="" unicode="&#x529f;" d="M121 109 q139 18 375 92 l0 942 l-185 0 q-100 0 -161 -12 l0 126 q53 -12 155 -12 l422 0 q107 0 174 12 l0 -126 q-63 10 -168 12 l-123 0 l0 -910 q168 56 326 136 q-18 -80 -14 -162 q-35 -10 -105 -33 q-414 -133 -627 -213 q-18 66 -69 148 ZM1018 1069 l184 12 q0 43 -2 328 q0 76 -10 162 l180 -17 q23 -2 21 -14 q-2 -12 -27 -31 q-39 -32 -37 -151 q0 -8 -6 -275 l371 19 q43 2 184 22 q-6 -82 -8 -170 q-2 -47 -4 -75 q-6 -129 -17 -463 q-8 -266 -14 -396 q-4 -169 -86 -223 q-78 -59 -328 -71 q-4 88 -47 170 q81 -9 142 -9 q77 0 114 15 q76 24 80 112 q14 242 31 754 q6 158 8 229 l-428 -20 q4 -57 4 -126 q0 -726 -616 -1160 q-52 49 -150 102 q223 103 410 336 q230 273 230 767 q0 43 -1 73 l-152 -8 q-4 0 -10 -3 q-41 -2 -157 -20 l-9 139 q98 -9 134 -9 q11 0 16 1 Z" /><glyph glyph-name="" unicode="&#x52a0;" d="M1235 1292 q98 -12 162 -12 l321 0 q68 -2 160 12 q-14 -102 -12 -194 l0 -1086 q-2 -75 12 -170 l-139 0 q12 92 12 166 l0 51 l-389 0 l0 -75 q-2 -72 12 -170 l-139 0 q12 96 12 166 l0 1118 q2 82 -12 194 ZM1751 158 l0 1024 l-389 0 l0 -1024 l389 0 ZM285 1155 l223 0 q0 313 -8 424 l159 -18 q31 -2 29 -17 q0 -10 -31 -39 q-24 -20 -24 -106 q0 -82 0 -129 q-2 -56 -4 -115 l231 0 q88 -2 170 12 q-16 -73 -45 -1046 q-4 -174 -63 -225 q-54 -60 -248 -82 q-17 90 -70 161 q63 -11 112 -11 q61 0 91 18 q55 30 59 145 q25 432 33 930 l-272 0 q2 -907 -361 -1344 q-49 25 -168 58 q408 303 408 1286 l-217 0 q-51 2 -139 -13 l0 123 q81 -14 135 -12 Z" /><glyph glyph-name="" unicode="&#x52a1;" d="M66 578 q471 65 860 309 q-121 96 -242 227 l96 84 q72 -121 254 -240 q183 125 336 295 l-665 0 q-111 -145 -308 -344 q-69 52 -147 82 q356 240 512 615 l137 -56 q27 -10 25 -16 q0 -8 -31 -18 q-19 -11 -43 -41 q-39 -60 -88 -123 l688 0 q72 -2 176 12 q-123 -186 -477 -473 q334 -209 850 -240 q-96 -49 -137 -153 q-437 84 -832 315 q-278 -199 -827 -371 q-53 82 -137 136 ZM496 397 l389 6 q9 80 9 159 q0 44 -3 91 l164 -41 q32 -8 32 -16 q3 -6 -28 -31 q-19 -14 -27 -49 q-8 -53 -18 -113 l377 7 q112 2 206 12 q-16 -74 -43 -328 q-22 -246 -96 -299 q-59 -65 -340 -96 q-35 94 -74 156 q70 -5 117 -5 q90 0 139 15 q78 20 97 88 q28 88 53 360 l-457 -6 q-84 -461 -680 -633 q-28 78 -100 134 q543 83 651 499 l-350 -8 q-90 0 -176 -20 l-8 133 q84 -19 166 -15 Z" /><glyph glyph-name="" unicode="&#x52a8;" d="M799 754 l-275 0 l107 -52 q26 -12 22 -20 q-2 -8 -35 -20 q-34 -5 -69 -91 q-68 -145 -219 -436 q237 15 479 43 q-94 205 -174 342 l115 56 q133 -252 276 -566 l-119 -67 q-22 73 -53 133 q-571 -58 -647 -99 l-82 136 q94 39 143 139 q168 313 221 502 l-159 0 q-105 0 -217 -13 l0 127 q110 -14 211 -12 l473 0 q86 0 217 12 l0 -127 q-129 13 -215 13 ZM203 1245 l0 127 q94 -14 157 -12 l431 0 q79 -2 176 12 l0 -127 q-97 15 -170 12 l-430 0 q-70 3 -164 -12 ZM1126 1098 l162 6 q0 194 -2 289 q-2 98 -10 194 l158 -16 q32 -2 32 -12 q4 -7 -22 -33 q-33 -27 -31 -139 q0 -91 -2 -142 q0 -59 -4 -141 l268 10 q86 2 187 17 q-23 -271 -50 -1088 q0 -172 -63 -215 q-53 -53 -291 -80 q-33 111 -65 156 q82 -11 136 -11 q72 0 103 19 q58 25 64 154 q26 446 33 944 l-324 -11 q20 -931 -438 -1306 q-54 39 -152 76 q469 264 471 1228 l-127 -8 q-86 -4 -158 -20 l-8 137 q54 -9 102 -9 q16 0 31 1 Z" /><glyph glyph-name="" unicode="&#x52a9;" d="M297 117 l0 1179 q2 72 -12 146 q80 -15 139 -12 l332 0 q57 -3 141 12 q-14 -72 -12 -150 l0 -1069 q88 21 168 53 l-9 -137 q-843 -166 -872 -202 l-82 151 q109 8 207 29 ZM412 496 l0 -365 q110 12 358 68 l0 297 l-358 0 ZM412 899 l0 -305 l358 0 l0 305 l-358 0 ZM412 1327 l0 -330 l358 0 l0 330 l-358 0 ZM1112 1075 l180 6 q0 217 -4 314 q-6 96 -20 178 l166 -8 q47 -2 49 -15 q4 -12 -37 -45 q-29 -10 -27 -166 q0 -114 0 -256 l273 13 q92 4 192 22 q-24 -250 -43 -925 q-4 -316 -61 -365 q-39 -68 -314 -82 q-16 72 -77 174 q101 -17 165 -17 q59 0 86 15 q64 21 68 148 q25 397 39 925 l-326 -10 q9 -846 -547 -1282 q-96 63 -161 86 q567 293 577 1190 l-162 -6 q-86 0 -172 -17 l-6 133 q49 -8 78 -10 q14 -1 35 -1 q21 0 49 1 Z" /><glyph glyph-name="" unicode="&#x52b3;" d="M379 365 l0 127 q92 -11 168 -13 l323 0 q10 76 10 144 q0 68 -10 143 l160 -14 q19 -2 23 -13 q2 -10 -15 -24 q-30 -27 -39 -123 q-2 -12 -4 -57 q-2 -43 -2 -56 l426 0 q82 2 185 13 q-15 -91 -21 -166 l-18 -238 q-13 -194 -92 -260 q-72 -72 -314 -104 q-16 67 -76 155 q71 -5 117 -5 q126 0 168 28 q68 30 76 180 l24 295 l-485 0 q-55 -473 -727 -678 q-31 92 -86 145 q614 78 690 533 l-313 0 q-74 -2 -168 -12 ZM229 973 q95 -10 183 -12 l1261 0 q84 2 185 12 q-11 -92 -13 -174 l0 -23 q2 -67 13 -164 l-140 0 q11 86 13 162 l0 84 l-1375 0 l0 -88 q2 -78 13 -164 l-140 0 q11 88 13 164 l0 25 q-2 80 -13 178 ZM336 1354 l364 0 l0 49 q-2 84 -12 190 l158 -20 q14 -5 14 -15 q0 -10 -14 -24 q-33 -23 -31 -141 l0 -39 l430 0 l0 65 q-2 78 -12 189 l160 -21 q9 -5 9 -12 q0 -9 -13 -23 q-29 -28 -29 -143 l0 -55 l379 0 q84 2 162 12 l0 -131 q-84 10 -162 12 l-379 0 l0 -16 q2 -78 12 -170 l-139 0 q10 92 12 170 l0 16 l-430 0 l0 -33 q2 -77 12 -167 l-139 0 q10 92 12 167 l0 33 l-364 0 q-78 -2 -168 -12 l0 131 q96 -10 168 -12 Z" /><glyph glyph-name="" unicode="&#x52bf;" d="M150 932 q153 22 329 84 l0 223 l-155 0 q-50 0 -162 -12 l0 123 q100 -13 157 -13 l160 0 l0 78 q0 62 -12 197 l147 -27 q27 -4 31 -12 q4 -8 -14 -25 q-41 -37 -41 -114 l0 -97 l53 0 q62 2 172 13 l0 -123 q-90 10 -168 12 l-57 0 l0 -190 q57 18 182 75 q-10 -42 -10 -82 q0 -25 4 -51 q-66 -18 -158 -49 q-12 -4 -18 -6 l0 -250 q2 -108 -55 -147 q-54 -41 -230 -60 q-18 80 -63 154 q88 -15 139 -15 q34 0 53 7 q47 10 45 80 l0 192 q-153 -49 -272 -106 l-57 141 ZM1065 905 q-98 58 -178 96 l71 99 q33 -19 105 -60 q31 -16 49 -26 q16 37 33 157 q6 37 8 56 l-137 -10 q-41 -5 -98 -13 q-13 -2 -17 -2 l-6 125 q69 -9 104 -9 q11 0 19 1 l143 8 q4 121 4 168 q0 51 -8 117 l150 -29 q43 -8 43 -16 q4 -11 -29 -33 q-33 -8 -37 -135 l-4 -66 l229 13 q68 4 160 24 q-4 -22 -14 -100 q-4 -31 -4 -35 l-45 -498 q-3 -8 -3 -17 q0 -41 91 -38 q94 -6 112 31 q23 26 25 176 q61 -62 137 -70 q-33 -170 -82 -213 q-45 -49 -186 -47 q-213 -7 -213 128 q0 17 2 30 l51 532 l-268 -14 q-29 -188 -58 -279 q86 -55 148 -96 l-72 -115 q-63 54 -125 99 q-137 -201 -358 -318 q-59 76 -123 115 q248 55 381 264 ZM109 -160 q610 11 729 445 l-496 -15 q-82 -4 -166 -20 l-6 137 q92 -10 180 -10 l506 8 q16 78 12 156 l156 -27 q29 -4 31 -12 q4 -10 -19 -27 q-39 -22 -45 -88 l537 10 q10 0 164 17 q-2 -17 -9 -49 q-4 -31 -12 -86 q-6 -50 -14 -138 q-12 -127 -21 -182 q-4 -229 -413 -248 q-15 80 -74 166 q79 -12 141 -12 q181 0 219 102 q19 47 37 330 l-583 -10 q-76 -449 -754 -602 q-35 90 -100 155 Z" /><glyph glyph-name="" unicode="&#x52d2;" d="M250 231 l340 0 l0 164 l-189 0 q-67 -2 -159 -8 q8 80 8 145 l0 140 q-2 76 -8 157 q94 -8 161 -8 l187 0 l0 142 l-53 0 q-74 -2 -160 -9 q6 70 8 144 l0 131 l-92 0 q-62 -2 -143 -8 l0 110 q79 -6 143 -8 l92 0 l0 70 q-2 73 -8 166 l143 -21 q17 -2 17 -12 q0 -10 -17 -25 q-24 -18 -24 -114 l0 -64 l313 0 l0 72 q-2 65 -8 164 l143 -21 q15 -4 15 -13 q0 -9 -15 -24 q-24 -22 -24 -117 l0 -61 l73 0 q76 2 144 8 l0 -110 q-74 6 -144 8 l-73 0 l0 -129 q2 -72 8 -146 q-84 7 -158 9 l-70 0 l0 -142 l211 0 q80 2 162 8 q-6 -73 -8 -149 l0 -143 q2 -70 8 -150 q-88 6 -158 8 l-215 0 l0 -164 l277 0 q70 2 156 9 l0 -111 q-80 6 -156 8 l-277 0 l0 -272 q2 -80 9 -166 l-127 0 q8 102 8 166 l0 272 l-340 0 q-70 -2 -150 -8 l0 111 q76 -7 150 -9 ZM590 489 l0 238 l-230 0 l0 -238 l230 0 ZM496 1057 l313 0 l0 172 l-313 0 l0 -172 ZM700 727 l0 -238 l254 0 l0 238 l-254 0 ZM1343 985 l-169 -8 q-62 -6 -115 -16 l0 133 q78 -6 137 -9 l152 0 l0 291 q-2 76 -13 197 l158 -21 q16 -2 18 -14 q-2 -14 -18 -29 q-29 -12 -27 -145 l0 -274 l252 12 q92 6 185 24 q-17 -98 -21 -194 l-41 -877 q-2 -137 -84 -186 q-78 -53 -325 -84 q-21 86 -66 158 q88 -6 156 -6 q111 0 141 18 q59 18 59 149 l47 904 l-301 -15 q-12 -536 -106 -760 q-84 -233 -379 -493 q-70 68 -131 94 q291 180 391 428 q109 244 100 723 Z" /><glyph glyph-name="" unicode="&#x5305;" d="M436 963 q109 -13 162 -13 l504 0 q65 0 168 13 q-13 -99 -13 -164 l0 -252 q0 -51 13 -154 q-103 13 -168 13 l-539 0 l0 -392 q-12 -166 264 -159 l605 0 q223 -2 282 61 q68 51 68 262 q69 -65 160 -92 q-70 -231 -152 -281 q-43 -30 -115 -43 q-65 -10 -209 -10 l-661 0 q-211 0 -285 51 q-74 48 -71 189 l0 803 q0 61 -13 168 ZM563 848 l0 -340 l580 0 l0 340 l-580 0 ZM86 842 q393 266 541 737 l170 -68 q20 -8 18 -18 q-2 -10 -24 -18 q-39 -15 -60 -45 q-26 -43 -78 -125 l951 0 q51 0 153 12 q-16 -113 -18 -215 q-2 -47 -2 -160 q-4 -297 -15 -448 q-4 -170 -86 -224 q-75 -61 -311 -71 q-2 88 -57 161 q90 -12 152 -12 q74 0 110 17 q67 26 72 145 q18 303 22 692 l-1022 0 q-162 -241 -362 -459 q-62 62 -154 99 Z" /><glyph glyph-name="" unicode="&#x5316;" d="M76 651 q348 287 600 940 l151 -78 q21 -10 19 -16 q0 -6 -23 -16 q-45 -19 -90 -111 q-61 -127 -133 -254 l0 -1218 q2 -82 12 -193 l-139 0 q12 117 12 193 l0 1028 q-118 -189 -266 -373 q-63 55 -143 98 ZM1237 1360 l0 -723 q330 295 506 588 l125 -109 q20 -16 18 -23.5 q-2 -7.5 -28 -15.5 q-39 0 -113 -88 q-277 -315 -508 -514 l0 -461 q-4 -92 41 -108 q43 -25 215 -25 q172 0 229 25 q60 20 76 96 q14 64 25 180 q49 -45 147 -65 q-4 -19 -10 -43 q-10 -43 -18 -76 q-50 -231 -289 -229 q-84 -3 -148 -3 q-108 0 -211 7 q-170 16 -176 184 l0 430 q-137 -98 -303 -207 q-63 86 -121 129 q164 37 424 230 l0 827 q0 64 -12 195 l158 -21 q22 -2 22 -10 q2 -4 -16 -23 q-35 -28 -33 -147 Z" /><glyph glyph-name="" unicode="&#x5317;" d="M690 -74 l0 129 q-407 -121 -545 -192 q-41 90 -82 155 q197 17 627 150 l0 657 l-362 0 q-103 0 -166 -12 l0 119 q51 -12 166 -12 l362 0 l0 374 q0 121 -12 201 l149 -25 q33 -4 33 -12 q4 -8 -20 -26 q-35 -27 -35 -101 l0 -1405 q0 -6 0 -18 q-2 -105 8 -164 l-135 0 q12 80 12 182 ZM1284 1352 l0 -463 q275 49 498 201 l98 -127 q23 -29 21 -37 q0 -7 -10 -7 q-5 0 -17 3 q-11 2 -25 2 q-54 0 -149 -31 q-199 -70 -416 -111 l0 -762 q2 -110 78 -114 q8 0 24 0 q76 -4 135 -4 q119 0 171 16 q98 -6 131 260 q57 -65 151 -100 q-100 -279 -256 -283 q-89 -13 -191 -13 q-115 0 -245 17 q-115 19 -117 189 l0 1349 q0 140 -12 199 l154 -25 q32 -4 32 -12 q2 -6 -22 -29 q-37 -20 -33 -118 Z" /><glyph glyph-name="" unicode="&#x533a;" d="M240 1450 q104 -12 180 -12 l1177 0 q72 0 175 12 l0 -127 q-99 12 -177 12 l-1228 0 l0 -1427 l1333 0 q84 0 182 12 l0 -127 q-96 12 -182 12 l-1266 0 q-80 0 -194 -12 q12 94 12 158 l0 1317 q0 71 -12 182 ZM426 96 q348 172 633 512 q-262 269 -522 475 l92 93 q258 -220 508 -461 q176 239 284 555 l135 -72 q25 -12 23 -24.5 q-2 -12.5 -31 -26.5 q-35 -19 -78 -109 q-110 -221 -245 -415 q239 -238 450 -488 l-112 -119 q-179 267 -416 502 q-246 -291 -596 -530 q-51 61 -125 108 Z" /><glyph glyph-name="" unicode="&#x5341;" d="M1075 1370 l0 -559 l647 0 q58 2 199 16 l0 -139 q-154 17 -199 17 l-647 0 l0 -830 q2 -76 17 -190 l-148 0 q14 114 17 190 l0 830 l-701 0 q-78 -3 -176 -17 l0 139 q117 -14 176 -16 l701 0 l0 569 q-5 78 -17 197 l162 -21 q20 -4 20 -10 q2 -6 -16 -20 q-37 -21 -35 -156 Z" /><glyph glyph-name="" unicode="&#x5343;" d="M289 1384 q110 -7 218 -7 q579 0 1066 204 l92 -125 q16 -22 12 -28.5 q-4 -6.5 -32 -4.5 q-48 4 -123 -16 q-140 -37 -439 -92 l0 -584 l617 0 q82 0 201 17 l0 -136 q-117 17 -201 17 l-617 0 l0 -729 q0 -68 17 -191 l-152 0 q17 113 17 191 l0 729 l-637 0 q-82 0 -181 -17 l0 136 q99 -17 181 -17 l637 0 l0 563 q-285 -43 -596 -67 q-23 86 -80 157 Z" /><glyph glyph-name="" unicode="&#x5347;" d="M659 678 l-360 0 q-90 0 -190 -12 l0 131 q104 -13 190 -13 l360 0 l0 500 q-190 -43 -407 -80 q-29 70 -80 142 q469 6 823 190 l97 -106 q24 -29 20 -35 q0 -8 -35 -6 q-28 4 -135 -27 q-61 -16 -160 -43 l0 -535 l566 0 l0 584 q0 92 -13 197 l158 -21 q23 -2 25 -10 q2 -4 -19 -23 q-22 -20 -26 -43 q-7 -22 -7 -100 l0 -584 l326 0 q76 0 168 13 l0 -131 q-90 12 -168 12 l-326 0 l0 -782 q0 -93 13 -187 l-144 0 q13 84 13 187 l0 782 l-566 0 q17 -645 -530 -948 q-53 61 -150 112 q584 197 557 836 Z" /><glyph glyph-name="" unicode="&#x534a;" d="M270 752 l0 127 q109 -13 170 -13 l531 0 l0 578 q2 67 -13 174 l156 -21 q19 -2 21 -10 q2 -8 -15 -22 q-37 -29 -35 -123 l0 -576 l578 0 q70 0 178 13 l0 -127 q-104 12 -178 12 l-578 0 l0 -363 l682 0 q68 -2 154 13 l0 -127 q-88 12 -154 12 l-682 0 l0 -440 q0 -74 13 -195 l-140 0 q13 125 13 195 l0 440 l-647 0 q-62 0 -164 -12 l0 127 q104 -13 164 -13 l647 0 l0 363 l-531 0 q-55 0 -170 -12 ZM446 1417 q218 -198 359 -346 l-105 -106 q-147 178 -358 352 l104 100 ZM1587 1466 l129 -96 q13 -9 13 -19 q0 -3 -2.5 -9.5 q-2.5 -6.5 -26.5 -16.5 q-47 -18 -78 -57 q-117 -146 -252 -291 l-108 88 q211 199 325 401 Z" /><glyph glyph-name="" unicode="&#x534e;" d="M123 887 q440 317 549 674 l147 -78 q21 -10 21 -17 q2 -6 -21 -16 q-53 -20 -96 -90 q-23 -33 -61 -92 q-31 -43 -44 -64 l0 -592 q0 -51 13 -161 l-139 0 q10 96 12 161 l0 451 q-127 -129 -256 -258 q-72 63 -125 82 ZM354 276 l662 0 l0 60 q0 47 -12 184 l153 -20 q25 -2 25 -8 q2 -7 -19 -25 q-37 -16 -33 -154 l0 -37 l654 0 q57 0 168 13 l0 -127 q-119 12 -168 12 l-654 0 l0 -295 q0 -61 13 -172 l-139 0 q12 113 12 172 l0 295 l-666 0 q-67 0 -170 -12 l0 127 q121 -13 174 -13 ZM1114 1075 l0 283 q0 51 -12 190 l158 -20 q22 -2 22 -10 q2 -7 -18 -23 q-37 -22 -35 -154 l0 -213 q336 166 473 302 l110 -119 q11 -12 11 -20 q0 -3 -5.5 -7 q-5.5 -4 -43.5 -6 q-58 -8 -152 -66 q-117 -71 -393 -208 l0 -256 q-4 -78 45 -97 q43 -22 217 -24 q166 -4 223 22 q60 25 74 109 q10 51 10 108 q80 -37 154 -53 q-2 -6 -6 -18 q-21 -72 -35 -113 q-49 -184 -348 -172 q-168 2 -281 10 q-162 21 -168 170 l0 271 q-65 -25 -190 -72 q-58 -21 -84 -31 q-54 68 -107 111 q141 20 381 106 Z" /><glyph glyph-name="" unicode="&#x534f;" d="M416 1350 l0 -344 l47 0 q51 0 160 12 l0 -123 q-111 12 -160 12 l-47 0 l0 -1030 q2 -63 12 -188 l-143 0 q10 106 12 188 l0 1030 l-74 0 q-51 0 -160 -12 l0 123 q101 -10 160 -12 l74 0 l0 381 q-2 71 -12 172 l157 -23 q23 -4 23 -10 q0 -6 -19 -23 q-32 -14 -30 -153 ZM510 -192 q577 266 592 1234 l-242 -18 l-153 -23 l0 136 q92 -6 157 -6 l234 12 q2 52 2 101 q0 156 -19 310 l160 -16 q29 -4 31 -16.5 q2 -12.5 -21 -40.5 q-20 -29 -24 -103 q-2 -49 -4 -153 q-2 -54 -2 -78 l321 22 l125 17 l-82 -1190 q-6 -143 -78 -193 q-65 -53 -282 -77 q-13 82 -60 163 q86 -12 143 -12 q76 0 99 21 q55 26 63 198 l72 973 l-323 -22 q4 -936 -568 -1340 q-86 76 -141 101 ZM551 287 q129 151 217 477 l133 -66 q14 -6 12 -14 q-2 -6 -20 -16 q-21 -13 -39 -54 q-8 -18 -31 -73 q-75 -185 -125 -299 q-49 20 -147 45 ZM1784 729 q110 -246 198 -469 l-137 -72 q-86 285 -184 484 l123 57 Z" /><glyph glyph-name="" unicode="&#x5355;" d="M264 246 l715 0 l0 207 l-406 0 q-69 0 -174 -13 q13 109 13 174 l0 451 q0 63 -13 184 q109 -12 179 -12 l579 0 q129 168 238 381 l135 -72 q20 -10 16 -21.5 q-4 -11.5 -35 -23.5 q-32 -12 -57 -47 q-70 -96 -164 -217 l205 0 q72 0 188 12 q-12 -114 -12 -184 l0 -459 q0 -61 12 -166 q-98 15 -176 13 l-409 0 l0 -207 l659 0 q58 0 160 12 l0 -127 q-96 12 -160 12 l-659 0 l0 -301 q0 -75 12 -190 l-143 0 q12 123 12 190 l0 301 l-715 0 q-63 2 -164 -12 l0 127 q105 -12 164 -12 ZM526 797 l0 -242 l453 0 l0 242 l-453 0 ZM526 1135 l0 -240 l453 0 l0 240 l-453 0 ZM1098 797 l0 -242 l454 0 l0 242 l-454 0 ZM1552 1135 l-454 0 l0 -240 l454 0 l0 240 ZM528 1505 l84 95 q179 -130 310 -240 l-88 -100 q-117 118 -306 245 Z" /><glyph glyph-name="" unicode="&#x5356;" d="M125 199 l0 127 q117 -11 162 -13 l725 0 q32 93 49 303 q6 88 6 161 q0 92 -10 153 l157 -17 q29 -2 33 -10 q4 -4 -14 -22 q-35 -29 -37 -111 q-22 -278 -57 -457 l628 0 q43 0 156 13 l0 -127 q-102 12 -156 12 l-659 0 q-152 -322 -819 -543 q-41 74 -109 137 q557 78 783 406 l-676 0 q-49 -2 -162 -12 ZM195 975 l0 127 q124 -12 176 -12 l608 0 l0 180 l-524 0 q-70 -2 -164 -13 l0 127 q110 -10 166 -12 l522 0 q0 152 -12 236 l157 -21 q25 -4 25 -10 q2 -8 -19 -25 q-32 -22 -32 -92 q-4 -43 -4 -88 l467 0 q69 2 180 12 l0 -127 q-127 13 -180 13 l-467 0 l0 -180 l624 0 q43 0 172 12 q-67 -156 -229 -404 q-53 37 -139 56 q92 96 170 233 l-1319 0 q-70 0 -178 -12 ZM350 567 l68 101 q203 -105 434 -238 l-72 -108 q-241 155 -430 245 ZM483 807 l68 108 q174 -86 401 -215 l-73 -116 q-201 139 -396 223 ZM1157 39 l66 98 q295 -145 639 -329 l-66 -121 q-313 192 -639 352 Z" /><glyph glyph-name="" unicode="&#x535a;" d="M70 848 l0 127 q80 -10 153 -12 l113 0 l0 413 q-2 88 -12 183 l159 -21 q19 -2 17 -12 q0 -13 -19 -29 q-30 -31 -30 -137 l0 -397 l61 0 q66 0 150 12 l0 -127 q-87 12 -148 12 l-63 0 l0 -985 q2 -88 12 -184 l-139 0 q12 100 12 184 l0 985 l-113 0 q-57 0 -153 -12 ZM590 156 l0 127 q88 -13 162 -13 l776 0 q-2 76 -12 138 l133 -21 q12 66 12 121 l-371 0 q0 -47 13 -125 l-140 0 q13 72 13 125 l-336 0 q2 -76 12 -160 l-139 0 q12 98 12 158 l0 446 q0 72 -12 172 q90 -12 170 -12 l293 0 l0 133 l-398 0 q-71 0 -170 -12 l0 127 q92 -10 170 -12 l398 0 l0 43 q-2 84 -13 182 l156 -21 q18 -2 18 -14 q0 -10 -18 -27 q-27 -30 -29 -131 l0 -32 l316 0 q-76 59 -199 131 l86 104 q115 -72 205 -137 l-56 -98 l89 0 q73 0 161 12 l0 -127 q-84 12 -161 12 l-441 0 l0 -133 l340 0 q74 0 164 12 q-10 -86 -12 -161 l0 -443 q0 -65 12 -151 l-115 0 q2 -21 -26 -31 q-13 -8 -11 -68 l160 0 q72 0 158 13 l0 -127 q-84 10 -158 12 l-160 0 l0 -240 q7 -157 -49 -188 q-41 -41 -274 -59 q-21 83 -66 163 q117 -19 176 -19 q29 0 48 5 q55 12 51 90 l0 248 l-776 0 q-74 0 -162 -12 ZM840 754 l0 -144 l336 0 l0 144 l-336 0 ZM1176 1010 l-336 0 l0 -154 l336 0 l0 154 ZM1290 1010 l0 -154 l377 0 l0 154 l-377 0 ZM1290 754 l0 -144 l377 0 l0 144 l-377 0 ZM1186 -74 l-96 -90 q-97 115 -226 223 l86 88 q119 -104 236 -221 Z" /><glyph glyph-name="" unicode="&#x5361;" d="M100 758 l0 131 q99 -12 185 -12 l555 0 l0 512 q0 115 -13 225 l152 -20 q29 -4 30 -9 q3 -6 -18 -24 q-22 -19 -27.5 -50 q-5.5 -31 -5.5 -122 l0 -62 l517 0 q98 0 184 13 l0 -131 q-93 12 -184 12 l-517 0 l0 -344 l758 0 q91 0 199 12 l0 -131 q-99 12 -199 12 l-1431 0 q-86 0 -185 -12 ZM1010 678 q-22 -18 -27.5 -48.5 q-5.5 -30.5 -5.5 -123.5 l0 -612 q0 -85 12 -199 l-143 0 q12 105 12 199 l0 612 q0 113 -12 225 l151 -20 q29 -3 30 -9 q3 -5 -17 -24 ZM987 410 l84 100 q334 -202 594 -395 l-96 -113 q-288 224 -582 408 Z" /><glyph glyph-name="" unicode="&#x5373;" d="M238 1475 q100 -15 163 -13 l400 0 q65 0 162 13 q-13 -88 -13 -168 l0 -627 q0 -74 13 -164 q-111 12 -185 12 l-418 0 l0 -518 q158 86 367 226 q-59 92 -113 163 l107 64 q170 -252 311 -479 l-108 -68 q-66 117 -138 231 q-452 -292 -481 -346 l-96 133 q43 31 41 99 l0 1267 q0 76 -12 175 ZM360 950 l0 -319 l480 0 l0 319 l-480 0 ZM360 1360 l0 -307 l480 0 l0 307 l-480 0 ZM1190 1444 q100 -12 176 -12 l287 0 q69 0 164 12 q-15 -86 -13 -164 l0 -977 q4 -172 -49 -211 q-43 -49 -258 -65 q-16 92 -70 161 q113 -15 168 -15 q44 0 58 9 q41 11 37 121 l0 1026 l-373 0 l0 -1468 q0 -74 12 -178 l-139 0 q12 96 12 174 l0 1384 q0 96 -12 203 Z" /><glyph glyph-name="" unicode="&#x5374;" d="M299 782 l326 0 l0 342 l-238 0 q-92 0 -162 -12 l0 127 q80 -12 156 -12 l244 0 l0 170 q0 96 -13 194 l148 -20 q31 -4 33 -14.5 q2 -10.5 -23 -26.5 q-33 -14 -31 -115 l0 -188 l164 0 q86 0 172 12 l0 -127 q-69 12 -168 12 l-168 0 l0 -342 l281 0 q96 0 174 13 l0 -127 q-88 12 -170 12 l-428 0 l129 -72 q39 -20 39 -28 q2 -9 -39 -17 q-25 -6 -66 -74 q-120 -210 -272 -428 q246 21 533 70 q-84 172 -181 315 l115 58 q135 -230 285 -541 l-125 -59 q-15 59 -56 129 q-448 -60 -669 -129 q-19 65 -60 131 q43 29 68 63 q221 322 287 582 l-281 0 q-86 0 -162 -12 l0 127 q80 -13 158 -13 ZM1253 1446 q60 -12 154 -12 l313 0 q86 0 156 12 q-12 -72 -12 -150 l0 -1060 q4 -162 -54 -199 q-47 -45 -260 -53 q-22 92 -67 157 q97 -11 149 -11 q60 0 78 13 q43 15 39 136 l0 1050 l-369 0 l0 -1464 q0 -101 13 -174 l-140 0 q13 104 13 172 l0 1372 q0 78 -13 211 Z" /><glyph glyph-name="" unicode="&#x5377;" d="M61 270 q379 125 629 439 l-428 0 q-67 0 -160 -13 l0 127 q91 -12 160 -12 l488 0 q51 84 81 184 l-413 0 q-68 0 -164 -12 l0 127 q96 -12 164 -12 l440 0 q60 225 57 477 l164 -31 q27 -4 27 -12 q2 -8 -23 -29 q-39 -33 -49 -108 q-24 -178 -51 -297 l623 0 q77 0 174 12 l0 -127 q-103 14 -174 12 l-648 0 q-30 -98 -73 -184 l846 0 q77 0 174 12 l0 -127 q-101 15 -168 13 l-359 0 q174 -279 600 -363 q-63 -59 -98 -135 q-268 106 -422 238 q-2 -27 -8 -97 q-8 -98 -12 -141 q-4 -186 -373 -191 q-6 70 -55 140 q59 -6 115 -6 q192 0 194 92 q8 51 14 141 l-631 0 l0 -467 q-2 -11 -2 -17 q0 -90 209 -83 l424 0 q135 -2 183 55 q53 53 69 223 q64 -57 146 -73 q-72 -201 -142 -252 q-65 -60 -243 -56 l-494 0 q-156 0 -209 37 q-57 35 -55 140 l0 395 q0 53 -13 129 q-159 -129 -395 -266 q-43 63 -119 118 ZM659 502 q74 -13 136 -13 l460 0 q74 0 142 13 q-84 90 -156 207 l-407 0 q-74 -105 -175 -207 ZM397 1405 l97 84 q145 -137 258 -275 l-103 -90 q-112 152 -252 281 ZM1204 1169 q146 170 221 340 l121 -69 q27 -15 27 -27 q-2 -10 -31 -18 q-39 -11 -69 -58 q-74 -110 -164 -229 l-105 61 Z" /><glyph glyph-name="" unicode="&#x538b;" d="M57 -238 q154 129 213 365 q60 225 58 707 l0 374 q0 117 -13 185 q62 -13 179 -13 l1218 0 q117 0 164 13 l0 -129 q-90 14 -164 14 l-1266 0 l0 -446 q3 -445 -49 -674 q-47 -238 -186 -465 q-90 53 -154 69 ZM414 -219 l0 127 q67 -12 164 -12 l518 0 l0 702 l-338 0 q-109 0 -156 -12 l0 127 q53 -13 160 -13 l334 0 l0 285 q0 105 -13 162 l142 -21 q26 -2 26 -8 q2 -6 -18 -26 q-21 -13 -19 -74 l0 -318 l322 0 q121 0 166 13 l0 -127 q-53 12 -166 12 l-322 0 l0 -702 l570 0 q112 0 160 12 l0 -127 q-60 12 -160 12 l-1209 0 q-100 0 -161 -12 ZM1364 395 l102 72 q154 -184 271 -369 l-107 -78 q-108 201 -266 375 Z" /><glyph glyph-name="" unicode="&#x539f;" d="M94 -170 q295 311 289 1006 l0 485 q0 80 -12 178 q110 -12 190 -12 l1172 0 q94 0 192 12 l0 -127 q-100 12 -192 12 l-551 0 l92 -34 q18 -9 18 -17 q-2 -8 -18 -12 q-60 -14 -84 -61 q-35 -66 -72 -129 l426 0 q90 0 207 12 q-12 -115 -12 -211 l0 -301 q0 -92 12 -219 q-104 12 -213 12 l-258 0 l0 -520 q6 -123 -43 -146 q-35 -30 -264 -53 q-25 84 -68 156 q115 -15 170 -15 q37 0 49 7 q41 6 37 90 l0 481 l-241 0 q-93 0 -228 -12 q13 114 13 221 l0 313 q0 80 -13 197 q119 -12 207 -12 l107 0 q65 126 104 253 l-608 0 l0 -614 q10 -557 -262 -997 q-78 37 -146 57 ZM819 725 l0 -199 l805 0 l0 199 l-805 0 ZM1624 827 l0 201 l-805 0 l0 -201 l805 0 ZM461 -80 q270 139 370 402 l148 -74 q10 -6 8 -12 q-4 -7 -20 -11 q-45 -12 -78 -57 q-123 -170 -299 -326 q-62 52 -129 78 ZM1444 219 l82 86 q219 -186 403 -368 l-94 -91 q-166 189 -391 373 Z" /><glyph glyph-name="" unicode="&#x53b3;" d="M342 -29 q82 2 164 9 l0 632 l-12 0 q-27 0 -91 -8 q-16 -2 -26 -4 l0 119 q94 -10 166 -12 l239 0 q9 16 23 47 q41 86 57 116 l-237 0 q-74 -2 -166 -12 l0 119 q90 -10 166 -12 l243 0 q88 2 183 12 q-17 -29 -56 -100 q-69 -127 -96 -170 l125 0 q70 2 156 12 l0 -119 q-78 10 -156 12 l0 -571 q61 8 133 33 q-29 -82 -27 -131 q-26 2 -41 2 q-28 0 -65 -4 l0 -97 q0 -63 12 -135 l-135 0 q10 74 12 137 l0 82 q-245 -22 -505 -82 l-66 125 ZM1323 1028 l152 -29 q26 -4 24 -14 q0 -12 -29 -33 q-28 -10 -45 -82 q0 -4 -2 -10 q-4 -14 -8 -35 l322 0 q71 0 164 13 l0 -123 q-86 12 -164 12 q-66 -451 -168 -631 q119 -176 360 -286 q-71 -41 -127 -107 q-194 158 -293 297 q-90 -127 -290 -293 q-50 51 -134 84 q242 133 361 311 q-74 142 -141 390 q-11 -23 -31 -68 q-19 -43 -29 -66 q-69 35 -145 45 q205 244 223 625 ZM225 745 l0 228 q0 88 -12 213 q117 -12 219 -12 l905 0 q117 196 176 395 l154 -62 q29 -12 27 -22 q0 -10 -31 -21 q-53 -22 -80 -80 q-63 -133 -121 -210 l299 0 q74 0 164 12 l0 -123 q-90 12 -164 12 l-1421 0 l0 -291 q2 -407 -29 -614 q-26 -219 -114 -455 q-58 23 -154 29 q102 154 143 373 q39 217 39 628 ZM1389 727 q-31 -108 -82 -227 l104 22 q33 -180 96 -315 q97 201 115 520 l-233 0 ZM856 1538 l107 68 q118 -152 206 -299 l-120 -72 q-82 166 -193 303 ZM616 612 l0 -151 l297 0 l0 151 l-297 0 ZM436 1468 l96 78 q115 -131 216 -278 l-111 -74 q-84 145 -201 274 ZM616 367 l0 -138 l297 0 l0 138 l-297 0 ZM913 27 l0 108 l-297 0 l0 -147 q84 8 256 32 q27 5 41 7 Z" /><glyph glyph-name="" unicode="&#x53bb;" d="M1087 1159 l461 0 q80 0 176 12 l0 -127 q-102 15 -170 15 l-467 0 l0 -420 l658 0 q80 0 174 12 l0 -127 q-82 13 -170 13 l-809 0 l96 -70 q27 -21 27 -27 q-6 -10 -39 -16 q-6 8 -287 -315 q-131 -152 -188 -213 q182 14 551 36 q221 17 352 25 q-113 133 -301 311 l94 78 q303 -305 524 -561 l-112 -96 q-53 94 -127 178 q-729 -51 -1141 -131 q-35 88 -76 143 q88 6 152 72 q289 293 418 586 l-592 0 q-80 0 -162 -13 l0 127 q78 -12 156 -12 l680 0 l0 418 l-473 0 q-62 0 -164 -13 l0 127 q78 -12 157 -12 l480 0 l0 244 q0 102 -13 182 l152 -20 q31 -4 31 -15 q2 -10 -23 -28 q-25 -19 -25 -123 l0 -240 Z" /><glyph glyph-name="" unicode="&#x53c2;" d="M649 797 l-332 0 q-94 -2 -192 -17 l0 135 q98 -14 192 -16 l402 0 q92 127 123 219 q-256 -8 -436 -41 l-46 142 q115 18 195 88 q248 204 328 319 l139 -72 q16 -10 12 -22 q-4 -12 -26 -16 q-43 -9 -90 -48 q-160 -131 -336 -264 q71 2 227 6 q428 15 614 21 q-102 98 -243 211 l84 88 q239 -209 436 -402 l-84 -88 q-49 60 -111 111 q-59 -2 -170 -8 q-329 -17 -477 -25 l125 -63 q18 -11 16 -23 q-4 -12 -24 -20 q-49 -8 -117 -113 l877 0 q100 2 194 16 l0 -135 q-88 15 -194 17 l-375 0 q225 -316 622 -412 q-75 -39 -131 -125 q-419 211 -626 537 l-428 0 q-230 -299 -602 -525 q-54 58 -125 113 q284 61 579 412 ZM1462 371 l123 -82 q13 -8 13 -17 q0 -3 -1 -6 q-4 -10 -28 -18 q-33 -10 -101 -76 q-383 -410 -1101 -487 q-45 102 -78 145 q774 -22 1173 541 ZM451 385 q342 76 575 352 l104 -78 q15 -10 11 -20 q-4 -10 -23 -10 q-35 -2 -76 -39 q-170 -166 -501 -314 q-41 62 -90 109 ZM1214 555 l113 -88 q14 -10 10 -21 q-6 -10 -24 -14 q-45 -6 -86 -47 q-264 -264 -627 -401 q-51 67 -102 116 q411 66 716 455 Z" /><glyph glyph-name="" unicode="&#x53c8;" d="M102 -178 q471 180 832 545 q-330 409 -492 901 q-41 0 -157 -13 l0 136 q108 -13 178 -13 l989 0 q82 0 178 13 q-205 -613 -532 -1016 q344 -348 862 -508 q-94 -49 -162 -139 q-473 243 -780 546 q-303 -301 -768 -571 q-53 55 -148 119 ZM1016 469 q274 334 438 799 l-876 0 q151 -451 438 -799 Z" /><glyph glyph-name="" unicode="&#x53c9;" d="M791 1085 l92 82 q159 -161 278 -292 l-92 -84 q-123 147 -278 294 ZM141 -119 q451 135 795 455 q-324 354 -490 952 q-73 -4 -133 -14 l0 135 q88 -12 172 -16 l949 0 q108 2 190 16 q-203 -733 -514 -1063 q367 -323 840 -426 q-84 -45 -123 -133 q-475 170 -803 457 q-272 -250 -750 -486 q-30 56 -133 123 ZM1022 438 q317 367 422 852 l-858 0 q121 -504 436 -852 Z" /><glyph glyph-name="" unicode="&#x53ca;" d="M293 1331 l0 131 q96 -14 174 -12 l979 0 q70 -2 174 12 q-209 -340 -381 -594 l279 0 q63 0 170 13 q-144 -371 -390 -670 q308 -262 689 -322 q-78 -59 -121 -151 q-430 190 -664 379 q-223 -219 -756 -404 q-47 95 -108 158 q399 14 772 332 q-233 252 -356 534 q-86 -485 -555 -841 q-58 77 -127 112 q606 252 626 1336 l-233 0 q-68 2 -172 -13 ZM1210 289 q152 190 291 473 l-307 0 q-82 0 -182 -12 q241 335 391 594 l-576 0 q-6 -173 -22 -316 q65 -401 405 -739 Z" /><glyph glyph-name="" unicode="&#x53cb;" d="M92 102 q533 363 705 1037 l-469 0 q-66 0 -166 -13 l0 127 q100 -12 166 -12 l491 0 q37 176 35 367 l158 -21 q28 -2 30 -12 q2 -10 -20 -31 q-33 -28 -41 -92 q-18 -129 -35 -211 l766 0 q80 0 162 12 l0 -127 q-82 13 -162 13 l-788 0 q-33 -144 -84 -285 l587 0 q76 0 175 12 q-168 -420 -375 -665 q307 -254 747 -326 q-80 -61 -121 -145 q-430 155 -704 381 q-277 -238 -725 -422 q-41 65 -117 129 q473 119 752 377 q-182 217 -283 507 q-201 -380 -536 -682 q-58 50 -148 82 ZM1139 283 q178 206 274 473 l-528 0 q84 -295 254 -473 Z" /><glyph glyph-name="" unicode="&#x53cc;" d="M76 -90 q289 162 510 598 q-170 250 -344 416 l106 82 q189 -215 295 -371 q109 264 125 631 l-426 0 q-117 0 -162 -13 l0 127 q53 -12 156 -12 l430 0 q96 0 147 12 q-4 -30 -12 -86 q-4 -39 -6 -57 q-55 -463 -168 -717 q150 -180 260 -354 l-106 -94 q-107 194 -215 323 q-156 -301 -451 -573 q-43 49 -139 88 ZM668 -156 q383 140 649 500 q-187 387 -264 916 q-17 -3 -68 -9 q-14 -2 -22 -2 l0 133 q73 -14 157 -14 l545 0 q84 0 158 10 q-8 -51 -45 -227 q-6 -25 -9 -37 q-83 -371 -301 -780 q181 -289 512 -479 q-73 -33 -137 -109 q-258 203 -452 475 q-228 -272 -574 -483 q-76 63 -149 106 ZM1184 1266 q47 -406 215 -795 q196 352 266 795 l-481 0 Z" /><glyph glyph-name="" unicode="&#x53cd;" d="M98 -180 q338 305 326 1052 l0 332 q0 96 -12 226 q567 14 1247 102 l113 -133 q6 -10 6 -17 q0 -13 -17 -18 q-133 -2 -186 -6 q-801 -47 -1036 -58 l0 -391 l925 0 q99 0 209 13 q-145 -406 -387 -684 q291 -226 694 -308 q-75 -63 -122 -147 q-396 149 -662 358 q-211 -209 -682 -413 q-39 65 -106 139 q374 76 686 352 q-291 260 -467 588 l-84 0 q1 -28 1 -81 q0 -562 -288 -982 q-82 47 -158 76 ZM1180 313 q192 195 309 494 l-713 0 q146 -281 404 -494 Z" /><glyph glyph-name="" unicode="&#x53d1;" d="M803 965 l-350 0 q-101 0 -203 -35 l-72 114 q66 29 98 78 q113 174 177 383 l147 -57 q21 -8 18 -16 q0 -7 -26 -19 q-41 -18 -70 -78 q-57 -127 -133 -268 l442 0 q55 239 55 423 q0 43 -3 83 l164 -25 q38 -4 34 -12 q2 -6 -43 -45 q-28 -18 -37 -107 q-28 -206 -49 -317 l768 0 q86 0 162 12 l0 -127 q-80 13 -162 13 l-792 0 q-33 -115 -82 -252 l592 0 q92 0 178 12 q-143 -350 -369 -588 q342 -227 701 -243 q-64 -68 -111 -156 q-354 86 -684 319 q-334 -235 -709 -350 q-41 70 -110 135 q440 70 729 297 q-148 150 -260 340 l125 68 q39 -166 225 -330 q178 160 279 397 l-631 0 q-189 -397 -563 -686 q-64 52 -146 92 q524 259 711 945 ZM1247 1456 l82 88 q178 -153 338 -305 l-82 -90 q-145 151 -338 307 Z" /><glyph glyph-name="" unicode="&#x53d6;" d="M123 -47 q-21 65 -57 156 q-5 6 -5 8 q150 16 240 37 l0 1216 l-61 0 q-70 0 -164 -12 l0 125 q80 -13 157 -13 l705 0 q98 0 162 13 l0 -125 q-76 12 -162 12 l-25 0 l0 -1075 q123 29 187 61 q-8 -61 -17 -141 q-86 -18 -174 -43 l0 -252 q240 164 414 412 q-199 323 -221 872 q-51 0 -96 -6 l0 123 q49 -12 135 -12 l456 0 q82 0 152 12 q-78 -596 -276 -985 q196 -279 518 -424 q-90 -39 -152 -113 q-291 224 -442 424 q-150 -200 -369 -403 q-53 55 -119 76 l0 -41 q0 -103 15 -174 l-144 0 q15 71 15 170 l0 296 q-402 -92 -672 -194 ZM420 539 l0 -361 q207 43 375 92 l0 269 l-375 0 ZM795 637 l0 303 l-375 0 l0 -303 l375 0 ZM420 1372 l0 -334 l375 0 l0 334 l-375 0 ZM1608 1210 l-391 0 q2 -448 180 -757 q178 344 211 757 Z" /><glyph glyph-name="" unicode="&#x53d7;" d="M938 98 q-150 135 -307 414 l-8 0 q-60 -2 -144 -12 l0 123 q90 -11 152 -13 l766 0 q69 0 162 11 q-213 -328 -424 -523 q383 -227 780 -223 q-74 -82 -107 -170 q-501 123 -770 313 q-389 -254 -807 -311 q-34 107 -86 152 q422 -2 793 239 ZM1333 512 l-565 0 q100 -203 270 -340 q172 141 295 340 ZM205 909 q121 -12 190 -12 l875 0 q213 248 319 459 l125 -94 q23 -17 23 -27 q0 -10 -25 -14 q-53 -9 -74 -41 q-39 -49 -118 -148 q-68 -86 -109 -135 l262 0 q72 2 199 12 q-12 -114 -12 -174 l0 -18 q2 -55 12 -162 l-139 0 q12 115 12 162 l0 82 l-1413 0 l0 -80 q0 -57 12 -172 l-139 0 q12 115 12 172 l0 18 q-2 72 -12 172 ZM305 1489 q169 -30 434 -30 q152 0 322 9 q442 31 598 107 l94 -129 q10 -15 10 -24 q0 -4 -2 -7 q-5 -6 -13 -6 q-6 0 -17 4 q-12 4 -34 4 q-25 0 -79 -6 q-12 -2 -21 -2 q-364 -39 -636 -53 q-138 -8 -277 -10 q-69 -1 -146 -1 q-78 0 -165 1 q-21 79 -68 143 ZM522 1280 q109 -131 226 -287 l-107 -75 q-111 167 -219 290 l100 72 ZM1206 995 l-114 -59 q-78 166 -168 309 l110 62 q82 -140 172 -312 Z" /><glyph glyph-name="" unicode="&#x53d8;" d="M174 657 q279 203 371 414 l129 -84 q22 -14 20 -26 q-4 -13 -30 -13 q-37 -6 -66 -37 q-131 -168 -301 -331 q-66 51 -123 77 ZM367 1288 l696 0 q-121 133 -279 230 l86 94 q158 -107 295 -232 l-80 -92 l588 0 q121 0 168 12 l0 -126 q-61 12 -168 12 l-407 0 l0 -385 q0 -129 12 -182 l-139 0 q12 81 12 182 l0 385 l-248 0 l0 -387 q0 -117 12 -183 l-139 0 q12 82 12 183 l0 387 l-421 0 q-86 0 -166 -12 l0 126 q67 -12 166 -12 ZM242 -195 q417 60 723 273 q-230 180 -349 385 l-26 0 q-105 0 -166 -12 l0 127 q47 -13 166 -13 l751 0 q115 0 175 13 q-56 -109 -105 -193 q-84 -137 -227 -287 q336 -186 729 -188 q-82 -88 -119 -166 q-385 88 -719 268 q-319 -233 -715 -342 q-47 76 -118 135 ZM1069 158 q156 135 248 305 l-565 0 q131 -197 317 -305 ZM1491 1081 q233 -209 362 -356 l-92 -84 q-172 199 -362 356 l92 84 Z" /><glyph glyph-name="" unicode="&#x53e0;" d="M469 432 q123 -12 186 -12 l742 0 q61 -2 174 12 q-12 -108 -12 -172 l0 -399 l198 0 q68 0 180 12 l0 -115 q-106 15 -180 13 l-1483 0 q-69 0 -170 -13 l0 115 q99 -12 170 -12 l207 0 l0 391 q0 57 -12 180 ZM1444 -139 l0 102 l-848 0 l0 -102 l848 0 ZM596 145 l0 -96 l848 0 l0 96 l-848 0 ZM1444 231 l0 103 l-848 0 l0 -103 l848 0 ZM283 305 l-140 0 q13 86 13 139 l0 39 q0 52 -13 140 q107 -13 166 -13 l1424 0 q67 0 172 13 q-13 -91 -13 -140 l0 -49 q0 -53 13 -137 l-140 0 q13 80 13 137 l0 86 l-1508 0 l0 -76 q0 -53 13 -139 ZM995 711 l-61 -84 q-121 80 -248 149 q-151 -88 -360 -149 q-29 47 -97 94 q230 31 363 106 q-45 21 -121 54 q-84 34 -111 47 l50 69 q77 -30 262 -114 q80 51 157 129 l-460 0 q-68 0 -168 -13 l0 111 q102 -12 168 -12 l485 0 q70 -2 182 12 q-106 -147 -274 -272 q125 -64 233 -127 ZM381 1241 q81 -7 154 -7 q231 0 454 62 q-168 35 -315 58 l43 82 q20 -4 61 -13 q215 -47 332 -73 q113 45 215 102 l-682 0 q-70 0 -170 -12 l0 114 q98 -12 170 -12 l842 0 q80 0 207 12 q-181 -122 -443 -241 q201 -49 430 -123 l-51 -82 q-239 94 -493 149 q-338 -106 -680 -126 q-21 57 -74 110 ZM1819 705 l-62 -82 q-145 82 -268 137 q-176 -90 -367 -133 q-16 39 -78 96 q207 20 347 88 q-101 39 -222 80 l56 80 q84 -31 256 -103 q94 58 180 144 l-408 0 q-67 0 -170 -13 l0 111 q99 -12 170 -12 l420 0 q78 -2 195 12 q-131 -174 -289 -289 q135 -61 240 -116 Z" /><glyph glyph-name="" unicode="&#x53e3;" d="M389 1309 q127 -13 234 -13 l819 0 q104 0 219 13 q-12 -107 -12 -205 l0 -1012 q0 -92 12 -188 l-143 0 q12 102 12 184 l-1010 0 l0 -35 q0 -88 12 -184 l-143 0 q12 90 12 184 l0 1051 q0 92 -12 205 ZM520 1190 l0 -995 l1010 0 l0 995 l-1010 0 Z" /><glyph glyph-name="" unicode="&#x53e4;" d="M967 1626 l188 -43 q16 -4 19 -10 q0 -8 -15 -21 q-57 -49 -65 -159 l0 -277 l651 0 q133 0 201 12 l0 -127 q-74 13 -201 13 l-651 0 l0 -447 l358 0 q109 0 182 13 q-12 -72 -12 -181 l0 -548 q0 -93 12 -150 l-139 0 q16 55 12 145 l-970 0 l0 -26 q0 -80 12 -150 l-139 0 q12 49 12 150 l0 583 q0 111 -12 177 q65 -13 174 -13 l395 0 l0 447 l-664 0 q-125 0 -198 -13 l0 127 q63 -12 198 -12 l664 0 l0 336 q0 102 -12 174 ZM537 465 l0 -520 l970 0 l0 520 l-970 0 Z" /><glyph glyph-name="" unicode="&#x53e5;" d="M571 832 q97 -13 168 -13 l430 0 q70 0 166 13 q-14 -105 -12 -175 l0 -323 q0 -70 12 -168 q-88 12 -164 12 l-432 0 q-65 0 -168 -12 q13 94 13 168 l0 323 q0 80 -13 175 ZM698 717 l0 -436 l510 0 l0 436 l-510 0 ZM86 690 q375 357 512 907 l139 -41 q37 -10 35 -20 q2 -10 -35 -33 q-32 -18 -49 -69 q-29 -80 -51 -134 l1032 0 q76 0 174 13 q-14 -133 -14 -240 q-2 -289 -17 -1071 q3 -170 -90 -217 q-80 -53 -391 -64 q-16 99 -71 166 q110 -9 196 -9 q107 0 148 16 q79 20 79 129 q17 454 23 1175 l-1110 0 q-143 -297 -356 -582 q-64 52 -154 74 Z" /><glyph glyph-name="" unicode="&#x53e6;" d="M287 -274 q-33 75 -121 129 q616 110 708 704 l-415 -10 q-88 -2 -162 -12 l0 122 q61 -14 162 -10 l430 10 q15 94 15 175 q0 37 -3 69 l-272 0 q-74 2 -156 -12 q14 67 12 151 l0 310 q0 67 -12 157 q80 -14 150 -12 l860 0 q76 -2 151 12 q-14 -88 -12 -157 l0 -289 q-2 -100 12 -172 q-98 14 -151 12 l-520 0 l102 -31 q25 -8 25 -14 q2 -8 -23 -20 q-25 -13 -33 -58 q-6 -57 -16 -121 l584 17 q81 2 147 14 q-16 -119 -33 -612 q-2 -180 -92 -232 q-84 -61 -369 -69 q-16 100 -71 160 q140 -15 218 -15 q57 0 91 8 q80 17 86 103 q25 203 31 543 l-606 -17 q-41 -573 -717 -833 ZM1511 1395 l-915 0 l0 -389 l915 0 l0 389 Z" /><glyph glyph-name="" unicode="&#x53ea;" d="M731 473 l141 -70 q23 -10 19 -18 q-2 -6 -31 -16 q-29 -13 -84 -93 q-190 -280 -508 -559 l-149 95 q389 202 612 661 ZM1174 387 l108 86 q356 -338 631 -649 l-113 -98 q-241 331 -626 661 ZM463 1436 q78 -15 137 -13 l883 0 q57 -2 143 13 q-14 -76 -12 -138 l0 -587 q-2 -58 12 -135 q-78 14 -139 12 l-879 0 q-65 2 -145 -12 q14 75 12 135 l0 589 q2 58 -12 136 ZM1499 690 l0 631 l-909 0 l0 -631 l909 0 Z" /><glyph glyph-name="" unicode="&#x53eb;" d="M1069 1317 l184 -45 q15 -4 17 -10 q0 -7 -15 -15 q-45 -24 -43 -65 q-12 -291 -55 -772 q250 51 492 118 l0 873 q0 4 -4 47 q-5 68 -9 123 l160 -21 q25 -2 27 -10 q2 -8 -19 -24 q-35 -46 -41 -134 l0 -1460 q0 -96 13 -221 l-140 0 q13 123 13 221 l0 498 q-322 -82 -598 -184 q-31 65 -76 122 q61 17 72 136 q34 325 34 665 q0 92 -12 158 ZM684 225 l-313 0 l0 -53 q0 -78 12 -158 l-137 0 q12 78 12 158 l0 1024 q0 84 -12 148 q76 -13 137 -13 l279 0 q73 0 145 13 q-12 -70 -12 -148 l0 -932 q0 -86 12 -170 l-135 0 q14 53 12 131 ZM684 328 l0 901 l-315 0 l0 -901 l315 0 Z" /><glyph glyph-name="" unicode="&#x53ee;" d="M1739 1292 l-180 0 l0 -1394 q4 -109 -66 -142 q-66 -39 -285 -49 q2 76 -61 164 q116 -17 182 -17 q37 0 55 5 q58 10 56 78 l0 1355 l-355 0 q-114 0 -235 -12 l0 127 q98 -12 231 -12 l654 0 q94 0 221 12 l0 -127 q-127 12 -217 12 ZM618 354 l-315 0 l0 -51 q0 -78 12 -188 l-139 0 q14 100 12 190 l0 944 q2 58 -12 148 q76 -15 135 -13 l236 0 q78 0 198 13 q-12 -94 -12 -197 l0 -850 q-2 -63 12 -168 l-139 0 q15 105 12 172 ZM618 457 l0 825 l-315 0 l0 -825 l315 0 Z" /><glyph glyph-name="" unicode="&#x53ef;" d="M1942 1468 l0 -131 q-99 13 -185 13 l-162 0 l0 -1391 q4 -133 -77 -176 q-72 -47 -332 -57 q-23 92 -78 170 q126 -13 204 -13 q71 0 101 11 q68 16 64 112 l0 1344 l-1174 0 q-80 0 -184 -13 l0 131 q98 -12 184 -12 l1454 0 q92 0 185 12 ZM422 1044 q106 -12 182 -12 l338 0 q100 0 186 12 q-12 -86 -12 -169 l0 -394 q0 -80 10 -176 q-94 12 -196 12 l-328 0 q-86 0 -180 -12 q12 96 12 172 l0 402 q0 69 -12 165 ZM1001 420 l0 510 l-452 0 l0 -510 l452 0 Z" /><glyph glyph-name="" unicode="&#x53f0;" d="M909 1595 l156 -75 q25 -13 22 -21 q0 -8 -28 -18 q-58 -19 -101 -68 q-213 -231 -544 -530 q622 18 1145 41 q-183 180 -400 346 l92 94 q308 -252 594 -543 l-96 -114 q-39 53 -102 118 q-1305 -47 -1375 -73 l-55 155 q111 19 225 131 q320 306 467 557 ZM1520 -160 l-961 0 q0 -63 12 -155 l-139 0 q12 90 12 155 l0 545 q0 68 -12 174 q90 -12 162 -12 l881 0 q67 -2 172 12 q-13 -100 -13 -176 l0 -543 q0 -43 13 -125 l-140 0 q13 74 13 125 ZM1520 -61 l0 505 l-961 0 l0 -505 l961 0 Z" /><glyph glyph-name="" unicode="&#x53f3;" d="M825 1067 l-510 0 q-82 0 -174 -12 l0 127 q97 -13 174 -13 l543 0 q66 213 80 416 l166 -24 q20 -5 22 -13 q2 -10 -16 -24 q-41 -27 -57 -109 q-25 -115 -64 -246 l756 0 q82 0 180 13 l0 -127 q-96 12 -180 12 l-789 0 q-82 -221 -202 -410 l698 0 q76 0 188 13 q-12 -103 -12 -187 l0 -571 q0 -64 12 -160 l-139 0 q12 84 12 156 l-815 0 l0 -19 q0 -69 13 -165 l-140 0 q13 98 13 165 l0 541 q-166 -180 -353 -332 q-43 68 -135 119 q498 260 729 850 ZM698 555 l0 -549 l815 0 l0 549 l-815 0 Z" /><glyph glyph-name="" unicode="&#x53f6;" d="M999 930 l304 0 l0 506 q0 4 -13 176 l174 -21 q25 -4 27 -14 q0 -12 -23 -25 q-41 -30 -43 -168 l0 -454 l336 0 q105 0 172 12 l0 -131 q-104 12 -172 12 l-336 0 l0 -940 q0 -92 13 -180 l-148 0 q13 117 13 184 l0 936 l-304 0 q-73 0 -165 -12 l0 131 q67 -12 165 -12 ZM623 264 l-340 0 l0 -31 q0 -106 8 -157 l-135 0 q12 82 12 157 l0 1000 q0 78 -12 145 q65 -12 135 -12 l309 0 q64 0 150 12 q-13 -80 -13 -145 l0 -928 q0 -84 13 -168 l-140 0 q13 58 13 127 ZM623 371 l0 889 l-340 0 l0 -889 l340 0 Z" /><glyph glyph-name="" unicode="&#x53f7;" d="M748 428 l759 0 q82 2 176 12 q-14 -75 -22 -161 q-27 -353 -139 -426 q-115 -101 -621 -115 q-6 84 -43 158 q113 -20 230 -20 q40 0 90 3 q170 15 249 55 q109 68 113 392 l-801 0 q-73 -2 -188 -13 q92 174 145 336 l-389 0 q-80 -2 -180 -12 l0 127 q96 -10 180 -12 l1458 0 q84 2 174 12 l0 -127 q-90 10 -174 12 l-923 0 q-43 -90 -94 -221 ZM487 1499 q105 -10 179 -12 l753 0 q84 2 178 12 q-10 -98 -12 -174 l0 -233 q2 -76 12 -174 q-96 10 -178 12 l-747 0 q-80 -2 -185 -12 q11 86 13 172 l0 233 q-2 78 -13 176 ZM1475 1032 l0 352 l-865 0 l0 -352 l865 0 Z" /><glyph glyph-name="" unicode="&#x53f9;" d="M791 1317 l0 127 q98 -12 163 -12 l658 0 q67 0 160 12 q-138 -713 -381 -1088 q204 -295 594 -512 q-89 -51 -148 -137 q-346 285 -526 526 q-240 -284 -633 -540 q-51 74 -146 127 q447 194 701 532 q-236 391 -352 973 q-37 -2 -90 -8 ZM1315 479 q217 373 295 850 l-592 0 q80 -479 297 -850 ZM569 283 l-309 0 l0 -35 q0 -70 12 -168 l-139 0 q14 104 12 168 l0 1014 q0 67 -12 170 q88 -13 158 -13 l237 0 q78 0 168 13 q-12 -103 -12 -170 l0 -942 q0 -70 12 -179 l-139 0 q10 64 12 142 ZM569 385 l0 932 l-309 0 l0 -932 l309 0 Z" /><glyph glyph-name="" unicode="&#x5403;" d="M1157 1565 l166 -78 q14 -6 10 -17 q-2 -8 -22 -12 q-31 -10 -54 -49 q-24 -47 -83 -147 q-17 -33 -25 -45 l520 0 q105 0 191 12 l0 -127 q-109 12 -191 12 l-569 0 q-121 -186 -223 -313 q-58 49 -132 90 q281 229 412 674 ZM1722 803 q-680 -682 -684 -866 q-6 -82 191 -95 q83 -5 176 -5 q55 0 88 1 q127 6 174 23 q70 22 86 65 q21 43 21 181 q84 -46 153 -62 q-72 -285 -246 -297 q-103 -20 -272 -20 q-93 0 -205 6 q-305 14 -299 200 q2 191 547 754 l-360 0 q-78 0 -174 -12 l0 127 q100 -12 174 -12 l432 0 q94 0 198 12 ZM608 240 l-301 0 q0 -97 12 -185 l-139 0 q13 92 13 185 l0 907 q0 61 -13 145 q88 -12 162 -12 l231 0 q70 0 162 12 q-12 -80 -12 -149 l0 -823 q0 -93 12 -211 l-139 0 q12 69 12 131 ZM608 342 l0 836 l-301 0 l0 -836 l301 0 Z" /><glyph glyph-name="" unicode="&#x5404;" d="M66 514 q460 57 872 311 q-139 123 -252 265 l100 77 q86 -141 250 -266 q199 146 350 322 l-673 0 q-131 -187 -310 -389 q-61 49 -161 69 q352 254 493 676 l150 -53 q20 -8 18 -15 q0 -8 -20 -18 q-25 -12 -47 -53 q-5 -6 -11 -21 q-34 -59 -55 -94 l694 0 q78 0 185 12 q-256 -315 -516 -512 q393 -235 847 -243 q-88 -66 -125 -156 q-495 111 -815 317 q-360 -219 -870 -366 q-31 69 -104 137 ZM535 471 q96 -12 176 -12 l682 0 q73 -2 176 12 q-13 -106 -13 -176 l0 -434 q0 -70 13 -160 l-139 0 q10 57 12 113 l-780 0 q2 -64 12 -123 l-139 0 q14 100 12 164 l0 434 q0 76 -12 182 ZM662 -84 l780 0 l0 440 l-780 0 l0 -440 Z" /><glyph glyph-name="" unicode="&#x5408;" d="M969 1591 l149 -53 q15 -4 15 -14.5 q0 -10.5 -15 -18.5 l-39 -22 q332 -512 893 -662 q-71 -41 -125 -129 q-559 264 -837 701 q-252 -469 -803 -713 q-41 76 -133 131 q641 137 895 780 ZM1536 834 l0 -127 q-88 10 -168 12 l-651 0 q-76 -2 -162 -12 l0 127 q98 -11 166 -13 l647 0 q84 2 168 13 ZM477 475 q86 -10 172 -12 l799 0 q82 2 178 12 q-10 -86 -12 -166 l0 -434 q2 -84 12 -178 l-139 0 q10 61 12 119 l-899 0 q2 -58 12 -131 l-135 0 q10 98 12 170 l0 452 q-2 70 -12 168 ZM604 -82 l895 0 l0 442 l-895 0 l0 -442 Z" /><glyph glyph-name="" unicode="&#x5409;" d="M289 1247 l657 0 l0 109 q0 110 -12 231 l166 -20 q26 -4 28 -19 q-2 -14 -28 -35 q-37 -38 -39 -155 l0 -111 l690 0 q43 0 141 13 l0 -127 q-96 12 -147 12 l-684 0 l0 -326 l526 0 q49 -2 146 13 l0 -127 q-91 12 -146 12 l-1120 0 q-66 2 -166 -12 l0 127 q94 -13 166 -13 l479 0 l0 326 l-645 0 q-76 2 -158 -12 l0 127 q82 -15 146 -13 ZM1497 -174 l-960 0 q-2 -76 12 -154 l-139 0 q14 92 12 160 l0 504 q2 70 -12 160 q90 -15 165 -13 l885 0 q51 -2 160 13 q-8 -64 -8 -131 q0 -15 0 -23 l0 -479 q-2 -78 12 -170 l-139 0 q12 84 12 133 ZM1497 -76 l0 457 l-960 0 l0 -457 l960 0 Z" /><glyph glyph-name="" unicode="&#x540c;" d="M487 977 l0 127 q97 -10 164 -12 l766 0 q78 2 160 12 l0 -127 q-90 10 -158 12 l-768 0 q-65 -2 -164 -12 ZM655 764 q105 -10 181 -12 l381 0 q86 2 182 12 q-10 -90 -13 -166 l0 -256 q3 -74 13 -162 q-88 10 -172 13 l-393 0 q-74 -3 -179 -13 q11 94 13 170 l0 242 q-2 70 -13 172 ZM782 649 l0 -354 l490 0 l0 354 l-490 0 ZM248 1485 q102 -10 192 -12 l1190 0 q74 2 185 12 q-11 -94 -13 -174 l0 -1372 q4 -101 -71 -138 q-76 -39 -287 -49 q0 84 -60 164 q129 -16 195 -16 q46 0 63 8 q52 8 46 98 l0 1360 l-1313 0 l0 -1442 q2 -84 12 -178 l-139 0 q10 94 12 178 l0 1372 q-2 78 -12 189 Z" /><glyph glyph-name="" unicode="&#x540d;" d="M735 1055 q174 -123 332 -269 q256 189 440 428 l-753 0 q-215 -213 -389 -348 q-48 54 -142 101 q391 174 645 620 l156 -69 q20 -9 23 -17 q-3 -8 -23 -12 q-45 -19 -80 -55 q-39 -52 -102 -117 l737 0 q154 10 176 12 q-41 -53 -133 -168 q-270 -334 -684 -610 l670 0 q110 0 164 12 q-13 -63 -13 -164 l0 -551 q0 -77 13 -135 l-144 0 q12 41 12 133 l-886 0 q0 -102 12 -141 l-137 0 q12 62 12 170 l0 518 q-209 -92 -403 -166 q-33 66 -111 138 q379 47 831 348 q-135 137 -311 241 l88 101 ZM760 449 l0 -504 l880 0 l0 504 l-880 0 Z" /><glyph glyph-name="" unicode="&#x540e;" d="M78 -115 q303 254 303 914 l0 475 q-2 74 -12 170 q135 -15 326 -15 q193 0 417 15 q457 33 614 96 l97 -145 q14 -23 10 -31 q-2 -3 -9 -3 q-8 0 -20 3 q-33 9 -83 9 q-42 0 -107 -7 q-454 -49 -923 -49 q-97 0 -191 2 l0 -322 l1290 0 q78 2 166 13 l0 -131 q-96 10 -166 12 l-1290 0 l0 -107 q14 -571 -260 -966 q-62 43 -162 67 ZM678 592 q108 -10 184 -12 l684 0 q78 2 176 12 q-10 -88 -12 -164 l0 -506 q2 -71 12 -174 l-143 0 q10 82 12 148 l-782 0 q2 -74 12 -158 l-143 0 q10 94 12 180 l0 496 q-2 78 -12 178 ZM809 -2 l782 0 l0 475 l-782 0 l0 -475 Z" /><glyph glyph-name="" unicode="&#x5411;" d="M696 1567 l181 -72 q24 -10 20 -16 q-2 -9 -37 -21 q-49 -16 -74 -63 q-84 -144 -135 -228 l926 0 q98 0 201 13 q-13 -92 -13 -183 l0 -1048 q7 -146 -55 -174 q-45 -39 -307 -60 q-21 88 -64 164 q114 -11 181 -11 q54 0 75 7 q56 12 52 90 l0 1096 l-1270 0 l0 -1141 q0 -96 12 -207 l-143 0 q12 105 12 207 l0 1084 q0 77 -12 176 q106 -13 192 -13 l80 0 q135 203 178 400 ZM1352 762 q-13 -86 -13 -168 l0 -277 q0 -79 13 -176 q-92 13 -185 13 l-336 0 q-90 0 -178 -13 q13 97 13 176 l0 275 q0 76 -13 170 q92 -12 178 -12 l345 0 q88 0 176 12 ZM780 256 l445 0 l0 391 l-445 0 l0 -391 Z" /><glyph glyph-name="" unicode="&#x5417;" d="M807 172 l0 127 q102 -10 166 -12 l450 0 q50 2 166 12 l0 -127 q-110 12 -166 12 l-450 0 q-64 -2 -166 -12 ZM1720 1501 q-8 -39 -20 -108 q-6 -29 -8 -41 q-41 -252 -90 -725 l108 0 q45 0 150 10 q-31 -211 -52 -471 q-18 -246 -57 -295 q-33 -66 -197 -115 q-30 -14 -284 -49 q-15 94 -76 174 q79 -13 154 -13 q40 0 71 3 q162 10 207 57 q49 41 62 201 q2 35 12 121 q16 168 24 274 l-688 0 q-35 0 -123 -8 q-20 -2 -30 -4 q22 121 39 221 q28 174 45 387 q1 16 1 36 q0 48 -7 99 l161 -36 q12 -2 12 -10 q0 -10 -18 -27 q-31 -17 -39 -125 l-51 -430 l457 0 l92 760 l-584 0 q-65 0 -172 -13 l0 127 q92 -10 172 -12 l537 0 q69 0 192 12 ZM600 354 l-276 0 q2 -73 12 -182 l-137 0 q10 125 12 205 l0 880 q0 52 -12 185 q118 -10 192 -12 l154 0 q59 2 182 12 q-10 -109 -12 -178 l0 -815 q0 -68 12 -209 l-135 0 q8 69 8 114 ZM600 457 l0 870 l-274 0 l0 -870 l274 0 Z" /><glyph glyph-name="" unicode="&#x541b;" d="M750 1008 l-424 0 q-84 0 -189 -13 l0 127 q117 -12 189 -12 l436 0 q12 141 12 240 l-239 0 q-60 0 -160 -13 l0 123 q104 -12 164 -12 l960 0 q74 -2 184 12 q-12 -121 -12 -184 l0 -166 l105 0 q84 -2 190 12 l0 -127 q-106 13 -190 13 l-105 0 l0 -193 q0 -76 12 -186 q-112 14 -184 12 l-715 0 q-51 -125 -112 -217 q82 -12 157 -12 l709 0 q70 -2 182 12 q-12 -109 -12 -176 l0 -387 q0 -70 12 -160 l-139 0 q10 80 12 129 l-825 0 q2 -47 12 -141 l-139 0 q12 108 12 174 l0 362 q0 60 -12 152 q-168 -221 -420 -393 q-51 67 -143 108 q399 162 573 549 l-153 0 q-62 0 -164 -12 l0 123 q96 -13 166 -13 l188 0 q43 129 62 269 ZM768 309 l0 -381 l825 0 l0 381 l-825 0 ZM817 739 l739 0 l0 269 l-682 0 q-24 -156 -57 -269 ZM885 1110 l671 0 l0 240 l-655 0 q-2 -121 -16 -240 Z" /><glyph glyph-name="" unicode="&#x5426;" d="M100 709 q555 133 1024 669 l-718 0 q-84 0 -195 -12 l0 127 q100 -12 195 -12 l1267 0 q94 0 199 12 l0 -127 q-105 12 -199 12 l-385 0 q-74 -86 -184 -196 l0 -422 q0 -74 12 -182 l-139 2 q12 98 12 180 l0 301 q-313 -270 -758 -481 q-57 77 -131 129 ZM1196 997 l70 113 q364 -180 716 -379 l-65 -125 q-344 209 -721 391 ZM434 526 q96 -12 172 -12 l907 0 q91 0 173 12 q-13 -82 -13 -161 l0 -484 q0 -90 13 -172 l-140 0 q13 88 13 144 l-998 0 q0 -60 12 -156 l-139 0 q12 86 12 180 l0 483 q0 78 -12 166 ZM561 -49 l998 0 l0 461 l-998 0 l0 -461 Z" /><glyph glyph-name="" unicode="&#x5427;" d="M868 1442 q111 -12 172 -12 l568 0 q53 -3 172 12 q-13 -115 -13 -185 l0 -493 q0 -68 13 -184 q-113 14 -174 12 l-611 0 l0 -526 q-2 -97 33 -117 q29 -27 160 -25 l393 0 q215 -16 229 254 q64 -65 138 -84 q-64 -166 -127 -217 q-60 -53 -191 -51 l-475 0 q-182 -2 -225 39 q-53 35 -49 180 l0 1210 q0 72 -13 187 ZM995 1327 l0 -633 l277 0 l0 633 l-277 0 ZM1382 1327 l0 -633 l271 0 l0 633 l-271 0 ZM193 1423 q110 -12 167 -12 l179 0 q67 0 166 12 q-13 -104 -13 -172 l0 -886 q0 -70 13 -158 l-140 0 q10 82 13 125 l-259 0 l0 -23 q0 -53 13 -159 l-139 0 q12 104 12 159 l0 940 q0 68 -12 174 ZM319 434 l259 0 l0 875 l-259 0 l0 -875 Z" /><glyph glyph-name="" unicode="&#x542b;" d="M944 1608 l176 -43 q10 -2 13 -11 q0 -8 -11 -12 q-18 -6 -45 -33 q385 -501 924 -610 q-90 -55 -162 -137 q-553 272 -829 661 q-287 -411 -815 -682 q-64 70 -138 123 q637 193 887 744 ZM428 389 q107 -10 182 -12 l439 0 q-43 31 -80 55 q151 92 299 307 l-609 0 q-73 -2 -167 -12 l0 127 q90 -10 167 -12 l656 0 q78 2 184 12 q-178 -262 -377 -477 l324 0 q82 2 180 12 q-10 -102 -12 -178 l0 -334 q2 -98 12 -180 l-139 0 q10 63 12 113 l-944 0 q4 -74 12 -136 l-139 0 q10 95 12 183 l0 354 q-2 74 -12 178 ZM555 274 l0 -362 l944 0 l0 362 l-944 0 ZM846 1098 l86 88 q127 -98 248 -201 l-88 -100 q-109 119 -246 213 Z" /><glyph glyph-name="" unicode="&#x542c;" d="M537 -207 q473 258 454 950 l0 553 q0 72 -12 168 q81 -4 139 -4 q390 0 654 119 l88 -131 q14 -21 10.5 -27.5 q-3.5 -6.5 -15.5 -6.5 q-8 0 -14 1 q-14 2 -35 2 q-32 0 -69 -6 q-260 -47 -631 -74 l0 -438 l672 0 q80 0 168 12 l0 -127 q-91 15 -168 13 l-191 0 l0 -893 q0 -86 12 -203 l-139 0 q13 125 13 203 l0 893 l-369 0 q0 -420 -86 -635 q-78 -219 -326 -463 q-55 57 -155 94 ZM176 1442 q105 -12 174 -12 l246 0 q76 -3 170 12 q-12 -101 -12 -182 l0 -906 q0 -63 12 -159 l-139 0 q12 90 12 149 l-336 0 l0 -59 q0 -70 12 -168 l-139 0 q12 98 12 168 l0 975 q0 69 -12 182 ZM303 446 l336 0 l0 881 l-336 0 l0 -881 Z" /><glyph glyph-name="" unicode="&#x5439;" d="M1217 911 l163 -20 q27 -2 29 -12 q2 -7 -20 -29 q-41 -45 -41 -117 q0 -25 6 -57 q141 -639 628 -860 q-73 -35 -155 -123 q-381 307 -531 753 q-104 -481 -600 -772 q-59 70 -157 115 q696 211 678 1122 ZM780 707 q291 360 346 907 l185 -51 q16 -4 16 -13 q-2 -8 -22 -22 q-48 -33 -68 -107 q-45 -153 -80 -260 l574 0 q47 0 157 13 q-39 -111 -129 -369 q-18 -55 -28 -82 q-48 25 -154 47 q76 96 137 289 l-592 0 q-88 -227 -190 -416 q-72 39 -152 64 ZM166 1372 q123 -10 194 -12 l168 0 q66 2 209 12 q-12 -127 -12 -186 l0 -801 q0 -63 12 -178 l-139 0 q8 55 12 119 l-317 0 l0 -13 q2 -65 12 -174 l-139 0 q10 109 12 174 l0 875 q0 45 -12 184 ZM293 428 l317 0 l0 829 l-317 0 l0 -829 Z" /><glyph glyph-name="" unicode="&#x544a;" d="M328 735 l663 0 l0 344 l-428 0 q-57 -110 -139 -243 q-59 34 -148 55 q211 203 293 588 l154 -68 q20 -10 18 -18.5 q-2 -8.5 -28 -16.5 q-35 -14 -49 -51 q-27 -76 -56 -143 l383 0 l0 217 q0 78 -12 190 l164 -20 q22 -2 24 -13 q0 -10 -18 -28 q-39 -45 -43 -158 l0 -188 l442 0 q74 0 170 12 l0 -127 q-18 2 -53 4 q-86 8 -117 8 l-442 0 l0 -344 l643 0 q80 0 195 13 l0 -127 q-107 12 -195 12 l-1421 0 q-82 0 -197 -12 l0 127 q115 -13 197 -13 ZM461 432 q112 -12 180 -12 l780 0 q66 -2 176 12 q-12 -117 -12 -176 l0 -381 q0 -63 12 -160 l-139 0 q8 54 12 125 l-880 0 q4 -65 12 -141 l-141 0 q12 96 12 164 l0 395 q0 62 -12 174 ZM588 -61 l882 0 l0 378 l-882 0 l0 -378 Z" /><glyph glyph-name="" unicode="&#x5462;" d="M543 -149 q200 190 264 407 q70 215 67 670 l0 385 q0 82 -12 180 q92 -14 185 -12 l540 0 q86 0 185 12 q-13 -82 -13 -176 l0 -256 q0 -80 13 -176 q-95 12 -189 12 l-592 0 q8 -766 -301 -1112 q-65 41 -147 66 ZM989 999 l656 0 l0 379 l-656 0 l0 -379 ZM1186 788 l149 -22 q33 -4 33 -12 q4 -9 -22 -27 q-35 -16 -33 -145 l0 -187 q295 99 461 269 l110 -123 q13 -13 13 -20 q0 -2 -1 -3 q-2 -4 -26 -6 q-55 -2 -103 -27 q-202 -98 -454 -213 l0 -282 q-10 -107 90 -105 q55 -4 156 -4 q104 2 131 6 q131 25 133 205 q55 -47 137 -82 q-84 -239 -246 -237 q-70 -10 -164 -10 q-69 0 -166 6 q-110 4 -147 47 q-41 39 -39 147 l0 619 q0 94 -12 206 ZM174 1399 q105 -12 180 -12 l174 0 q90 0 179 12 q-13 -88 -13 -164 l0 -829 q0 -95 13 -187 l-140 0 q13 84 13 133 l-279 0 l0 -37 q0 -79 12 -174 l-139 0 q12 86 12 174 l0 914 q0 78 -12 170 ZM301 455 l279 0 l0 829 l-279 0 l0 -829 Z" /><glyph glyph-name="" unicode="&#x5466;" d="M926 1561 l151 -48 q23 -6 23 -16 q-2 -10 -27 -22 q-41 -17 -80 -115 q-92 -229 -215 -510 l238 10 q57 154 71 234 l138 -62 q26 -12 24 -21.5 q-2 -9.5 -32 -23.5 q-39 -16 -70 -96 q-164 -399 -340 -711 q166 35 293 78 q-21 55 -78 178 l108 49 q9 -18 52 -118 q61 -144 106 -248 l-121 -55 q-14 49 -30 102 q-226 -62 -441 -141 l-71 127 q80 43 133 145 q125 233 221 465 q-256 -14 -311 -33 l-43 123 q55 23 94 100 q160 346 207 609 ZM1024 -236 q408 279 432 1160 q-86 -6 -166 -15 l0 138 q82 -13 174 -13 q3 130 3 201 q0 229 -17 346 l152 -20 q32 -5 36 -15 q4 -10 -18 -28 q-37 -19 -41 -129 q-7 -101 -7 -238 q0 -61 1 -113 l147 2 q68 2 170 15 q-12 -105 -14 -158 q-33 -694 -59 -952 q0 -215 -322 -211 q-2 67 -37 139 q67 -9 113 -9 q56 0 80 13 q51 21 59 113 q29 233 55 944 l-192 -6 q-25 -826 -393 -1233 q-47 37 -156 69 ZM471 180 l-201 0 l0 -30 q2 -56 13 -166 l-127 0 q10 94 12 166 l0 964 q0 51 -12 186 q129 -12 188 -12 l47 0 q68 2 195 12 q-11 -129 -13 -186 l0 -911 q0 -51 13 -168 l-127 0 q8 69 12 145 ZM270 1186 l0 -903 l201 0 l0 903 l-201 0 Z" /><glyph glyph-name="" unicode="&#x5468;" d="M119 -238 q133 148 182 379 q51 230 51 684 l0 521 q2 57 -12 131 q82 -15 137 -13 l1204 0 q56 -2 138 13 q-15 -76 -13 -138 l0 -1417 q4 -129 -53 -162 q-49 -39 -276 -65 q-11 88 -70 172 q92 -8 151 -8 q59 0 84 8 q54 12 50 80 l0 1415 l-1225 0 l0 -559 q2 -453 -39 -668 q-39 -223 -158 -440 q-73 43 -151 67 ZM686 762 l322 0 l0 213 l-246 0 q-53 2 -133 -12 l0 122 q78 -14 129 -12 l250 0 l0 60 q2 84 -13 165 l168 -20 q19 -2 19 -12.5 q0 -10.5 -19 -18.5 q-41 -26 -45 -123 l0 -51 l264 0 q64 -2 134 12 l0 -122 q-82 14 -138 12 l-260 0 l0 -213 l357 0 q51 -2 116 12 l0 -123 q-65 15 -116 13 l-783 0 q-49 2 -129 -13 l0 123 q72 -14 123 -12 ZM680 33 q14 61 12 131 l0 199 q2 65 -12 133 q82 -15 139 -13 l500 0 q59 -2 137 13 q-14 -76 -12 -136 l0 -198 q-2 -62 12 -129 q-78 14 -137 12 l-500 0 q-67 2 -139 -12 ZM803 385 l0 -242 l530 0 l0 242 l-530 0 Z" /><glyph glyph-name="" unicode="&#x5473;" d="M518 -61 q414 215 674 741 l-330 0 q-61 2 -127 -12 l0 127 q68 -15 121 -13 l352 0 l0 385 l-250 0 q-55 2 -141 -12 l0 127 q76 -14 141 -12 l250 0 l0 117 q2 110 -12 206 l174 -20 q16 -2 16 -14 q0 -15 -16 -25 q-49 -27 -47 -156 l0 -108 l281 0 q53 -2 129 12 l0 -127 q-76 14 -129 12 l-281 0 l0 -385 l391 0 q60 -2 129 13 l0 -127 q-74 14 -129 12 l-375 0 q271 -510 672 -649 q-110 -47 -153 -123 q-322 225 -535 577 l0 -596 q-2 -79 12 -182 l-139 0 q8 55 10 86 q2 33 2 94 l0 570 q-202 -348 -540 -606 q-62 51 -150 88 ZM150 1335 q92 -12 147 -12 l242 0 q67 -2 159 12 q-14 -75 -12 -161 l0 -838 q-2 -64 12 -160 l-135 0 q15 62 12 117 l-303 0 q-2 -76 13 -166 l-135 0 q14 82 12 162 l0 885 q2 73 -12 161 ZM272 395 l303 0 l0 826 l-303 0 l0 -826 Z" /><glyph glyph-name="" unicode="&#x547c;" d="M889 633 l389 0 l0 708 q-197 -18 -467 -30 q-8 69 -57 151 q104 -23 254 -23 q119 0 274 15 q336 39 508 119 l86 -123 q14 -20 10 -27.5 q-4 -7.5 -28 -7.5 q-68 0 -179 -20 q-135 -25 -286 -39 l0 -723 l397 0 q84 2 170 12 l0 -127 q-84 10 -170 12 l-397 0 l0 -532 q6 -197 -50 -225 q-36 -43 -307 -56 q0 78 -43 168 q120 -17 183 -17 q40 0 57 7 q49 12 45 102 l0 553 l-387 0 q-80 -2 -168 -12 l0 127 q90 -10 166 -12 ZM801 1116 l96 78 q158 -188 285 -371 l-109 -78 q-104 189 -272 371 ZM1581 760 q-53 33 -125 55 q154 160 242 420 l141 -70 q19 -8 19 -18 q0 -10 -21 -19 q-49 -20 -84 -86 q-78 -147 -172 -282 ZM180 1419 q92 -10 166 -12 l182 0 q74 2 166 12 q-10 -96 -12 -164 l0 -870 q2 -84 12 -174 l-139 0 q10 80 12 147 l-260 0 l0 -18 q2 -80 12 -168 l-139 0 q10 90 13 168 l0 911 q-3 74 -13 168 ZM307 461 l260 0 l0 844 l-260 0 l0 -844 Z" /><glyph glyph-name="" unicode="&#x547d;" d="M61 901 q541 191 873 717 l143 -53 q23 -6 23 -17 q0 -6 -21 -12 q-18 -4 -35 -27 q291 -405 949 -577 q-88 -49 -135 -125 q-189 74 -379 184 l0 -100 q-62 12 -162 12 l-590 0 q-102 0 -158 -12 l0 123 q93 -8 158 -8 l590 0 q2 0 113 12 q-269 162 -465 414 q-316 -402 -768 -641 q-58 69 -136 110 ZM336 686 q43 -12 153 -12 l259 0 q96 0 153 12 q-12 -53 -12 -166 l0 -510 q0 -73 12 -108 l-139 0 q12 26 12 98 l-313 0 q0 -92 12 -123 l-137 0 q12 51 12 131 l0 512 q0 92 -12 166 ZM463 571 l0 -469 l311 0 l0 469 l-311 0 ZM1225 -344 l-140 0 q13 55 13 168 l0 713 q0 110 -13 161 q62 -12 168 -12 l285 0 q104 0 166 12 q-12 -57 -12 -161 l0 -430 q4 -105 -50 -134 q-38 -30 -233 -55 q-12 66 -63 146 q94 -11 145 -11 q37 0 51 6 q37 11 35 78 l0 447 l-365 0 l0 -762 q0 -103 13 -166 Z" /><glyph glyph-name="" unicode="&#x5480;" d="M729 -82 l162 0 l0 1372 q0 76 -12 189 q108 -13 180 -13 l448 0 q84 0 191 13 q-12 -95 -10 -193 l0 -1368 l79 0 q68 0 170 8 l0 -123 q-96 13 -170 13 l-1040 0 q-68 0 -164 -13 l0 123 q103 -8 166 -8 ZM1010 948 l559 0 l0 416 l-559 0 l0 -416 ZM1010 846 l0 -414 l559 0 l0 414 l-559 0 ZM1010 -82 l559 0 l0 412 l-559 0 l0 -412 ZM123 1401 q98 -12 174 -12 l219 0 q70 0 174 12 q-12 -101 -12 -176 l0 -860 q0 -66 12 -160 l-139 0 q10 96 12 137 l-313 0 l0 -49 q0 -68 12 -164 l-139 0 q14 102 12 164 l0 926 q2 71 -12 182 ZM250 444 l313 0 l0 842 l-313 0 l0 -842 Z" /><glyph glyph-name="" unicode="&#x548c;" d="M121 201 q239 207 475 667 l-289 0 q-74 -2 -160 -12 l0 127 q86 -10 160 -12 l314 0 l0 373 q-121 -21 -357 -52 q-16 66 -61 140 q62 -2 92 -2 q403 0 694 120 l76 -129 q5 -8 5 -12 q0 -3 -3 -6 q-4 -4 -23 -2 q-15 3 -29 3 q-19 0 -48 -5 q-31 -4 -101 -17 q-96 -14 -131 -20 l0 -391 l213 0 q88 2 168 12 l0 -127 q-84 10 -166 12 l-215 0 l0 -94 q203 -141 350 -276 l-88 -113 q-123 139 -262 250 l0 -752 q2 -69 13 -176 l-140 0 q10 98 13 176 l0 787 q-179 -289 -357 -535 q-45 39 -143 66 ZM1169 1317 q109 -10 179 -12 l342 0 q79 2 176 12 q-11 -90 -13 -170 l0 -1051 q2 -76 13 -174 l-140 0 q11 82 13 150 l-447 0 q2 -74 13 -160 l-136 0 q11 92 13 170 l0 1067 q-2 74 -13 168 ZM1296 1202 l0 -1028 l443 0 l0 1028 l-443 0 Z" /><glyph glyph-name="" unicode="&#x54bd;" d="M993 264 q238 146 293 561 l-96 0 q-113 0 -162 -12 l0 127 q53 -12 162 -12 l104 0 q7 80 7 155 q0 97 -11 207 l176 -30 q9 -3 11 -9 q-2 -8 -11 -14 q-36 -33 -43 -100 q-4 -123 -16 -209 l98 0 q103 0 164 12 l0 -127 q-63 12 -166 12 l-104 0 l-17 -92 q191 -219 334 -409 l-104 -91 q-92 170 -254 361 q-80 -238 -256 -428 q-41 55 -109 98 ZM831 1466 q60 -12 162 -12 l709 0 q106 0 170 12 q-12 -61 -12 -174 l0 -1374 q0 -104 12 -186 l-139 0 q12 61 12 174 l-789 0 q0 -119 13 -189 l-138 0 q13 76 13 189 l0 1384 q0 109 -13 176 ZM958 1350 l0 -1346 l787 0 l0 1346 l-787 0 ZM197 1354 q53 -13 161 -13 l187 0 q98 0 160 13 q-13 -62 -13 -162 l0 -897 q0 -82 13 -129 l-136 0 q13 47 13 123 l-263 0 l0 -25 q0 -100 13 -170 l-135 0 q12 72 12 170 l0 924 q0 106 -12 166 ZM319 1243 l0 -856 l263 0 l0 856 l-263 0 Z" /><glyph glyph-name="" unicode="&#x54c1;" d="M535 788 q14 70 12 136 l0 403 q2 70 -12 133 q86 -14 151 -12 l668 0 q69 0 155 12 q-14 -69 -12 -135 l0 -410 q0 -45 12 -127 q-90 15 -139 13 l-684 0 q-68 2 -151 -13 ZM657 1346 l0 -443 l729 0 l0 443 l-729 0 ZM242 592 q77 -14 141 -12 l405 0 q60 -2 138 12 q-15 -78 -13 -139 l0 -533 q-2 -76 13 -166 l-135 0 q14 66 12 146 l-438 0 q-3 -84 12 -170 l-135 0 q14 90 12 166 l0 559 q2 59 -12 137 ZM365 477 l0 -479 l438 0 l0 479 l-438 0 ZM1120 600 q76 -14 135 -12 l441 0 q57 -2 141 12 q-14 -61 -12 -129 l0 -547 q-2 -67 12 -162 l-135 0 q14 64 12 140 l-471 0 q-2 -82 12 -162 l-135 0 q15 90 13 170 l0 555 q2 59 -13 135 ZM1243 485 l0 -485 l471 0 l0 485 l-471 0 Z" /><glyph glyph-name="" unicode="&#x54c8;" d="M1194 1602 l172 -43 q18 -5 18 -11 q0 -6 -16 -14 q-10 -4 -31 -31 q2 0 -2 -4 q291 -508 641 -627 q-90 -63 -139 -127 q-344 250 -559 644 q-188 -408 -483 -676 q-23 47 -129 106 q401 238 528 783 ZM954 709 l0 127 q60 -13 162 -13 l387 0 q99 0 164 13 l0 -127 q-68 12 -168 12 l-383 0 q-108 0 -162 -12 ZM119 1313 q49 -13 162 -13 l221 0 q76 3 162 13 q-13 -56 -13 -164 l0 -930 q0 -78 13 -119 l-140 0 q13 39 13 121 l-291 0 l0 -26 q0 -7 0 -21 q-2 -102 8 -149 l-135 0 q12 51 12 170 l0 952 q0 108 -12 166 ZM246 1198 l0 -874 l291 0 l0 874 l-291 0 ZM874 479 q50 -12 164 -12 l537 0 q92 0 164 12 q-13 -51 -13 -162 l0 -475 q0 -63 13 -112 l-140 0 q13 32 13 110 l-613 0 q0 -92 13 -137 l-138 0 q13 47 13 137 l0 473 q0 99 -13 166 ZM997 365 l0 -426 l615 0 l0 426 l-615 0 Z" /><glyph glyph-name="" unicode="&#x54cd;" d="M856 1243 q86 -12 170 -12 l123 0 q78 207 100 379 l174 -66 q17 -6 15 -14 q-2 -8 -21 -19 q-59 -28 -71 -71 q-43 -119 -78 -209 l432 0 q74 0 164 12 q-13 -72 -13 -158 l0 -1167 q4 -117 -47 -149 q-43 -37 -231 -60 q-14 82 -64 162 q88 -10 138 -10 q39 0 53 6 q41 10 37 86 l0 1175 l-754 0 l0 -1191 q0 -89 12 -211 l-139 0 q12 112 12 211 l0 1144 q0 70 -12 162 ZM190 1237 q82 -12 170 -12 l179 0 q86 0 168 12 q-13 -88 -13 -166 l0 -797 q0 -71 13 -180 l-140 0 q13 66 13 109 l-263 0 q0 -70 13 -174 l-140 0 q13 98 13 174 l0 864 q0 76 -13 170 ZM317 1122 l0 -817 l263 0 l0 817 l-263 0 ZM1118 209 q12 90 12 172 l0 344 q0 78 -12 172 q94 -12 172 -12 l133 0 q80 0 170 12 q-12 -88 -12 -170 l0 -354 q0 -72 12 -164 q-86 12 -174 12 l-127 0 q-75 0 -174 -12 ZM1241 782 l0 -458 l229 0 l0 458 l-229 0 Z" /></font>
</defs>
</svg>
